<mxfile host="65bd71144e">
    <diagram id="Hno4EH3RgTpdNEn8snZv" name="Página-1">
        <mxGraphModel dx="278" dy="133" grid="1" gridSize="10" guides="1" tooltips="1" connect="1" arrows="1" fold="1" page="1" pageScale="1" pageWidth="827" pageHeight="1169" math="0" shadow="0">
            <root>
                <mxCell id="0"/>
                <mxCell id="1" parent="0"/>
                <mxCell id="125" value="Modelo Físico" style="text;strokeColor=none;fillColor=none;html=1;fontSize=24;fontStyle=1;verticalAlign=middle;align=center;fontColor=default;" parent="1" vertex="1">
                    <mxGeometry x="364" y="1230" width="100" height="60" as="geometry"/>
                </mxCell>
                <mxCell id="127" value="MER" style="text;strokeColor=none;fillColor=none;html=1;fontSize=24;fontStyle=1;verticalAlign=middle;align=center;fontColor=default;" parent="1" vertex="1">
                    <mxGeometry x="364" y="40" width="100" height="40" as="geometry"/>
                </mxCell>
                <mxCell id="128" value="&lt;span style=&quot;border-bottom: 1px dotted&quot;&gt;crm&lt;/span&gt;" style="ellipse;whiteSpace=wrap;html=1;align=center;fillStyle=auto;fillColor=none;fontStyle=1" parent="1" vertex="1">
                    <mxGeometry x="140" y="229" width="100" height="40" as="geometry"/>
                </mxCell>
                <mxCell id="129" value="nome" style="ellipse;whiteSpace=wrap;html=1;align=center;" parent="1" vertex="1">
                    <mxGeometry x="140" y="290" width="100" height="40" as="geometry"/>
                </mxCell>
                <mxCell id="130" value="" style="line;strokeWidth=2;direction=south;html=1;" parent="1" vertex="1">
                    <mxGeometry x="115" y="200" width="10" height="780" as="geometry"/>
                </mxCell>
                <mxCell id="131" value="genero" style="ellipse;whiteSpace=wrap;html=1;align=center;" parent="1" vertex="1">
                    <mxGeometry x="140" y="350" width="100" height="40" as="geometry"/>
                </mxCell>
                <mxCell id="132" value="endereco" style="ellipse;whiteSpace=wrap;html=1;align=center;" parent="1" vertex="1">
                    <mxGeometry x="140" y="530" width="100" height="40" as="geometry"/>
                </mxCell>
                <mxCell id="133" value="" style="endArrow=none;html=1;rounded=0;" parent="1" edge="1">
                    <mxGeometry width="50" height="50" relative="1" as="geometry">
                        <mxPoint x="120" y="249.76999999999998" as="sourcePoint"/>
                        <mxPoint x="140" y="249.76999999999998" as="targetPoint"/>
                    </mxGeometry>
                </mxCell>
                <mxCell id="134" value="" style="endArrow=none;html=1;rounded=0;" parent="1" edge="1">
                    <mxGeometry width="50" height="50" relative="1" as="geometry">
                        <mxPoint x="120" y="309.80999999999995" as="sourcePoint"/>
                        <mxPoint x="140" y="309.80999999999995" as="targetPoint"/>
                    </mxGeometry>
                </mxCell>
                <mxCell id="135" value="" style="endArrow=none;html=1;rounded=0;" parent="1" edge="1">
                    <mxGeometry width="50" height="50" relative="1" as="geometry">
                        <mxPoint x="120" y="369.80999999999995" as="sourcePoint"/>
                        <mxPoint x="140" y="369.80999999999995" as="targetPoint"/>
                    </mxGeometry>
                </mxCell>
                <mxCell id="136" value="" style="endArrow=none;html=1;rounded=0;" parent="1" edge="1">
                    <mxGeometry width="50" height="50" relative="1" as="geometry">
                        <mxPoint x="120" y="429.80999999999995" as="sourcePoint"/>
                        <mxPoint x="140" y="429.80999999999995" as="targetPoint"/>
                    </mxGeometry>
                </mxCell>
                <mxCell id="137" value="" style="endArrow=none;html=1;rounded=0;" parent="1" edge="1">
                    <mxGeometry width="50" height="50" relative="1" as="geometry">
                        <mxPoint x="120" y="549.81" as="sourcePoint"/>
                        <mxPoint x="140" y="549.81" as="targetPoint"/>
                    </mxGeometry>
                </mxCell>
                <mxCell id="138" value="&lt;span style=&quot;border-bottom: 1px dotted&quot;&gt;consulta_id&lt;/span&gt;" style="ellipse;whiteSpace=wrap;html=1;align=center;fontStyle=1" parent="1" vertex="1">
                    <mxGeometry x="396" y="230" width="100" height="40" as="geometry"/>
                </mxCell>
                <mxCell id="139" value="datahora" style="ellipse;whiteSpace=wrap;html=1;align=center;" parent="1" vertex="1">
                    <mxGeometry x="396" y="290" width="100" height="40" as="geometry"/>
                </mxCell>
                <mxCell id="140" value="" style="line;strokeWidth=2;direction=south;html=1;" parent="1" vertex="1">
                    <mxGeometry x="371" y="200" width="10" height="410" as="geometry"/>
                </mxCell>
                <mxCell id="141" value="diagnostico" style="ellipse;whiteSpace=wrap;html=1;align=center;" parent="1" vertex="1">
                    <mxGeometry x="396" y="350" width="100" height="40" as="geometry"/>
                </mxCell>
                <mxCell id="142" value="receita" style="ellipse;whiteSpace=wrap;html=1;align=center;" parent="1" vertex="1">
                    <mxGeometry x="396" y="410" width="100" height="40" as="geometry"/>
                </mxCell>
                <mxCell id="143" value="observacoes" style="ellipse;whiteSpace=wrap;html=1;align=center;" parent="1" vertex="1">
                    <mxGeometry x="396" y="470" width="100" height="40" as="geometry"/>
                </mxCell>
                <mxCell id="144" value="" style="endArrow=none;html=1;rounded=0;" parent="1" edge="1">
                    <mxGeometry width="50" height="50" relative="1" as="geometry">
                        <mxPoint x="376" y="249.76999999999998" as="sourcePoint"/>
                        <mxPoint x="396" y="249.76999999999998" as="targetPoint"/>
                    </mxGeometry>
                </mxCell>
                <mxCell id="145" value="" style="endArrow=none;html=1;rounded=0;" parent="1" edge="1">
                    <mxGeometry width="50" height="50" relative="1" as="geometry">
                        <mxPoint x="376" y="309.80999999999995" as="sourcePoint"/>
                        <mxPoint x="396" y="309.80999999999995" as="targetPoint"/>
                    </mxGeometry>
                </mxCell>
                <mxCell id="146" value="" style="endArrow=none;html=1;rounded=0;" parent="1" edge="1">
                    <mxGeometry width="50" height="50" relative="1" as="geometry">
                        <mxPoint x="376" y="369.80999999999995" as="sourcePoint"/>
                        <mxPoint x="396" y="369.80999999999995" as="targetPoint"/>
                    </mxGeometry>
                </mxCell>
                <mxCell id="147" value="" style="endArrow=none;html=1;rounded=0;" parent="1" edge="1">
                    <mxGeometry width="50" height="50" relative="1" as="geometry">
                        <mxPoint x="376" y="429.80999999999995" as="sourcePoint"/>
                        <mxPoint x="396" y="429.80999999999995" as="targetPoint"/>
                    </mxGeometry>
                </mxCell>
                <mxCell id="148" value="" style="endArrow=none;html=1;rounded=0;" parent="1" edge="1">
                    <mxGeometry width="50" height="50" relative="1" as="geometry">
                        <mxPoint x="376" y="489.80999999999995" as="sourcePoint"/>
                        <mxPoint x="396" y="489.80999999999995" as="targetPoint"/>
                    </mxGeometry>
                </mxCell>
                <mxCell id="149" value="&lt;span style=&quot;border-bottom: 1px dotted&quot;&gt;cpf&lt;/span&gt;" style="ellipse;whiteSpace=wrap;html=1;align=center;fontStyle=1" parent="1" vertex="1">
                    <mxGeometry x="660" y="230" width="100" height="40" as="geometry"/>
                </mxCell>
                <mxCell id="150" value="nome" style="ellipse;whiteSpace=wrap;html=1;align=center;" parent="1" vertex="1">
                    <mxGeometry x="660" y="290" width="100" height="40" as="geometry"/>
                </mxCell>
                <mxCell id="151" value="" style="line;strokeWidth=2;direction=south;html=1;" parent="1" vertex="1">
                    <mxGeometry x="635" y="200" width="10" height="350" as="geometry"/>
                </mxCell>
                <mxCell id="152" value="genero" style="ellipse;whiteSpace=wrap;html=1;align=center;" parent="1" vertex="1">
                    <mxGeometry x="660" y="350" width="100" height="40" as="geometry"/>
                </mxCell>
                <mxCell id="153" value="telefone_movel" style="ellipse;whiteSpace=wrap;html=1;align=center;" parent="1" vertex="1">
                    <mxGeometry x="660" y="470" width="100" height="40" as="geometry"/>
                </mxCell>
                <mxCell id="154" value="" style="endArrow=none;html=1;rounded=0;" parent="1" edge="1">
                    <mxGeometry width="50" height="50" relative="1" as="geometry">
                        <mxPoint x="640" y="249.76999999999998" as="sourcePoint"/>
                        <mxPoint x="660" y="249.76999999999998" as="targetPoint"/>
                    </mxGeometry>
                </mxCell>
                <mxCell id="155" value="" style="endArrow=none;html=1;rounded=0;" parent="1" edge="1">
                    <mxGeometry width="50" height="50" relative="1" as="geometry">
                        <mxPoint x="640" y="309.80999999999995" as="sourcePoint"/>
                        <mxPoint x="660" y="309.80999999999995" as="targetPoint"/>
                    </mxGeometry>
                </mxCell>
                <mxCell id="156" value="" style="endArrow=none;html=1;rounded=0;" parent="1" edge="1">
                    <mxGeometry width="50" height="50" relative="1" as="geometry">
                        <mxPoint x="640" y="369.80999999999995" as="sourcePoint"/>
                        <mxPoint x="660" y="369.80999999999995" as="targetPoint"/>
                    </mxGeometry>
                </mxCell>
                <mxCell id="157" value="" style="endArrow=none;html=1;rounded=0;" parent="1" edge="1">
                    <mxGeometry width="50" height="50" relative="1" as="geometry">
                        <mxPoint x="640" y="429.80999999999995" as="sourcePoint"/>
                        <mxPoint x="660" y="429.80999999999995" as="targetPoint"/>
                    </mxGeometry>
                </mxCell>
                <mxCell id="158" value="" style="endArrow=none;html=1;rounded=0;" parent="1" edge="1">
                    <mxGeometry width="50" height="50" relative="1" as="geometry">
                        <mxPoint x="640" y="489.80999999999995" as="sourcePoint"/>
                        <mxPoint x="660" y="489.80999999999995" as="targetPoint"/>
                    </mxGeometry>
                </mxCell>
                <mxCell id="159" value="especialidade" style="ellipse;whiteSpace=wrap;html=1;align=center;" parent="1" vertex="1">
                    <mxGeometry x="140" y="960" width="100" height="40" as="geometry"/>
                </mxCell>
                <mxCell id="160" value="" style="endArrow=none;html=1;rounded=0;" parent="1" edge="1">
                    <mxGeometry width="50" height="50" relative="1" as="geometry">
                        <mxPoint x="120" y="979.8199999999999" as="sourcePoint"/>
                        <mxPoint x="140" y="979.8199999999999" as="targetPoint"/>
                    </mxGeometry>
                </mxCell>
                <mxCell id="161" value="crm" style="ellipse;whiteSpace=wrap;html=1;align=center;fontColor=#FF0000;fontStyle=1" parent="1" vertex="1">
                    <mxGeometry x="396" y="530" width="100" height="40" as="geometry"/>
                </mxCell>
                <mxCell id="162" value="cpf" style="ellipse;whiteSpace=wrap;html=1;align=center;fontColor=#FF0000;fontStyle=1" parent="1" vertex="1">
                    <mxGeometry x="396" y="590" width="100" height="40" as="geometry"/>
                </mxCell>
                <mxCell id="163" value="" style="endArrow=none;html=1;rounded=0;" parent="1" edge="1">
                    <mxGeometry width="50" height="50" relative="1" as="geometry">
                        <mxPoint x="376" y="550" as="sourcePoint"/>
                        <mxPoint x="396" y="550" as="targetPoint"/>
                    </mxGeometry>
                </mxCell>
                <mxCell id="164" value="" style="endArrow=none;html=1;rounded=0;" parent="1" edge="1">
                    <mxGeometry width="50" height="50" relative="1" as="geometry">
                        <mxPoint x="376" y="610" as="sourcePoint"/>
                        <mxPoint x="396" y="610" as="targetPoint"/>
                    </mxGeometry>
                </mxCell>
                <mxCell id="165" value="rua" style="ellipse;whiteSpace=wrap;html=1;align=center;" parent="1" vertex="1">
                    <mxGeometry x="210" y="600" width="100" height="40" as="geometry"/>
                </mxCell>
                <mxCell id="166" value="" style="line;strokeWidth=2;direction=south;html=1;" parent="1" vertex="1">
                    <mxGeometry x="185" y="570" width="10" height="350" as="geometry"/>
                </mxCell>
                <mxCell id="167" value="" style="endArrow=none;html=1;rounded=0;" parent="1" edge="1">
                    <mxGeometry width="50" height="50" relative="1" as="geometry">
                        <mxPoint x="190" y="619.8599999999999" as="sourcePoint"/>
                        <mxPoint x="210" y="619.8599999999999" as="targetPoint"/>
                    </mxGeometry>
                </mxCell>
                <mxCell id="168" value="complemento" style="ellipse;whiteSpace=wrap;html=1;align=center;" parent="1" vertex="1">
                    <mxGeometry x="210" y="700" width="100" height="40" as="geometry"/>
                </mxCell>
                <mxCell id="169" value="" style="endArrow=none;html=1;rounded=0;" parent="1" edge="1">
                    <mxGeometry width="50" height="50" relative="1" as="geometry">
                        <mxPoint x="190" y="719.8599999999999" as="sourcePoint"/>
                        <mxPoint x="210" y="719.8599999999999" as="targetPoint"/>
                    </mxGeometry>
                </mxCell>
                <mxCell id="170" value="bairro" style="ellipse;whiteSpace=wrap;html=1;align=center;" parent="1" vertex="1">
                    <mxGeometry x="210" y="750" width="100" height="40" as="geometry"/>
                </mxCell>
                <mxCell id="171" value="" style="endArrow=none;html=1;rounded=0;" parent="1" edge="1">
                    <mxGeometry width="50" height="50" relative="1" as="geometry">
                        <mxPoint x="190" y="769.8599999999999" as="sourcePoint"/>
                        <mxPoint x="210" y="769.8599999999999" as="targetPoint"/>
                    </mxGeometry>
                </mxCell>
                <mxCell id="172" value="cep" style="ellipse;whiteSpace=wrap;html=1;align=center;" parent="1" vertex="1">
                    <mxGeometry x="210" y="800" width="100" height="40" as="geometry"/>
                </mxCell>
                <mxCell id="173" value="" style="endArrow=none;html=1;rounded=0;" parent="1" edge="1">
                    <mxGeometry width="50" height="50" relative="1" as="geometry">
                        <mxPoint x="190" y="819.8599999999999" as="sourcePoint"/>
                        <mxPoint x="210" y="819.8599999999999" as="targetPoint"/>
                    </mxGeometry>
                </mxCell>
                <mxCell id="174" value="cidade" style="ellipse;whiteSpace=wrap;html=1;align=center;" parent="1" vertex="1">
                    <mxGeometry x="210" y="850" width="100" height="40" as="geometry"/>
                </mxCell>
                <mxCell id="175" value="" style="endArrow=none;html=1;rounded=0;" parent="1" edge="1">
                    <mxGeometry width="50" height="50" relative="1" as="geometry">
                        <mxPoint x="190" y="869.8599999999999" as="sourcePoint"/>
                        <mxPoint x="210" y="869.8599999999999" as="targetPoint"/>
                    </mxGeometry>
                </mxCell>
                <mxCell id="176" value="estado" style="ellipse;whiteSpace=wrap;html=1;align=center;" parent="1" vertex="1">
                    <mxGeometry x="210" y="900" width="100" height="40" as="geometry"/>
                </mxCell>
                <mxCell id="177" value="" style="endArrow=none;html=1;rounded=0;" parent="1" edge="1">
                    <mxGeometry width="50" height="50" relative="1" as="geometry">
                        <mxPoint x="190" y="919.8599999999999" as="sourcePoint"/>
                        <mxPoint x="210" y="919.8599999999999" as="targetPoint"/>
                    </mxGeometry>
                </mxCell>
                <mxCell id="178" value="" style="endArrow=none;html=1;rounded=0;" parent="1" edge="1">
                    <mxGeometry width="50" height="50" relative="1" as="geometry">
                        <mxPoint x="120" y="489.80999999999995" as="sourcePoint"/>
                        <mxPoint x="140" y="489.80999999999995" as="targetPoint"/>
                    </mxGeometry>
                </mxCell>
                <mxCell id="179" value="telefone_fixo" style="ellipse;whiteSpace=wrap;html=1;align=center;" parent="1" vertex="1">
                    <mxGeometry x="140" y="410" width="100" height="40" as="geometry"/>
                </mxCell>
                <mxCell id="180" value="telefone_movel" style="ellipse;whiteSpace=wrap;html=1;align=center;" parent="1" vertex="1">
                    <mxGeometry x="140" y="470" width="100" height="40" as="geometry"/>
                </mxCell>
                <mxCell id="181" value="medicos" style="whiteSpace=wrap;html=1;align=center;" parent="1" vertex="1">
                    <mxGeometry x="70" y="160" width="100" height="40" as="geometry"/>
                </mxCell>
                <mxCell id="182" value="pacientes" style="whiteSpace=wrap;html=1;align=center;" parent="1" vertex="1">
                    <mxGeometry x="590" y="160" width="100" height="40" as="geometry"/>
                </mxCell>
                <mxCell id="183" value="" style="line;strokeWidth=2;html=1;" parent="1" vertex="1">
                    <mxGeometry x="170" y="175" width="140" height="10" as="geometry"/>
                </mxCell>
                <mxCell id="184" value="" style="line;strokeWidth=2;html=1;" parent="1" vertex="1">
                    <mxGeometry x="446" y="175" width="144" height="10" as="geometry"/>
                </mxCell>
                <mxCell id="185" value="N" style="text;html=1;strokeColor=none;fillColor=none;align=center;verticalAlign=middle;whiteSpace=wrap;rounded=0;" parent="1" vertex="1">
                    <mxGeometry x="160" y="150" width="60" height="30" as="geometry"/>
                </mxCell>
                <mxCell id="186" value="N" style="text;html=1;strokeColor=none;fillColor=none;align=center;verticalAlign=middle;whiteSpace=wrap;rounded=0;" parent="1" vertex="1">
                    <mxGeometry x="540" y="150" width="60" height="30" as="geometry"/>
                </mxCell>
                <mxCell id="187" value="consulta" style="shape=associativeEntity;whiteSpace=wrap;html=1;align=center;" parent="1" vertex="1">
                    <mxGeometry x="306" y="150" width="140" height="60" as="geometry"/>
                </mxCell>
                <mxCell id="188" value="nascimento" style="ellipse;whiteSpace=wrap;html=1;align=center;" parent="1" vertex="1">
                    <mxGeometry x="660" y="530" width="100" height="40" as="geometry"/>
                </mxCell>
                <mxCell id="189" value="" style="endArrow=none;html=1;rounded=0;" parent="1" edge="1">
                    <mxGeometry width="50" height="50" relative="1" as="geometry">
                        <mxPoint x="640" y="549.81" as="sourcePoint"/>
                        <mxPoint x="660" y="549.81" as="targetPoint"/>
                    </mxGeometry>
                </mxCell>
                <mxCell id="190" value="telefone_fixo" style="ellipse;whiteSpace=wrap;html=1;align=center;" parent="1" vertex="1">
                    <mxGeometry x="660" y="410" width="100" height="40" as="geometry"/>
                </mxCell>
                <mxCell id="199" value="" style="shape=image;verticalLabelPosition=bottom;labelBackgroundColor=default;verticalAlign=top;aspect=fixed;imageAspect=0;image=data:image/png,iVBORw0KGgoAAAANSUhEUgAAAmwAAAKBCAYAAADqT/d5AAAAAXNSR0IArs4c6QAAAARnQU1BAACxjwv8YQUAAAAJcEhZcwAADsMAAA7DAcdvqGQAAP+lSURBVHhe7J0HYJRF3saf9N57gSRAgNB7FWmCYPfs7buznmfhLGc5Pc9y6ql3lkPPdoq9Y6NYEKT3nkBCeu+9brYl3zyT3bCsm2SDIEsyPx2SzDvvzLxlZp75T3mdampq2tED7e3tMBqNcHV1Nfn0DMM7OTnB2dnZ5NM9jpqGTqeT8dt7Tn++V79FGup5qOfRE+p5qOdhD79FGup5qOfRE71Jw6murs4uwWYwGODm5mby6RmGZ6ZdXFxMPt3jqGm0trbK+O09pz/fq98iDfU81PPoCfU81POwh98iDfU81PPoid6k4SQC9yjYGBkv1MfHR2bEHjQajVSYHh4eJp/ucdQ0ampq5I308/Mz+XRPf75X6nmo59ET6nmo52EP6nmo59ET/fF52GezUygUCoVCoVCcMpRgUygUCoVCoXBwlGBTKBQKhUKhcHCUYFMoFAqFQqFwcJRgUygUCoVCoXBwlGBTKBQKhUKhcHCUYFMoFAqFQqFwcJRgUygUCoVCoXBwlGBTKBQKhUKhcHCcDAZDj1864Heu+A0uT09Pu3f71Wq1crdf7ipsD46aRl1dnfzGl6+vr8mne/rzvVLPQz2PnlDPQz0Pe1DPQz2PnuiPz8OpoaGhR8HWn+FnJvhNMHd3d5OP4lSinodjoZ6HY6Geh2Ohnodjcbo/Dyeh7uyysFE1enl52a0y+W0sqkx7b4yjplFbWyuVcm8UeX+9V+p5qOfRE+p5qOdhD+p5qOfRE/3xeYh4nWXk3TlzJLaOdeV4Dp2tY7acSkOlYY9Tadg+bsupNGwft+VUGraP23IqDdvHbTmVhu3jtpxKw/bxY5wMqVAoFAqFQqFwWJRgUygUCoVCoXBwHE6wtbe3o62tDUZjm/zZkzOHt9f1NvzxuONJ47e4jr6SRm/d6XavjKafPK5QKBQKBXESjUKPrYLBYJAT6Xx8fDrHW3uCqzE45urh4WHy6R6m0dLSIn8eOnQI9Q2NcBfnurm6wsXZdpps1MzjxfbAS6VjvuyFEwLN49H2cDxp/BbX0VfS6MvPo62tHXpxfTqdVvzRjokTJyA0NFROkv2tymBv06ipqZH58/PzM/l0j6NeR19JQz0P9Tx6Qj2P0/d5OIxgq6qqQnJyshRplXVNaDE6o93NC+0u7iKXoiGUydqXtkJxemEqgkKkoU0PJ70GbsZWRIUGwkWUtwEDBiA6OkpVgCfxOvpKGup5qOfRE+p5KMH2C3qT6crKSmRlZyMnrwAufqEwunlD7+wJo7M72pxchGOa9qWrUJyetMs33LndCBch2ijYXIwaOLXUISIkEPFxAxEWFqYqQDvoz2mo56GeR0+o53H6Pg/7x3BOEvX19cjMzEJ2XiHcAsLR4hWGZvcgaF19YHB2E2KNWbTvRikUpy9OUrIZnVyhc/ESZSAQzZ6haPcJQWlVLQ6npsk9hDiUqlAoFIr+xykVbDTu7d27FwXFxUKshaHeM1Ja1trV4lVFv4fizR2NHkK0+UWgpVWLLVu2yp6YQqFQKPofp0wZ0VLA73q5uLii3TsELe7BcvhToVAcpV2UCa2bH/Q+YfD180NDQwP0er3pqEKhUCj6C04ajabHOWwUV1ydx4+m2juOy3FZhuV3u2zBTzHQutagMaDJLRAtbgGicTpWP1aXtePw9uMbAnJ1dYJPoBMGDquDt58H3Nw94NxFXhQKR8YJbfAwtMBPWwlP5zaMGT1Krh7tiZ7KoDXHU84bGxtleH5WxR5ORl1iTX9OQz0P9Tx6Qj2P0/d5OLW2tp4Swdai0eDHH9fA6BUEvU84tC7epiNHKc11wrZVTh0z2CyTNefY7Me/+bvJnz/c3J3gF2xERNw+hMWEIiAkDO6e9j0khcLRcG3TwUtbDV1VAc6cOQMxMTGmI13zW1WAjN/b+5fl1xaOVgGa6StpqOehnkdPqOdx+j6PU7ZKVKNpxdp1P6PONRBa90AYnd1MR47SWOOG4iM+CPASFy+Nb06QuRWuI9PtHT/5t8gWj3FnhHbxj1H8rW1vRmnhR4gdkoDouCHwCQiSZykUpxtcPepubIZnfSFmzZiK6Kgo05GuUauu+l8a6nmo59ET6nmcvs/jlAk2xrdh4yZUOAej1c1PaK5fTqfz9PBGVEgEzhzkCg8hVplRuVVVW8fvRgoz8Tv9jMIZxO/048+KBiN2pVfgu4//hYFDRyBu2CgEBIfJeH9reIvbhIJmrjks62Q19Kvo44jnz/e1J2TJ6qJ8cQ2pS5sWQU2FmDFlIiIjI0xHukZVgP0vDfU81PPoCfU8Tt/ncUqVA79gwHlrHTtQ2YCtnGjsNK1GFFdpkFXchOySJuRXtKCqXit/ZpU0Iq+8GZXi7xxxLKOoEZW1WnETOsyMdrWUJ5mirDS8+8/78extlyMzeY/JV9HXaW9vg66lAfUl2ajJPdSja6kth1FnexUoywgXILi48OsIJk+FQqFQ9BtOqWDrUJNm90tol2gTgs3Q1oYWrRGNLQY0NOvRpDFAo2uTP+uFXyP/1rbJBQwNTTrhr4VWp4NRKFdHUGy6Vg0qi/NRkpuB1pYmk6+ir8PZly6ubmiqKkF1ziFUZh6w7bIOoiYvDQatBk7O3c176LqsKBQKhaJv4/Bjc3I+Goc7xT86Qxu0+jbo9EboDfxbOPG39BO/86dWbxBiTS9+6qVg63nAV6E4SYgOibOrB1zcPIQYa0VLTblN11pXBScXVxmOPxUKhUKhsMahBZuc+9XWJhytbCYnhJvB2Aa9/B1SuEkn/PmTQ6F6cUAvxJt53liP0Iqn16E0Lws5h/dLl5d2EBXF+dI6xngaa6uRm3oQxTnpKMnNREHG4Y5wR5JRW1kGg07XEZXIb2tLM/LTD3XGVZKXCa2mRV4PMcdnPk7HeBtqqmQYTXMTinMzpF9tRSma6mtFfCloaayX59tKoyDzMGrKS0zXLO6LTivzZZkG88wwZsoKco45Tsd8mePgT4Zn3ObjlvdF0TNOzs7wj4iDT0gknG2IMVqZXT28EBw3HB6+gT3OYVAoFApF/+SULjrYsmULihGCVldfk++xuLt6IsQvGBNiXVFVp0Vds14uKnBzcYKfrydqGjn8qYeriwt8fTxQUdsKrRAq/t4ucmgpNacCm1e/gbjho7pddEBLXHVZET564e9yjhkvkfu2jZk+DwuuvBHB4VHYv2kNPvnPE4gdNAxuHp6oqypHjRBTHp6emHfpHzB94cUIjR4ghVShEDhvPvZnNAuB5Swi6xCeRvnztqdex6AR47Bv0w/4VMTHfNJ/wODhmHb2RZh57uVCGB3AN289LwSTAaOmzkZYdByWv/o0fv/XZ2WezGn874m70NxQJ68hMDQSE85ciEXX3ApvP3+UF+Zh19qV+P7D1zoWOogwAaERmDh7ES7+430y7tf/fgcO79ok8sh5hB0C7ao//x0TRBiuqKVA/OGj10Ve14jrLRMhnOAurn3MjHlYeMVNiBk8jEkrekI836qcFJSn7Ya2sdbk2QGtar6h0Yibthiunt0vNXdpNyCsJR/TJo1HRIRadNAV/TkN9TzU8+gJ9TxO3+fh8pjA9HuX0MrFSN3d3e3ONMMzLPcWsQWPFxQUoBHeMDi7m3yPxdnJBV5CtEUEuKCl1SjnrYmsCJEDuLq7Cr+O4VCRkHgILkK8GaV1zd21YyFDVXUjCjL3ITAsXAiacHh6+ZhiPope24rSgix89PwjUqTNveQ6zL7wGrlnW+ruLeLGu8DT21cKo+Rt69DS1IAzzrscCy6/ETGDhgq/n1GWn42h46bCV4ic1N2b8dnLT6K+phKX3f4QLrrpHsQPH4OKojx57vAJ05FxcBf2rFuNpEkzccWdjwgROFSIvxJpVWMenV2ckXlwN5rra9FYV42DIl1a2SbNOxf+waEyja/e/JdIfzjOv/7PQsTNFdehQdrebfDy8RXpNGHv+u+xf/Mamcff3/9PzLvk/8R1+Mg88F4se+ovaKytwpnnXyXzOXHOYlQJ0Zq+f6cQsHoZD8Xc1u+WC4E5FguvvFmItBsxbPxUaYUbmDhS5kVhB+L9dBKimaK9ueqohZN4BYQgfNgkeAaGSmtcdzijDT76esRGR8HX13Ynx5KeyqA1x1POWTlxvyF7K6eTUZdY05/TUM9DPY+eUM/j9H0e3bcQpxqTZYojdNyqo2NYVFycsd3Cz7SVhxwq5TYfHVt9GMXv0qrVw5AohyEPbd8ghznDYuKEOBmP2MFJiI5PhLZVg/KiXClsiBzeCgoVx4ZiQGJHmODwaDQ11EKv16K+qgKFmamoq66QlrDBoyYIwTQMYdEDpWWKk9BzUw8g+9BeEV6HoeOnY8CQJMQOGQEvX39ptSvNzzItluA1GBESGStE2RJce9+TGCDyVV6QgyNCmHG4c9DI8dJ6yPwGhUcJcVcjryPn8D4UZqVJsTnhzLMxcOhImQ9azigSObxalH0EIRExiE8aK4/Finwkjpksh1I5FJufcUjGxTjrqyuFmPWU8VCYTllwgUgvUuZRYR8ePgHwC4uBl4UwcxPi3Cc0Gr7Cv/vFBgqFQqHo7zi0YONQIUULRZme89Y4N02ImY45auKnXhwz/a4TzmA0CLEj/ERYo3BtVG49wOFFzuUyinM5LJq8/WfsWPM1coSw4ry2huqqzrljHDrkUKG3rx9c3dyFgnaTf9OfNAhhxzjcxLGh46bALzBE+lvCOWENtdUi3SYpnDav+gwp29eL84rlvLCasqPz0CjyouIGY8aiS6SjKOO5jIOijuJu97pV2LvxeymuzHPOakRcmuYGePr4IjJ+iOhRdCj98Nh4RCckCkFZiXYhZv2CQ+S1EBfRG+AxWtYoYmlFC46IlqKP92f/5h+xacWn2L/pRxHaSfor7MdZvCueAaEIjE0Uv7tLq5tXYBj8IuPkUKi9vTeFQqFQ9E+cKYh6cjTZEVvHunIUW2bBZcsxTh7vDnm+UGtmyxpFVZsQKgaDXgg0vfxpNHY4HbfxED8ZLxcp0NImhU+PM/SOQsvSwa3rpCsvzJWWJ4okzlmzB1qnaJVjY+whhza7FjUc4qSlbPfPq5CZvFuGjU4YKi1tZguMh7c3vP0D5O/WUExmH9qHfRt/lEO3nC8XN2y0FIncSqK3UDB05NlVXgd/5/w5WglDomLlAodvl72I5a89I0TiSjnkq+gdbl6+CByQKK1t7uL3DutarOmo/fAdt1WmrF1PZdDanYxybu1UGioNe5xKw/ZxW06lYfu4LXe6p+HU0NDQC0lz4qDA4sffS53Dulx04NzuCh8Xb4yO90V9kwaNTa3SikZx4e7mhubWNrTqxUWIsK6uLmhqpTWuHd5e7mgXWi0ruwC7NnyE+BGju1x0QJH202dvY9+mH+W8NA73RcTGm46KGy/io4WN88G4SCBm8HBcfvtDGDx6IrJT9uLz/z6N4uwjuOWJl6VY2vbdcuxZvxrzL7se0xZehNCoAR3hXnkKRSKtpAnT0VhfI67BGRfedA+GiHg4d06mJh4yxZLlooMZiy/BnIuulccJrXEbv/kIuUeS5dyzEZNnwT+ow5JnflE2rfgE23/48hdp8FhVaaG0yvGaJ8xZhDPOuQwJI8bJVawUYj9/+T6CIqIw+4KrMWraHHmv6czpHtm3HRyCvewOcQ+EmFP0DqMQ2hXpe0VHRAf/yHjh4kxHesa86GDsyOEICfml9fZUYJ4TwvkXilOPeh6OhXoejsXp/jxcnnzyyceY+e4cVzxQBfKDqbaO23IMz0l3/Cq+reMUAYWFhWh06nrRAa1jLu3OiA0Tcbg5w12IMg93V3G+mxyOdBM/5d8ernB1c4WHhxs8PdylOOG2HtVVtSjJT0FgWESXiw4YD61Jh3ZuhKapQc7r4tAg5781VFfK1aEchtRpNTIMJ9qPnDJLDhdyy43DuzfLOW4T556DqIFD5CIB+kGI5kEjx4m0I+W2HhQ7nMw/6/wrpBWLFiujEK1Dx0+TQ5+a5kYUZhzGng3fwcvHD1kpe4TAasOAxBFy0YIZLobQtbZIqxpFVtzQkeLaIuTiCYqxHT9+LRcX0ILHRQyWaWQl75Z+w8Tfu39eCX1rKyIGDpKWRK2mGZtXfiYFLAVcdPwQJG9dB9+AQHiIND1FnpguF0PEDx+NYUJ4nqpPfZ3OODmLzoaPP7wDw+U2HhwqtRfzooP4gbEICgr6RZmydj2VQWt3POVcq9WCq664CMLWcWt3MuoSa9ef01DPQz2Pnpx6Hqfv83B5/PHHHzNbUbpytMxwFQNXVjByW2GsHcMzLG+OreM070nB1s0qUaOhHZpGI1p1RlTVtaK6vhU1DVrUNupQJ37WN2rRQNfUKn828SsHTfzZisbGFjTWN6K08BCCwrsWbJy7xW0w/AKDhVjJQF56irSIHdy6Fge3/YyGmkoEhISLG2rsUbDFJAyVcTY31EvhU1aYjSN7t0vxpRPKvlWIopmLL0VC0lhpPUvdswX8+gEXPVAc5aYl00wm4o6RCxNsCTY38dC8ff3h5euHjAM7hRjMkGlwGDdt71Yp4rh4gJY9KbCESDOnwSFUCtTR0+fK47QMMk1eL+fuZSXvkStOJ4lr4cpYxseVood2bkLanq3y/tB//qV/kNdq71Cx4ih89zlk7eLuKcSaq/zbXkSxloJtQEyUXJZuWZ5suZ7KoLU7nnLO5ejssXp6eto8bu1ORl1i7fpzGup5qOfRk1PP4/R9Hg69rYdBb0BDXb0QdnnIy8sW4fNQXFyEkuJClNKVdLjyUroiVJQVokL8zp+VFUWory2DtrUOIZHRUnTRUmQN54u5e3jJCfnt4j/mlyLOVdxsDy9vxAxOkvuN0dJEKxX3UKPg8vYLkHPkeDciBiRIi1OgSINxBQSFwF28EBSIjIuWqMSxkxE5cBBGCLFHi5Z/cIi0uDFOhnETD4uWMoqz8Jg4uIp7HRU3BHFDR4n8x3RkVsC5bt6+AQiLGQiuTPUQ6cnzpZALkKs+GQdXpvoGhogXoGPvNIYJCo2UApBbfdCKyOFXHucxhuF1TF1wgZwLx0UVFNU6vuCm/HE/uqSJM+Q+bLQCKo4PDlV3uN4tNDALNrWtR/f05zTU81DPoyfU8zh9n4dDb5zLYT5uX8EtKuoqy6Hr4sPYXcH0KZYokGhRolVKoThdURvnnrzr6CtpqOehnkdPqOdx+j6PjuWIDgqHjrjvWfyw0XL/sNHT5vTKjTStcuTwJS1eCoVCoVAoFKcjDi3YuOO/u5e3/KQShwC5erO3jttycPjO1nccFQqFQqFQKE4HHFqwQW7Q6iznk3HlJye598qJczgXS35L005zpkKhUCgUCoWj4eCCTaFQKBQKhULh0IsOFArFUdSig9N7wrN6Hr8+Da6oY1zNzc3iuIvc15D/cdsl7rHFva/sTYPhmQbvlz1w1Xxv06ivr5erBXnt9nA8afwW19FX0uDzkNt6iHO4z6u/v59Mr6vzHa18OIhgs+9lVij6Mx2CrUAJth7oz2n05efBpqqpqQm5ubnYu2+f3DaJWyG4ubrA2c54Ff0bfrJSJ95HrXgfndrbcMYZZ4i6NFy+Z7beTUcrH6dcsDXrjGhTI7MKRY84iS6hS5seUyZPUoKtG/pzGn35eezatRvV1dVoc3ZBow7Qu/nC6OKJdvF3u4zXvrgV/ZV2Ch44izrUxaCBu6EF/p7OMOr1SBwyGEOHdmx8b4mjlQ8nEXmPgo2ajpGyIrAXmiuZODNui5aWFnz77bcYNWoUIiMjTb4KhaIrWKg3bdqEWbNmYeDAgSbfrumpDFrDcs5z7N3wkTQ2NsrwHJawh+NJ47e4jr6ShqM+j1/TfvC704cOH0ZlVTU08IDeI0AINQ8YnNyEUOsQa6IpNp2pUHSNfFPa2+DcbpSdX1ejBm6aWvh5OCM2JvoXos3Ryrndgu1EZ5qm7ffeew/nn3++TWWrUCiOhY3x//73PyxcuBBDhgwx+XbNyaw4zLAcc06IEmw981uk0deeB60VeXl5yMjKRrtXEAzewdC6+KBNCDWF4tfCaSae+gY4NVXB17VNWtrYGTa/q45WPk7ZkKi58TnvvPOUYFMo7KC3ZeZkmubNqCFRx0qjLz0PUlFRga3btsPNLwjNnhHQuXora5rihEKLm5e+Hh6aKri2abHgrLPkp//4rjpa+bBPAioUCoVC8RvCaTMtLRp4+vij2SsSOhevX4g1mhva2o7PiXZanq/o37Q7OUPr5gedVwg8Pb1QV1cnh+EdESXYFAqFQuFwFBYW4vCRdBjcvGFwdpcNqzU7vzdixeuG43I/fdyOI7ub0FBTBb1WK4emFP0TDrHrXTzR0uaCHTt3SUu1I+Lwgq29TQNdzUpoqz6CoWmf+NugCpZCoVD0cQwGI1qNgM7Vp8udBFxc3eHm7gV3DzudCMvwrm4drrGuFmUFOdA0N6h2pR9Dy22bkxu0Lt7Q6g0w0gTrgDi0YGvXl8FQ9y3aGlcItxLGus+hr/0ROm0juFGiKmAKhULRN3FxdYWruyd0Lp5AF3N7Bo/0wbyFgfjdhUG4RDj+vPiCIFx0fhAuFO4C4c4/NwjnCXeucIvPCcKixYFYuCgQYyb7wM2jAVWlhWhtaaZ1wBSroj/S5uQMvas33D294OLsmNLIYQVbu7EZRk2yEGzvwKUtXdzACqBZiLXyN9Bce1CItpaTKtgYN3dRzs/PR2Vlpcn39EWv16O0tFQOMygUCoWjw0bT2dUNRm7f0cVCgyEjvLBokR+uvsgfl53vi0vP88Ulwl16gR8uPd8PFy72wfnCXXiOL85b5ItFC71x9kIfnHeOH8ZM8oS3rw4tjfUwGPSizjdFqjitaDMaYNBqoNc09+iMep14zraFOQWb0dkNbqKj4GRj+N0RcFjBZtQcQVvrQbgHDgCE4nVyj4arazicdUVoKXkdzY0VcnXFyRJtXGZLgfPcc89hxYoVJl/Hh59usXVPqqqq8OGHH+Lll182+fwSXrPZMR6zn6046UdneY61O5mCWqFQ9G1oVHN25lBVd81Uu+iMtqG2UYfs0mZkFjcht6wZpdUalNW2Iqu0Sfg1orSmFUVVLcgSx3NKmtCqFXWUoaMOcxzapZjoqG9PfL5YH7czbl5zH6mbeZ/0mkbUl2SjJvdQ9y7vEFpqy2DUaU1nW+Mk50lyhaedC0J/cxxWsMHJVZbY9nZ+M65NCLV8OOnK0CYUMs3X3G+IViPFUbi65Z577sHBgwdNPvZDK+LixYsxadIk6e6+++5Ov6eeegqHDh2S4SjESkpK8Oyzz+KGG27AZZdd1nmOpZszZ47cgqK4uFiep1AoFL2HLWfXrSd1B6WNQfyiE8JNqzMK1wadgX+3y99bhT//1oq/NeK4plWPFq1OrgR0JMFWnJOB7z54Df++80qsePslVBTlmY6cGPZu+B7Lnv4L3n3mAeSlH4KhD7Sf/I6sm4cPWqrLUJVzCBUZ+227zANCsKWhzWCQVtuucVClZsJhBZuLxwA4uQ2CrrES7fpWQFsPQ6tQ0q0+KGmaAL3RtaPH0Ed6CicCT09PnHvuuYiKijL52A832uQmxkFBQRg7dqyMh/eWH1neuXMnDhw4ID+cSz9WdEVFRfLzSFdffTX+9Kc/4corr+w89/bbb8fNN9+MyZMnw9/f35SCQqFQnFg6LFLt8huReiO/E0lnhN7Q1vE3RZsUbGYRJ/xFo63V6eVPaW1yEPyDQzFs/FTMOv9KJE2aCR//INORE0NTfQ3KC3NRLoRgq4Zz9vpA2+nkJAWYZ2AYXNw9oNc02XRGXSu8gyPh5uUHJ+fTd9Nll8cEpt+7hL0QDj/yQ7v2bh7H8Azb1e69bPT37dsnNwANCQkx+R7FydkLbUYtdA0pcHVuQFtTLRqanFDZOhQNzosRFh4rN4fkJpGWeeLePRQYq1evxp49e6TjhnQUDhwWXLdunRzq3Lp1q3Sc08VjDMPN6yzP3bVrF9LT0zFs2DCMGTNGbuL45ZdfYvv27fI444mOjpZ52LFjBw4fPizD83fuRM970FVeeF8ohj799FNs27ZNHmNeeE2832vWrMHPP/8s/dPS0mR8vP/dwfRycnLkp76Yp4yMDCxfvlzGwWth/rgh4IIFC0xnHIVmYAo9njNt2jRpOeMGgGvXrkVwcLA8j+nHxsaioaFB5pmfFbv22mulSOPu0OZzb7rpJunH+OzdPFDRMz2VGWt6KoPWHE855zvCnfXtfc4noy6xpj+n0ZeeB7dWqG7UQOPadafPw80Lwd6u8BJZqW8WIkyINOoQFxdntMEJTa0GKd7c3FzFz3a0tOpFfgzw9nRDbZMexYXZaG6oQlhMHHyFQGI9aIv89BQkb/sZBRmpqCkvRm7qQeSmHURlSaE8x8vPHwadFnlpyTi0c6MIf6jTNdRWi3vlBm/fjutorKsR5x9A6u4tnWEqiwuEgAJcRb1dV10BLxE2QAg4dw9PGI0GNIlz9m38QZ7H8FzZqhPtlV9QCAx6nUz3yL7tqC4rlsdyRDhz/ihqG0UeDu/chKKsI9BpW+Vz4GIL/yCRhrunEHG52L/px878MB6ex/jN0C87ZR/S92/vNtxvjrgWrhbmHDVtQ40Q4UbTgQ4o0Dy8/RA+fBK8A0O7tbDxrfHR1yM2Okq2eY5WPlweeeSRx8yWqq4cI+RQGCsCW8dtOXOm6Wwd54T+/fv3d9v4tAvBZtA1wM0lD/rGclQ0RKGmbRYCwiYhPDxCWoWYJ0soTiiqVq5cKeOnUKEIonjIzc2FuF4p6jZs2ID169cjOzsbAQEBUhBxKPHjjz/GF198gdTUVKSkpMgKcOLEiYiJicFPP/2E999/X8bJdCjY6E/R9sILL8g4+RkVCjbuRs84usoLBRXTe/rpp6U/0+KQZkJCgjzvnXfekWJp79698jiFUGBgoDyvK3j+3//+d4wYMUKKz6+//loOS1KoJScnyw8nM35bgo3P2CzEmL8JEybI+8T5ewzP+1xQUICkpCR5TyhazeFsnas48ZgFG99VWjNtlStL11MZtHbHU875nrHBYuVk67i1Oxl1ibXrz2n0pedRW1vbo2Bzd/VCkLebEGztQrAJcSYEG0e1XF1FWlKwGWEQfu7urtCJdlyjM8j8+Hi5o1YIvGIhbloaexZsW1Z9ji9ffxbpQhQZRDmkGDq0YwNyDu9HmxAsEQMSoNdqsGvdKmxa8YkczizMSpPDkGUF2fDy9kFUfKIUWRkHdmLzys+we91KKZoYLu9ICvRC8PHvFe/8R4q/mEHD4BsQhPqqCqTt2YLvP34dBZmpMu2cwweEf7kIM1QINi22fPcFfvz4TZTkZqK+plIItv04sPknZBzc1TlvLW3vNlQUi7ZUCLamumop7OKGjZLpUgyu/XyZPM5zCkU6HDKNTkgU984DmuZGeb2bV30mf/LcfJFnCk0X0SbFDx9julOnBq4m5nQpbXM99C2NJt8O3Dy84Rc5EKGDRsHFo/tPtpkFW3RkBLy9vR2ufDh37CbdvaO4YmA21LaO23LMAOeY2TpGx7gYZ3c4icLDnpG4clH4XKB1HoV2n7nSgkT1a0vB/vOf/5SiiOJh8+bNUjDR8kMxxU/70ALFobp3331XHjv77LOllYt54rkUHhRlPP+bb76R87EIBdpf//pXeR6P/fDDD7j44ovx/PPPy3gp1PiAb7vtNmlRCw0NPSYvW7ZsOSYvFFD/+Mc/5JwzxkVL3LJlyzB48GDccccdGD9+vAxP0cVhRx7LysqSebGHzz//XArFV199Vab93Xff4fLLLzcd7R0UaQMGDJCCkOKRwkFx6mB5tC5PtlxPZdDanYxybu1UGioNexzTsAdaU9qMbUI0iU6n2Yl/DCbHaMRh8Tt/Cj/T39R1PK+3Q6IeQniddfn1uP3pN3DOtbfJ69rw9YdChO1Cc2MDouIGY+FVN+HB15ZLN2TMJCmudv+8GtVlRdJC9uOn/0OREGnTFl7UGS5x7GTZwFtDoXR41yZ88p8nkJA0Djf+7Xn83/3/RMKIsdi/5SfsWb8adULQkdaWJvF7OeZdcp3M3xnnXY6qkkLsWPM1hk+cgfFnLkTkwEFSOF5512O4b+kniBRCc4sQYdt/+FLm5+7n38elf3oQ3n4B0uJ2cOtaUd+3Iit5txR1tNQtuuZW3PPih7jjmbcwed65NvP9myPy4BMajYCYwSaPo7j7BiBk8Gg4u3U/QmUJ31m+h45WPpw5RNeTo3mdD4UWLVvHbTmqRVqDbB2jY1w9PWh51BTGCXp4uDvBz9dbnkux1tX5b775phRltEpdeOGF0mJWXl4uxdO4ceMwffp0OczHocmwsDDTWUB8fLwUaMOHDzf5HAsn4Z9zzjky7vnz5+PBBx+Uw5V8OF2da87L1KlTj8kLoQmU5zAvZnjPKJAYniKJxzgcax7KtRfOL6Oli/EznV8LhzgpJs3iVnHqYHm0VaasXU9l0NqdjHJu7VQaKg17HNOwBwouKdCEEKMoMwgRRmcUiqzTTx6nf8dcNwo2+TsFm2goe4OzswsCQiLg5u6B0OiBiB0yXKRvFEKpDB6eXhg1bQ4mzllsCg0MGjFeiLhBJutZMbJS9qC5vhYDEkdg+KSZplDA3N/9H8bOnG/66yhF2UeQvn+HHCodNHI8fPwD4eXjB7+AECE4jagpL4GuteO7q17evohOGIrg8BiZPw53hkbGymNdkb5/p0yD8+USRPxMxzcwWKah02pQK+JnOvwaRIsQpI31Ncg6uEcOw9L6Z329pxI3L/HuhETBVwg38zw1ijXf8Fh4B4ZLA5C98J3le+ho5cOZJmB7HGFGbB2z5ZgBOlvHzM4ejkqydnnDnV1cuy3MtL7RakZLFye/33XXXdLStWjRIinyeNHmOWR0vLFmOGmfljtayqzheSNHjsSNN94o416yZAkeeughPPHEE3JI1da53eWF8P5QRFpaCunHOOjPB2nOc2+/b8brYn4YD+P8tYSHh0sxSoFLKyGtiopTg62yZMvZUwatHTnR5dzaqTRsH7fl+nMa9sDhJIovvRBhHYsN9NDpDZ2OnWnusaYTP+k4XEULSIf1jRa23gk2QlHDtoiCJSg0Ugqa2opSGDmMW1mGnT+twAf/fli6lO0/yzlrzCdFW2tzk0jXAA8vb2nFMhMYGi7FmDVaTQs0TY1y3hmHV796419Y+c5/cGjXpg7BVnZUsDmL+0vR6Mq5UCJ/Lq5u4vfu5zK2NDdA29oi8l0qLW2fvPQ4fvzkTeRnpMh4q8s7BBuFYEhkjMxLRvIufP7Kk/j4pUfFtX7baeE71VCkefoHIyh+BFzcOuaDeQdFwD8qwTRvzf520PJdJA5TPmRIB8XJxRfOHoPQxsLW7ot2Zz9xUR2Wte4KNC1BtGZx8rvZ2TOviqKI87xoQWKh5kpIminN0FI1e/ZsXHPNNZ3xXnXVVTYFnpnu8sI0uO2FZRr0oyWPaXNVJo+VlZXJeCi+7IULGhgPhRUrCy6YYHzHC8Uj57+deeaZ+PHHH9V2HQqF4pTTZrKU8VNCcrI5v4AjHEWa0aATvxs4GVrOxzIauY1Fx/6QtLTJIdH23g2JWtIu/ztKSW4G9m9aI4cSK4vzpTygiOiureoNbLD59QcKu4SkMXLIc/jEGVI4/mooMGgMEfEHBIchaeJMTF1wobTquQrxExU/BOPPPBszFl8ijs2Qc+X2/vwddq9bJRdgOAquHl7wixgIr6BweAUKERwaLURbuOno6Y9jCzbXILj6ThG9p4HQOE8CPIdISxZf3K6gsOBCAs4L2717t3TcQ4wrRHuC8fLLBhs3buw8lyKOUP2y4DFezo3jMS4kyMzMlL02W3SXF4o8Wq24kMEcH4dXub8cr5F/cxiUK1k5wZ/bbHCFpr0wr5y0y4UVnHfG+Lh/WlfwGpg+hR3n4/G6rOG8vClTpsi5dJzrp1AoFKcSCjV2SJ2d2uHl7gRPd2e4uznBRTQRTsKP02g83GidEI25cB7uLnD3cBVCy7ljOLSXQ6KWcDFAZXGeNCKEx8QhP+MwUnash6a5CTPPuQyX3/E3jJ+1AAEhHYKBdTKHGimKuJdoS0NH20I4N4zfM7XG09sH3n7+cohz5NTZOP/6P+Pqux/HVX9+FL/74/2Yctb5Iv6j03q6w9XVXeaVw8hcOEG56eMbAE8vHynSJs87D5fd/pCM/8olf8c5/3c7Rk+fCzfRjjH8sPHTcMWdj4gwD4t0L5Dp0npI66KjQIHs7u2HwNhEBMUPl4LNxa3v7FTg0IKNtDsHoi30PzCGPQPP0MVy+NFyGNMaDlNyNeUf/vAHOYeN7oorruj8WoGt3o7Zj3uHUYhwhSc3jKUg46orHudcMK4EXbp0qTzGeLl68r777pOijmGs4+4uL1wdS2sbFy2Y4+NGtBR4r732mtz3jFtr/O53v5Pzxq6//nq5OrAnzHlgnFy4wIURM2fOxFdffdWZT1twCf0tt9wiw3Hl6l/+8hfpbx2e95/DwKNHj/7FMQreruJXKBSKEw2H68S/8BQiLCTQC8EB3gjy94aPtye8vTwRxL+F8/H2gK+vl/jdB4H+nGck2hCp13ov2CgQaZnLPrwPB7aslUOQ8UljpOVLtAJC4HgKASREmqgL66sr0dzQMbJBSxXnifkGBKMoKxVpe7bKeOg43JmZvEeGsyR28HAplDicumfdatSYttHgcGV5QQ7WLX8XFcX5ptDdw33eOAzLVaKcc8ch3KHjp8p5eBzK3fPzKjk8yvhbmhrkCtj1X70PbUsL9m78Hinb1wuBVi3Eo7sQogsRGBYprjnAbsH4W0FLYVB8EkIGje5T1jXiJF7YHt9YWl8oXDiXyt4GmUN5bMBpZbIFh+q45QTFEcVLd3CYsKOQiH6RiNNs7bIF5yxwUj+HA83QYkVrFn/yGPcM49wwxst8UKzQj3PEeB7/ZjoUW7x2/uQ2CrwmrjI1W9TM88t4Li1TvFbLLUq6y4ut+BiXecsPDoma54nxb+4F151QJYyHW29wwQHzRgubeaEC5+3xnjF9bkNiDfPKPeT4k1CY8brM8TFvhM+AVkDeI86R4/XSj+fxHnDipD17hCl6T2/KDOmpDFpzPOWc7wHfS3uH648njd/iOvpKGn3pedCSn15cjWrPGJPvL9EILeTh7AJvT2e5sKDNwBWj3AKhw3jGuolth2g90N7GbRao09jkOaG5uRU5R7ajsaEAI6bMQkRsgrR+2WLVuy9j1Xsvy+PcwoPzwxqEGAsKj8QFN9wlFxdwHtjaL96RK0IDQ8Lh7uktLWNcuRkQGo6LbroHFGBZKXux/Yev5NYbgaERMn5PETZx3FR5X9d89hbGn7EAC6+8WQ5FcpsObify7dsvSjHI+W+0kvFexg5OwuT55yJlxwbs+mkFhoyehOvuf1oOk279bjl++uxtabl76I2v5UfNt67+Qvh/IefGUbxdettfpXWNgpHiLzgiSgoeCmEvH185JLr4mj9h59pvpWCrrSyX7S+HnLkAg5a2medcIkWoI9Eha7ixi3jf7HzniEu7AWEt+Zg2abxs9xytfJwWgk1xFG7VQWcLVtJc4MChU3tfFsXpgxJsJ1cg9IU0+ptga6hpQF1FOeqryqRVSFrNOv6RdLRuHRKt06/jhxAlbaKT3ggvXy+5/UZoZIwUK7YwCzYvXz+5nQd/EgqzxDGT4S5ElF7XKjemLck7Op2Em+XSkkWxFDdstLRy8WPz/AxVZclRyxjDBUeI9MV9Lco5Ild3ch82Wu34cXNa6VL3bJGWNjNcZMBw3EOOw5K0tHGz3SEiPxSK/KpBcU66XNE5TghA5sHsJ++VYMSkM2SeqkqL5ApWSygMw6K4EjZJzsnj5rpN9bWmox15Zh4pYPsKSrB1kWkl2I6PVatWyX3ebMFK+o9//KPcDuREbOWhcCyUYDu5AqEvpNHfBFtzQ53cbJaCg7/3Fs4RCwqLkqKD21nwumxhFmycj/bQG191zktT9C2UYOsi00qwKRS9Qwm2kysQ+kIa/U2w0XrE4T1O4ufvvYVDnNwKw9PHT84x6yp//NLB5tWfwS8gGH/467MONwSoODE4umBz+EUHCoVCoVDYgiKLw4bcI4xWst660KgB8AsKlUOI3TWW3ELjr699iTue+Z8Sa4pThhJsCoVCoVAoFA6Ok0aj6XFIlKOmXFFpuSN/TzA8eyw0DdqCKw3fe+89nH/++WpIVKGwA/OQ6MKFC+3a4qWnMmjN8ZRz5onhuTrYHk5GXWJNf07DUZ8Hh304VGsvTIMr6HsaElUoTiTmIdGJY0fJfUcdrZzbF6NCoVAoFMcJGzCFQvHrUIsOFIrTBLXo4OROcu8LafS1RQeZRRWo81ArMhW/DS7tRgS1lmLqpAlqlaglSrApFL1DCbaTKxD6Qhp9TbDxU4EKxW/N5MmTlWCzRAk2haJ3KMF2cgVCX0ijLz2PHTt2yK/EnH322SZfheLk0tLSIj/PuGjRIgwePNjhyocSbArFaYISbCdXIPSFNPrS89i8eTOqq6tx1VVXmXwVipOLdR3raOVDLTpQKBQKhUKhcHCUYFMoFAqFQqFwcJRgUygUCsVpDmf29Di7R6E4rXF4wcYpdo0tLdh66BAOZmWhsblZjvkqFAqFQmFo3AFNyYtoLX0ZRl0V2tuMpiMKRd/CoQUbd/+tEwLtUGEhmr28UKjX40B+Pmrq66ETv9uxXkJxgti6dSv+85//4Msvv5STKk8GK1euxAsvvCAnGre1tZl8FQqFwjb6uq9hrP8ETtrNgHY9DCVPQFO3E1ptk6pDFH0Ol8cEpt+7hC8+rVru7u52r5RgeIbt6nMLOp0O+/btkysxQkJCTL5HMZjEWn5lJWrE324REWh2cUFFQwOaGxvhJ/LiLuJ2EX725unXwOuhkNi0aZNcgeXr6yv9ubpj3bp1clWIt7f3Mde7c+dO7N27F/VCYMbGxkq/H374QYanv9lxdYi/v/8x53I5O89fs2ZNZ7iKigr5DJgmBRTjNJ/TU/4OHz4s/+bnNszYmxfuhcRwaWlp8pNIiYmJciUaKSsr+0VeGP6zzz7rjJPPJzo6Wh4jlukeOXJExsn49uzZg127dkmhbpmGooOeyow1PZVBa46nnFO8swzauyLqZNQl1vTnNPrS8ygoKJDXM3r0aJOvBe0GGFuz0da8Ck6GFDg7aUTcQqA17ESrzh0GpzA4u4XanUd7YF7y8vKwatUqWTfzWizrNcXpj3Ud62jlw+WRRx55jJaq7hwjZCPKisDWcVvOnGk6W8e1Wi32799vs/ExivTqhVgrqqlBvvgZMngw2r28YBBiolHchPSSEriL/PiIBt1DOBchluy9mccL80sh8swzz8g8mwUYhdWjjz6KmJgYDBgwQFaUvD69Xo+XX35ZCpcGITLnzJkjRd3DDz8s/ShUKFi2b98uz+EmfRRTvNdm4cX9YL777jv5AtEVFhbKcBRhL730EhYvXixFImFlwo0mn3vuOYwaNQoDBw6UcZnzt3btWgQFBWHMmDHyOZKHHnqo27yYYT5YeXIzwSuuuEIKKYrQoqIirF+/Hu+//35nXui/YcMGPP3000hOTpbHPT09MXLkSPmztLRU5n3FihVSnNHNmDEDgYGBCAsLk/eZ6c2aNUsKT94zRQfmyoQCl8/SukxZu57KoLU7nnLOd5HPiJWTrePW7mTUJdauP6fRl55Hd4Ktvb0V+vqf4exaIlwLWPs7QXQ0dbVoaqyEtl0INs/hsj5jPk8ErO+++OILfPDBB7LeYp0/ceJE01HI+jc3N1fWcWbHtNkQ83mwTWDHmfHwGPf8Cg4Oluea61PL8xmedS3vAc+zjJP3lPU275U5fvoxLNsp1vsMa07L0tXV1ck4WB+fqHvTV7CuYx2tfDjzpenJsRFlYL4Mto7bcswAXzhbx8yOcdqiRVQ6WWVlUqzFiIbewJeW/uIG6IW4cxo3Dt+IFy+ZL19jo0zrZMOPKbM3xZtaVVUlRRjvR4kQj0yfAoeWKcK/6c/jxDJcfHw8hEiW1iT20jgMSCsahZM57DfffCNFFkUXw5kdRUxvsEyXsFJg3s30lBczzE+zeBbz5s0z+QAbN27EnXfeibvvvtvk0wGFZmpqKl577TUpADnEyRf4888/l3vcLF26FHPnzpWijKLtmmuuwdtvv43MzEwpeJOSkmSh2b17t9xTSvFLWB5tlSdrx+feUxm0dMdbzvm8bB2z5U5WXWLp+nsafeV5dA8bRHeh3HTiNy2c2xvg3HoEMAghpxXpNDfJ9NgYnigOHTqEF198UTruEXfLLbeYjnRwzz33YNKkSce4N954QwpPQhHFjq35GMObMdenluc+9dRTSElJkXWqpf+bb74p/WbPni33DGMdT3i9rHv//Oc/44YbbsC55557zHlmd/nll8s6neEVtuE7y/fQ0cqHM60iPTlzL4WixdZxW47Chr0DW8fMrit1n5yTgypxAQFCUDSLvxuFqxOuVrh6XpjoTbiKYwerq3GkuPiYF4+C4C9/+Yt8+Vk4WEjo9+2338rjvJl8wZ999lnpVyzO50tPC5j5hf7Tn/50jNAxw/tw5plnyqFJc++PAmjmzJnHWKRYYbIHFhcXJ+PjeRRE9LeE94gikPfVDB8eCyMrA1qzLGFBY/r2QsFz8OBBTJs2TfZSm5qaZIG2ha28mIVTQECAtCpaXiMriyeffFJaDC1hry89PV1a49jzGzFihByeZc+OvX9aDGlNoxhl73LChAnyGAUhYRq0uPG+qgrFNnyfbJUna2dPGbR0x1vO+ZxtHbPlTlZdYun6exp95Xl0h5OzB9wC58OgdYO+qQ7tQqS1tTRDo2tBYdME1GqHyjRPFOygs05ivqzrSTPWHWB2SGnN4kgSYX3Hzulll10mw7EzyzqO4mn16tU466yzjumgs87l+axLadU744wz5PlsG2gc4E787BRzqgrzZ8mSJUtknFu2bDnmXMbLzvNFF11k8xoUHfCd5XvoaOXDmZH35MzDUraOdeWYATpbx+i6G+qKEA26qxBLFUJsNYoeEl9FCrZ68XuTEBEa8RKjqAh+QgC4GQxSzZrhC0kzMIfgaL3hnCz+bbYsUclSiFBw0Y8vPkXD73//e9x8883yRaYp9KeffpICwxKanWkqZSHiufzJYT+KD/OcMcL4WVA4tGgWc/zbWrBRENIEzqE/pkl4LeY4ExISpJ8ZDhlSPFHcUIhRmN56663SsYByOJRWLDPMI4Xj+PHjZT4YN8+zha280DJGP1ZErBz4EpphPpg/ilJLzD0BxsPnz8qNcfN+s7dLEcn7yJeUz4ZDyxxKMOeb95HxUsQxHsUvYdmxVaasXU9l0NqdjHJu7VQaKg17HOPvHmc4uQah3SUJ7U7Rom4xorVFg+L6aBhchsPDJ0YKV1vxcKThgQce6Kw7Oc2FU0LYsWcd+te//lX633vvvVJ4sW5ie/Duu+/Kcym2nnjiCTl31xIOMbI+5DDpuHHjEBUV1dkYE9Z7w4cPl/U4w7EtYV3+zjvvyLaCIw881+xocOCIA+tSnse2atiwYTJexsWOL8UcRyfYSbaE9So76cyH5bmMl51otknm56L4Jbw3fA8drXw45BOLES9TpFCbbUIQ0dJVK4RGp1gTDX5bdjYihRiJEwIi0MY4PMUOX/Zrr71WqtLuoKo1T5g3x8M5ZNu2bfuFwKJg4ctPqxznk7Hw0qJEMWMeDqXIqa2tlZNTWTBZoFjAaKlivBRRtKDRrP3WW2/h66+/xtixY2VBsoT5ZmHvDopPa2eGljqmxfvHCfy0svHFoFmfFRDDUnB2lxeGYc+Nhdss4noLr4P3hGlZw3tO0cb7wvwSPg9WXhTZSrApFIrucHIbIFy4qKucoNM7o0I7HZ7+w0R9FSrrEuu2gYukaOXPFm0I6xdznUnh9OGHH0prFTvqPJaRkSHn53JOGMNRALJOZz1qWdeasa5PP/nkEzk/mx3ermDdyPgpriioLKHRwbpDbAkFIr+zSisd88r6XtG3cUjB5iEKRpx40RNEY9+Um4tqIdK4F1urEELtBQUIFC/4KF9fRAsRQaFkKWwiIyPli9/di24JX3LO2+Kcq9dffx3Lly+XVikWbOshUQoMxm2eIMoCyoJO0zV7QYR/5+TkyDCMgxYl/s4Kgj0hnsf5Ckzrv//9ryzU06dPlxYwQhVtrhRYmG1BkUNh9fzzz8s5EnRc4MBeozkfTJeikoKLafInh4fNE2PNIqq7vJwIaNXjtbBysYYWNx6nqOO9JRTFtLLxnlkLZoVCobCEC86khULosjYnD+jdZ8IvaLAcAbBlYWM9TBF24403ysVPrDsffPBB2allR5vzdB9//HF5jCMuHD6kGOJUlD/+8Y+d9S7DWNeT5vqUgo3Dj2xX2DZ1t6Kb9R7bKo5EsF7ntBUaATjxnQsNuhNh5vaIc3/Ly8tx4MAB0xFFX8UhBRsLoJ94eYcJ8TVXvMj1ycmoF0JNJwRPkBAbU4KDER0eLi0xtPzYEgP2wiHU++67D//6179k74jbTXD1ZHdQ1FBUcJiPhY0iywyFEq1zHHq86aabpIWNk0spPszzwWhSZ1oUShR1lvMPKGA4z4yiz3peQm9g3nbs2CHTWbBggcwHKxLmj/lgfsxzLrrKy4mAFQ6fj61eJnuGFJEUvGYLJf1Y+bASYgWmUCgUXWIWZO1tcIFe1MucauEtxZoUcjbgMdaH5hWahB1FDhUOGjRI1kU8xvnHDMs6zJ560Vyfsn5l3cs5bOykc9W8vbDd+L//+z85j5dz3RhHT1BksvPLYVtF38YhBRthYfPx9ka8EGa/EwVhmCg0w0VjPlGIOAo1Oo7hUwx0VTDNcHiSIoBQqNCCRuFCaJHiNhgUXrT00CpFs3h30HzNMFzpyIJlaeGjAGGh42T8H3/8UabFn3/729+kP48TpsX5CVwJtGzZMimmCEUKe3JcqWm9WpNLyrk6yR7Yk6T4o+WQ8+eYD+b34osvlgLNPARJusoLhSiXrnN+BAWkPXDImL0+CmHea4pP9ho5LMxnxaFq9kR5n/kM2JNk75J5IBRsFI5M1+ynUCgU3SJ0W7sUb7TUH2tV+62hVY/WL9ZrrMvousK6g04LHutgjvRQMNoaerWGU1Y4V42dXNbzamSi7+Kwgk2+9EIw+ItGe5gQZzPFyz9JNOKDhAsXIo5ijUKpJ7FG+OJTdJgnklJMUEQQWsposuYk0ttuu01OLOUQYndQ3PA8znWYMmWK7IURDoeyN0Z/zi3gyhymzZ9cAcQ8cL4We0PMN61t55xzjixsnMDK5eKcO3HppZdKKx57aeaJsXTcS41ipyc4nMh0mMcLLrgAU6dOlflgT4x556olTuo3F+yu8sIKhGKWIpM9RcZrhgsjaPanuKMQ5QIIbijJHirT4JDB7bffLi2XZOHChTI/HGZgD/T++++XQ7icN8eFHpx3SMwijs+Yc1AUCoWiK1y9h4ueZbjogLZD4xQLFzdP2dG0Hgq1hNNBWBdbLtCyhsc4fYQdR/NwZW/gdBoaCsxTPLqCndj58+fLOo/tEsOy08t61zy9pSeYBvfX5Fzsjz76SM397cM47JcOCM+nmHAXL2SgEG5B4gXmC01HsWarYFJk0DRtFgCE4Zket+Pgy00LGV9uvuQskIyDooSFjIWTFiKuVOTke7MYs4SFl/HRasTCZhaN7C1RrNEyxG1CzIWcadKPIokTSSmgaNHjeSyUHNZlfLzPXNHJnhJ7TeY8m+G5FFQMzzxb5o89MTpeAwUT0+O1MC1z/lg5MAzFKgUh4+CCCd6rrvJC4cQVVLTIMU/MG2GvkcKW18zVTnzOfJbMI4cUOA+D8VNY815QtPJ58b6zN0nhyWfItLmal0MQFISch8F5IGYRZ2m97O/wufRUZizpqQxaczzlnBZRPld7n9PJqEus6c9p9KXnYd46ifV1Vzi5+MOg10KjdYUGY+DsMwZ+/sGyruN9sIZihqMt7GRSkHERFq39rP8+/fRTWc9xji+3y6C1ih1dbmHEupH+7KheeOGFNq3/HAFh3ca2hJ1SdrDZvrDuY13GDj3T4CgJ6z/GwblzrFcp7uiYJ9a3PJ9hKNzYceV59OO9ZF3J+8OOtTkvbGt4rzgdh3Uyp8EwTf5OIwKHZbmPJ/0UXWNdxzpa+XASDXiPNldGRiHCl8LeTPPlYSHoquJgD4b7n5133nny5igcFw6hUkSxAuT2J1zYYasy/LWwguRnq1ihco+3412Z2lfpbZnpqQxaczzlnBZRdkjstQacjLrEmv6cRl96HhQ2HCm46qqrTL62YSNLMUQxxkbP3KFnHq1hvFxEwBEB87QYiqJLLrlE7t1JocfzCRd/cQ8z/qQhgPUTV5j+/e9/lx1Ra7iJOOtKSzhSYd47k0Luuuuu65wWQ38eJzyPgo+Cywynr1CQcTGE5Qbl3IeNHfH33ntPbrBuzguvh2KP+4ty/jQ797xeCk0urrj++uuln6JrrOtYRysfSrAp7ILDn5xXQaskF2VwCPVEw2FUVlxcEk9Lnr09lP6CEmwnVyD0hTT6o2A7HqybPabDlaNcgGa5+tM6vzyvq2uw1ZTaOt8Sy+PdnW95zNLPVl5s+XcVVnEsji7YHHYOm8KxYE+PG0uyF2rugZ5oOL+NiyQ4lHsyLHgKhUJB2DBaOjNd+Zux5WfG+lxbYbs7bn3M8nhXfraw5d9VWMXphVNdXd0vZb0VHGPl3ChaPOx98FSNDNtVw8t5VNz3i5PilYVNoegZc++PO6JzcUdP9FQGrTmecs6eIXuTHIqyh5NRl1jTn9PoS8+DXxngvNaTYWGzhveN87w4ZMgpH4r+iXUd62jlw5mm0p6cJbaO23JmbB2jUygUx4+tMmXtzNg6ZstZYuu4LWfG1jFbzhJbx205M7aO2XKW2Dpuy5mxdcyWs8TWcVvOjK1jtpwlto7bcmZsHbPlLLF13JYzY+uYLWeJreO23G8N564tWrRIiTVFJ9bvofU72pUzY+uYLWeJreOWTs1hUyhOE9QctpM7Z6ovpKHmsCkUx4+aw6ZQKBQKhUKh+FUowaZQKBQKhULh4CjBplAoFAqFQuHgKMGmUCgUCoVC4eAowaZQKBQKhULh4CjBplAoFAqFQuHgKMGmUCgUCoVC4eAowaZQKBQKhULh4Di8YOO+vjq9HoUVFSivqZG/81MOCoVCoVAoFP0FZ4ofexzh965sHbPlzJ9SsHXM7HpCijWDAeV1dThcXIy0khKUCtHWqtXadb5C0RexLkddOXvKoLUjJ7qcWzuVhu3jtlx/TsNe2kTYVp0OtY2Nsr3g+QrFr8HyXSSOUj6cGhoa7C8ZJ5Dm5mZ89NFHOP/887v8zA4LX1V9PbZnZsJ/0CDU1NbCWFGB6QkJiAwNhYe7u/wEhELRHzB/NmX+/Pl2ffz9t4CfYeFHju392Lji5NKXnsf27dvt+jSVRnTg88rKcDArC2eMHo1gPz94eniotkHRaxyxjrXEyWAw9CjYqPx0ogfDD+Ta+z0trShELDD8rp0tmpqa8Pbbb3f5XUT2mGhNSysvh+/AgWj39UWDXo8q8be2sBBz4uIQI0Sbj5dXny2YfHHeeust01/Av//9bxw5cgQ///wzrrzySixcuBBe4vqF6Mbu3bvx6aefynB5eXnSz5rp06fjkksuwaxZs0w+itMJc2VyzjnnIDEx0eTbNT2VQWuOp5zX1dXJ+PkdPHs4GXWJNf05jb70PLZs2dKjYGtpbUW2aBOKWlrgEhyMiuxsjAwPR3xYGPxFm0HxqnBUGlBy8Gd8/9p/8VHsvXj8yqmYNSTIdOzEsXnzQTz61Ae45rm/YXFiIKK9TAdsYF3HOlr5cHn88ccfY+TdOZr3+IFSfszU1nFbjuH5k5m2PkanF+Jr3759UqyFhISYstMBxVqRKKhFQtQ5i2PugYHQurpCI1yz6DlWiYsqrayEj/jpI+J3F/723szTCYraiooK5Ofny0prxowZOHToEDZs2CAf8IgRI+ArKiV+ODYtLQ3r16+XFsuRI0fK3oGruC/mc6dMmYIJEyZgyJAhCBT3U3H6wWfOMjNs2DCEiQbJVrmydD2VQWt3POWc7x4bRVY2to5bu5NRl1i7/pxGX3oeBQUF0mI4evRoUwk4CuOkZS2rrAw1bW1wEe2Es6jXGsS55RyJEWXFT+TP3ZRHh6c+Gds2p2JrciOikiLgKbycUI/cbZtxYGsySqKSECE8XZ3otwLfffYVPjzoisEirI+7KyhLs1NS8Objj+Oz1auxSrjVq7dhX2YDXBPN58qUhCopRv3Br/D4i+/iq29WiHAi7PbD+KHYH8nrjsA73Bf+wd6QNto2LVCzE1+vyEZRAxA6IEjmrYOjefkoWeRleEdedor43nnpJZkPGffqvchtdoNn7ACZDzPNuduwc/tGvJUdjXPPOhPTh4Qh0JsipxGapgysWnYE7UG+8JZ5EX71B7Hq8Rfx0VffYPnqFBwuMCJ0cjzYmjmjACmrv8IXL/0P767+SaRZBgwU8UX4w0dcrzFvA77J9EVCfDCiQ03XZgPrOtbRyofLYwJTXruEY6eMkGZ2e4URwzMsRYMtzDfGlmDLF4WwUCjdVtFL9I2MRKvIaJPwbxDxNYqb0OLlhUIh6JyFoPEXfv7ib3M6u3btkuIlIyNDChumQdjjZO+TZvaYmBgZnkq4sLAQe/bskX4MS5ciXnz+9Pb2lgKJ5+Tk5MDPz0/68cYRXmOlEI7ffvutTJfnlIm8BwUFCVW/WcZ98OBBWfFQQFGArVu3Dhs3bpRh09PTMXjwYPlgbeHv7y/T4vmPPvoooqOjZX5oQYuIiJD3lz9ZQefm5iI1NRX33nsvZs6cieHDhx9z7uzZs+W9VmLt9KW7MmOLnsqgNcdTzs1DcKxs7OFk1CXW9Oc0+tLz6EqwMT45DCrq3grR8ReVGtyDg6ER9Z1B1NGlQrTWirq2XZSXQJGmm8gn07U37VOCNge71+7B/uRKhMyYiAihKFw1mdj543ZsP1iHkDOnI8HL7Pcdln++GfuLjBg6ewoi/DzhLZqktIOZeP35j9EW6SuuVcTZUo+m2mYUV/hh4Kgw+Lq7wFiZgewdP+Obr3diZ5MWbUYjnIVrajYgL7cJm7aXYMTUeCQMDII0RBmFYKtaj3c+KRJtbyCSJsTCj/6k5WheDhQbkXhmR162rNqEVSs3w0nkg3G3NVaipqodzcYADBwRBm9xqjOqkP3zGmzdWoLiGbfi0XOHIDrAA1rmb/8aLP/+J3z6TRMGThqEASIvTjVZyNv5Lr5d24RqgxEtVaWorG9AUfQwTArzRlPGl9i2YS92HdFB59yK+vRUFIbEICAsHJMinZAYWoPVX/wM73ghXqOjENZF8bCuYx2tfDhk16OspgZNQnW6BATIn43Cr164OvF7g3gBWvmSiYJZJARYcVWV7FWa4by41157DZ999hlefvllPPvss1i+fLkUXFlZWXjllVekcCKcR7d3795OP567dOlSOVT7r3/9C19++aWM59VXX5Vx0kRPkWeG5noKsDfeeAP//e9/8Z///AfvvfeeFGtPP/003n//fXzwwQeyl8HzduzYgddffx0vvPACXnzxRZk3ijZWSr2B4nLx4sXYuXOnFG+WeVIoFIq+jByBEfV+pmgnXEJDpVhrEf7NwjUJ0eYUF4d80T5sE2FyRAeaw6ZsFElzsw7ZWWWoKEjBkdQDOHDgAFIzclEimgQjJwfp61FTnIMjwv/AgWTh8lHWoAFr2OZmDbIy81GQmYzUlAPIyC9GSWU1yjIOIOXgAZFWAxrMVXG7SE9XjZLsI0iVcaUg5VAuyoQw0tlaExGQiEGhQCzSsSNPiA7OVKrKQLHWHZXBYzBOHHMTrbW+9BAKWnzQ6D8cc1y34UB+E2qaTRH6xMBv3O/x15dexatvvYW3XrkDf5jhh0P//AIpDS3gJJmaw5ux/ptVeP1gEm566kW8zHDCvXz/rVgSVQONSxuOtqbdY5mX2S7bj+YlaBSGL7oDz4p432T8S6/CNNdapLz/M9LEeQae3JKKFCFOcwuicO3Zw+Ht2WG0aC1LxaF1y0WbugrbmzSok74i3zlF2PPJOnjc/A/c/fJbeOWJxTgrqQwffXgQdS16HPp2PSrc4zHjn2/hf6/9Gy/e4Y6itHTs3lsCvV8EvEfMxrUhm1GaX4QjJUZTrKcfDinYRickwEeIspyMDDSIgkaxVivEWr34vVkUPk1FBdr378cg0bsKEyqWw6tmaGnivK7bbrtNWsYotEpLS6Vq7gmem5SUJMXWX/7yFzlnbMyYMVJYLVq0CB9//DFaWlg1dMB5Yw888ID0p5WOc8s4R+yZZ56RYipOVBz//Oc/pTirEZXLDTfcIIclv/76a2mVu+aaa7Bs2TIpJHtDsKigJk+eLC1znNNGS55CoVD0B6oaGrBDtA1BQ4bAyd9fCjWKETbuNaYOfpuoI2t8fbFRdIhr6+vlPCFy4EAx/nTLW3j3idm44rxJmDRpEs77w91YuluIPZ0IULUJ3/7rTlwq/CdNOkO4v+PNTVlgDXvgQBZuueHveOKGM3DevEm49pF/4cVPv8Jb103C7OmTcMebm7DJXBUbRSe85BssvfUKnCvjmofZC+/BWwfrUGyzfx6KgYP8ERbXik27SqDVifxWlglvP3iNG4FoEYLDnlVCZDa4+iJk5kRMjE7Bjr35qKzposMfEACf0HDEiV/Ntp6CHEDrmoglby/BnGA/BJv8g8W9nL5kCcb6+cLf5NcTdudF5CHIPwBRpj8lRw4hTeeM9KRxmCIuzt001TBg1IX43T0vYe3bf8SZwUfzUlUWhb3rFmPiKE+EikwHDByEQXHDMCyvGJUGI3Zvny4UdRJGDRf3yd0D0VPORJKuHZ619aiCF9w94jDlzFHQtevk+3C64pCCzcvDA4mi5xQnBEmmEFpVGg0ahVjTCLHEBQcuBw9ivKcnYsQLyWFKS/N/fHy8LISc30UT44ABA+R8Do4T9wTPpSmUQou/cy4Yhyz5t3k82xL+XV5eLueNcX4ZRd3DDz8sh2N5HueNDRw4UA5NUlxxXJx+jC9UXN/YsWOxdu1aKSh7C4dmKQ45DLpfiFeFQqHoD4SIOn+SEBj5ou7jfLV6duaFPzv1zUKYtQhBp8/Ohn9+PoYL0dYmOvRmCxsasqHL/BJ5Ez/BY29vw7bPnsM9C2Kx8tNvkdOiwQf//AYpdSPwu2XbsHnd1/jywUbs27sHP2wRSqyhGU4FjYi9/Wu88sw9mNFWim0bChHy6Bqs+NfVcCnOwM79h4RAEOKv1oBXbsrHwCsew8vbRDo/v4Pl/56A1Hd+QFpGiRSY1vgHBMPDJwCp+cXQCxFy5NAONNeWIEq0PUIBCleC1AMauBoCMHfWaIybMA9ZO1OQU1ljMz4U5qOsJAc/JQ1EsJurHOLMKQ9GRnkUYmOd4Wq5HsPJCU7GFjilvYlnbr4YC6ZOxVS6GbMx9aKn8eGeHFSYgvY6L0KcHdHX42B8BGLEn1J4VpTCM8QXwy3EqIT5cHaBi4szODjYOUAomt72duFn9hAC0MfDFwPS8lGuN6ClveOAPO4iYouORVRZA1zKa1EpvVyFVzzKGlrEO6ME2wmFY78houc0JCQEQ4XQqc3KQkNZGbQFBfAWhTBJhEkQxyLFi8w5WRRkZvg7RZx5lZR5Ip898Fxa53gOfzIO/qQ/xZ81PE6L3NVXX43f//73uPHGG3H33Xfjb3/7G6KiokQHJ6AzbxybZnizHwUcFwzQ8nY8Q5q8RxSlFH+0+nFxgUKhUPR1PEVdHBMcjARRnzYVF6O0ogJ1QpA1Uaw1NkIn2otg0ZEeIhrucNGOcPunzrlBHkFwj5qCKVOnYNo08XP6BIwYFAWfskrojG04rBkK70FTcPbiKZg6bRLmLRqBoFQhfJLzUSAEglvUCIybNAlTZo5DQmyciD8Go6dOxuSZYxGJNjg3NIHjPTq9FrvTNuP7rz/DJ++9h/c+/Awffr0B23/ah6yqeikwrXEVIiMkIAJDN+9FrrYM6QWh8HKNwLAhbhCqE6hORnJ1CNq8BmDcyGiEjJ+K0Wm7UVFQhRKaGVtK0Jj8Ef59/924+/bbcfuzP+L78hjceO98JPqJNo1BvINgCBLCyUOImE41ZMJFtHEh4zH9nEtwlWjP2Kb9/v+uxe8vmYFRUYFy7pnERl6Cx03pzEtpcSoy1r6OR0Qe7mQ+/nsElSFJuOSqSVKcsTXW67RwdnOBj68PaG6xzkqPiPbPxckFHs1a6IRQP2aUmc9atOHuOgOcdHr5PJw4rzMmDkH14kYJwXa6SjaHFGwsXNxHJzooCOMjIpCg0cCntBRBohByGHSYEGqR4eHSSkXR09WkfWsojKqqqjp7W/X19XLRwK+Bgm7BggVyuJPDsHR80c2C0QzTZNrFooLhlhuct8YVoAkJCfIaegtFKIUpFxhwwiLnzSkUCkVfh3Uft3MaFhmJSNFYG0UdXsO5aqJe1eXmIkj8niDCsVPPieOsXzsngHsEC9E1GaMGusOfCkZ0nj18fEEbFq08jUFJCIgZgEHCw9nFFX6x8QirahJp1KLSwwcuEfGIDXSFV4AvfENiEB0WhdgAZ7gEBiDIVXTCmYagTeSxLtQXTs7tcBbtjrbNA84BwzD/rBGID/eTIuUXBAgBGBqLWbr9yC1NwQEhHt0DEjFS5KXdoENj+jakFOZix+4tWPftN/hkQzpai3bgUEYx8ipEp1/cC7QZpBjS1mYi5WAZsosDcPY5SQjzdJPDol5OrfA0NqOpUQS1HnRyFoItfDLmXHwtbjC1ZbfdejNuu24OxsUEd15buxCj1nn5dOPRvOSWa0Q2DNBpmqCtSsbmbQ0wCuE5Y3q8XLBwQkSHuKd6ox4Nof7wEff6mOn9nD8ohHuTjwfafbyOCk2hK5x5j6yv+zTCIQUbYaH0EoUpWhS4BQMHYrQQaqOE32hRSLkykkOUFCy9Wb3BeQzcZ4UrLTnZlPPaMjMzTUd7D/PIONesWYNt27bJOLnClHPhKKKsobDkvDeuEuUcN86x434vsbGxphDHQjHJRQUUlsyzrb3Vxo0bJy2CHIZVKBSKvg7re678DA4IwISYGCSwAy7qybaSEvjl5GCYqJeHiM58uOjUU7BZruzvCXdtDXRCzdS1UP+0QdcoOtdebnDy8uxYNWknTi7u8AifiotvfxRP/7djYv9bb70q3E24YGwswk3hjkXkNyIKk84sRfrGdUh2C4dTWBzi0AaDrgl5O7ajouog9uz8Dh+88h7efm8rykIrsT+3ANn5NdBbLjpY+jDuWZiEQXXF2H24BDV6o5zsH2kohq8Qg+t2lKBa2+FHDJx2JO4fh5R/2XJZYkdeGqMxhIsO/vc63nzxHtwwIgAeZcU4lFsld3ugXnJzc0ebvg2a5hZw6mBPGsrVXQffwBo0tXALDNGW11ShrqkG+cMGIsLNBaF+QoE6ayCiE+JWiMW8bBSF+kAfHijFeLu4Ll1xPqoCfNAeFICAjmhPOxxWsBEWTJqzI0Whm5uUhKnDhklxw4JIsUYBZK9YI5xXxnlfl112mZy0z8UE3IbjeOFcOfOKz7PPPlvGyR2SubUGtxCxhAsFuPqU880uvvhiXHjhhXKxAi1z3BvNFlyh+uCDD2LTpk3SiseftuDcuVtuucX0l0KhUPR95NQZIdqmC9E238cH4VlZmBEUhMG0vAnHERiOdDCcve1EVO7XKNyzHeuPCFGg06Jk1yakDYuEe1K8nIpjLy76JsSnvSE65jk42Is1YcFCZAwfGYp3nnwLLU7uCIofIHw10GnzsWtTCoZd/Bhe/Gq37Pjv3rYeu1/9PwzQ1yIjp0DOnesk9ExccMVozBuehQcWLcW6qibUCO+x04G42Ey8fOPL2FDT4UdqxL3b/vJSHGhqsj0frpOe85KZU9iRFxchcaMuxJIl0XAv3Ixn7/4Cu4U3BVpoeBRaqxuRdiAVJeLvjiUhXRMaWYaJ87/H3kMaVIlM1xfkICc/HRnxMQhzccXk6dsB3zQcsnxuHk5oFeIsVJxvNBpQIgRbZIA3IoTf6YpDCzYie1NCmPkLgUarmtmy1lUhvOOOO3DBBRfI37kfEeeS3XfffdKP22HcdNNN+PHHH+UWHVyh+cQTT8gtPDgXznwuhzk5N41ijKtEuR/avHnzOsOZYc+NFi5u28H46L7//nu5dQd3S+a5ZpgXik1uNbJ161bpVqxYIcVnV5UJ58QxHC1xjPuMM86Q+WM+LeHCBn75wDJ/XeVZoVAo+gpsB4JEXTdK1IHnifp2cFwcokWdz70wWY/ba1kzc+mDF2CEfwq++P00zJxzES5+yhtjJ07EolkDejXPyi/YF3e8cSN89v8Xz106DdOmCXfGfEy7/m18c9D2ogNJUAi8Js3FQpfzMX94JOIHiFQ1NdCVpGKz4fcYPWIIxsW7yut29fKG69QZmN5QCO/MHKQeo9ic4DxwFiafuxj/uvAAXrribrz+zUEUxV2ARX+4Hs9esAsvXbkIi5kv4Rbf+zT+0TYV0e3u3a8SFXnRlnafl4EZ2Wg058XJGc4jLsPll47AuUHf4/7F9+GD5DqUxI/CcPc2JKYdwO5SIeJMiq3h0Ep889LdOPv6F7F524t46JbfYcmjb2GdcQQm/f52uP3rGvxl8TQsvPFLrDiUhEfvmIQAPzckXXYjBjQXYrPlc5swAWeL59YhMguwe3MKPJw8EBxg7zpYx8NJo9H0OKLL1ZAc+uODsReGpxDpqsBw3zPuWdbdt0QVCsVRzJ9N4SfJurLKWtJTGbTmeMo5yzE7I2wc7eFk1CXW9Oc0+tLzYGfVnm+JmuPn9k78yetnJ58/mU9LSksbsO9AMSbPHYJgzuvSlqO0qBz7Mtw6/NqKkbnvEA4kF6AWnBudgMnnjMfQ+BC0WJ7LcBkNqNT4Y/zUGPg0Z2Hnfj28wiIwNCkC3pyYL/y2rz+IzKIaORTYMal/HObMHIrBUf6257FRXDSXYu/yEgTNTkKUSDfA0IDW2jys3wUMnRCP2M5zqXLKcOi7dDT7R6EtKgY1GRbXJo4aGkpRlbEdPxwA4mdMR9LgKIRo6bdV+FWjxayU/CLgEjsRIfVN4noGHk3DfB3ma0sUIrhG5GV313k5UuwM90HxmDs/HpzJzbdEW56G7LQ0bMvzwrhFczE0tBFFX3+AVT9nYtv0u/HWJYMQ6uNqCncAG1JrGakkfOhkDB87CkO9C8V92YKs5lY0IhwR8cMx7ZxRiBRhXFCJvN0HcWh3BgqsnltAYz6qUr7BTU/txoyb78Z5cydiRBdGNus61tHKh12CjRPm6WwVgK4w7/bLc2yhBJtC0Tt6K9h6KoPWHE85Z55Y0dgrEE5GXWJNf07DUZ+HuUHqTRqcF2yPYFOcnjTnrMX69Wvw4hYPXHzVNbhwUjwGBFt8u+oEUXh4L759+2V87X4x7v79DMxNCpNC0hbWdexvVT7sTcNJqLseBRszwK8JcD6AvZnmKkgqzK4+kWK+MV19/F2hUBxLb8tMT2XQmuMp59yWhtYMTlOwh5NRl1jTn9PoS8+DK9+VYOvL1KP4wFqsenkpPoi9H09dMx2zh5q38j1xbNx4AA8//i6ue+ExnDcsEDHd9GWs61hHKx/22ewUCoVCoVAoThgBiB57MW5+cx02PHoOzkw88WKNnHnmWGxY8zxuHhuIaPsMzw6LEmwKhUKhUCh+c5y4KMHFFa7O/Di/yfMEQ6uVq6sLRBK936DXwVCCTaFQKBQKhcLBUYJNoVAoFAqFwsFRgk2hUCgUCoXCwVGCTaFQKBQKhcLBUYJNoVAoFAqFwsFRgk2hUCgUCoXCwVGCTaFQKBQKhcLBcTZ/FqEnR2z5d+X4AQU6W8fMTqFQ9B5bZcmWs6cMWrvexE+n0rB9zJZTadg+ZssxfoXiVGH5Llr/3ZM7meXDqaGh4ZSUjObmZnz00UfqW6IKhZ2YP5syf/58DBo0yOR7auFnWPgNPHd3d5OP4lTSl57H9u3b1aepFL8pjljHWuJkMBh6FGz8cK9Op4Onp6fd39PSarXye1r8rp0t+PH3t99+u8fvIrYJpdogKqGdOTkI8PLCiKgoeIvKqDdfz1co+gLmyuScc85BYmKiybdreiqD1hxPOa+rq5Px8zt49nAy6hJr+nMafel5bNmyRQk2xW+KdR3raOXDmb2xnhwTJ7aOdeWYMJ2tY3TmOLvDIC6kprkZ+4qK4C4upk6vx97CQlQ3NEAnfndEs3lOTjVef3MbCpq00Jn8FKcjLajO2Yrv//MA7vtoNw4VN5r8Tzz19U3429/exCdbc5DXYvLsBpYdW2XK2vVUBq3dySjn1k6lodKwxzF+e9EbDCirqcGe9HTUigbXUdsGxekD31m+hw5XPh4TyNDdwLFTflGeZnZ7CxLDM2xXljAqyn379knrWkhIiMn3KHqTWMuuqoJOpJ8YGQlXkeEyIdZqmprgJ/LiLuJ2ERfbm8J9sklNLcfb7+7ClHNHIthb5NHkf8ppKURmejEyC1oRGB0Aan+775rNc1tQmZmO/MwC1AZGI0B4OjvRbx8O7tiDrYXOCBdhPVyd5cqWCiG0f/7qK+w8cAD7hDtwIBP55Ro4R5rPlSkBrbVoyd+Nr37YhN179olwImxWMTI0fhgU6o2D+4vFe6GDb4iPzIeky/wdf160lYeQvGMN3v4uDdrYyZiSGIHIAA+ZnOgTCVeOtD2lqG9ug6fMi8lv7Ubs2LgV2w5kIS1DA+9BofB2c4ErGlBbmIbdX32PTTLdSjQ6ucM3MgBOzU1Y+9GbONjsD8/gMAyOsrg2C3oqM9b0VAatOZ5ybh6C8/Aw35vuORl1iTX9OY2+9DwKCgrk9YwePdrk+0so1irr65FXW4vS1la0iPDMlZupgbM3PcXxkZmZib1796JW3P/Q0FB5z20h63HhIkU7TsuToz4X6zrW0cqHQwo2o0ivpqUF+aLXVCZ6TDMSExHm5YVQHx84ifj2lJRwtQS8xIP3EH87kmgrLKzD5q25mHvhaIQ5kmCr2ohvvtqLH3e3YvyCYfATXh263g7qduOHb7Zj7fZaJMwZhWBxoouhAHu+XoX1aw+jZfIcDPERlaSRfsvw9isf4v1kD0yaPwZhPh7wFI/mwNZdeOTmu7Du0H7s3LUTO7ceRHp+MwxRIzE4xhteQky1t9SgLnM39q3+EI+9uxKbNm/Frh07sCVFxFsXikXT4vH261tRJgTbsAmx8hoktq5N/2vyokX5dnFtW9Pw0+AlePfGiRgS5i2TatM1Q1OVhcz89fjw9SOoNnghXuTF16hBc/lKLP/Xh/jsix/xw7YD2L2tAi5njkNcoIiz5RAOb/gcbz36IVbu2YENP2Wj3DMAgaMHY7SfE85OyMeKdbmoafNG4qhBCLWh2JRgO7kCoS+k0Z8EG9sJjrbkVlejWsTrHx+P1Lw8GLVaeIh74CXSYyff3jRPB3g/ysrKkJ+fj/LyculaRFvJZ857ViLaRl9f306rDe99qxCyxcXFUijxGRDz/eWQM/ES7auZPHEPecwcP535XHO8pEHc+2+//RZfic4v0xk7dmzne8c56pZ5+eyzz/Dll19iyJAhiIiIsPvd+a1xdMFmd5v9W1IvXrDDpaUoFw99oSisAeJlYUbdxMUMETfxXPFirBcvUYp4cWubmuQYsOIkEjoCg/wNGNh6ALtKxEvN212VhpwGNxR4jcOUaMCdHSvp54NyJGK+cTOSS7So0cgYAP/BCD7zb3j7p03YtHs3dq/9J/66wAfrbnoZW2ubUCuC1B9aga9fW4orl4bhzk+/wxqGE27NCw/jEWxHBnQynF38qrykIXlbIQp2B+OPl06Cj9dR2a0pPoiDb92Ms+cswXObD+GIyV/X1IA9L/8dtXNvwC1f7camb57EC9dk4qVlO3A4sxaFm39AWuoRhL22G99t243vnx+CAMNB/O+LNHHzRGU56VJcFLwbPoXbsF54KRSKrpFzm0X7cKiwEI2ioQsdNAhtQiyET5yIg6L92FtUhOq6OtkQ9qXh0bS0NDzyyCOYPHlyp1uyZAk2b96MgwcP4t5775XzGM1Q4KWmpuKuu+6Sx80wDMPeeOONWLFihcm3g3vuueeY+Om+/vpr1NfXm0J0sGnTJinKZs2aJfPg59fZhf5FXhYtWoTZs2fj3//+t5wnpjg+HFKw7cnNhV4UsvGix+QpRJql5qRoCxMFc0ZCAgqEwk8Two49iKMcwda3H8fdM2Zghsnd/fYWbE09jORvn8EN4u8zpf/dePztrbLBratrwv33/xeP/vF3uP6iGfjdTXfi3+tS8PHd5+Kas2fg+sffxpfmllnw3/9+iQf/eD3uvsoqjSJTAEsarNO9Cve8uBJbqnqfLqq2YOWL9+AqGc+Zwt2AZ75NxuEGIDm5BEtuW4YPnl6Aa37Xkaff3XQf/rsXaNIBWz5dgfVfvISvProfVyw4FzcvSxHn/GQR3zzhHsfbW7Lwi8twCkXcID+ED2gRAqcUWiq2qjK0hfjBc+wIxIgH1KHXDqDe1RfB0ydiYlQKdu4vQGWt6dmw5+DsAjdRubIn4R4aAv/wMMTqjXAWz5pVamG2ES1OCbjl1dsxLzwY4aaw4cOHY9btf8I0P18EdsTWI78qL0dSkKZ1QvqwsZgW6yx66x2nEa/o0Rh17Uv4+q27cOWEeISZ/LUaD2xfPR+RwTEYNMgdARGRSJg0DcOLKtHa3ILktESUpE/BtKnu8PVxR9TocUj0DUZocQVKxd0zOsdi5Nhh8A32QEmFeDkUCoVNKMKqhXjYk5MD57Aw+EREQCvKtEa4FhcXuAwbhiPe3lhTUICy6mppNTndRRvbOAqrJ554Qg4rbtiwodNNnTpVWml4jbw31tBfbzGvj3GVinaTk+PpT1FVVXW0zomJicFf/vIXGfe6devwySef4Mcff8QXX3xhCtHBN998Iy1p8+bN6xwK5UIRCj6eb5mXuLg4JCUlSQFpHkJV9B6HFGxR/v5oFy9gYU0N9HwRTf5EZzSisqkJxRUVcG1pgZsojCyQZlK++QL7cuvgOutqXH11h5s3OhY1O3dh3TcHoJ18NS66/GqcN6YBJfl78cWmAhi0OqT/tBtVPqORNH4MBrcV4vPXv0J+/NmYNn4A2qvy8ePmFNB4zB1T8nelorghEGFnivgvvxhXT/ZBxo+bsXbzIRTIXBzl0LpS7FqnxSCRj8uYn/OECK0rxNY1KSgX6ab1It1N72ejoCIMYxnPlb/D1YsCULrvMA7szUNReR5S1n6G/S5nY/x8cXyBiM+zFp9/uw1FGi3Chg/BwGETMXTEHJx/+SU4e3Qo0r76EbsPaxAg7tWVl56LRQmHsGHXQWw+VCnzfhR3BIcGwTvQCwczi6E3GFGQcQCt2jqEDoiGh8idk8hldnKVeG7+mDxrDMaPGoK0XWkoqKqDzXn0tdWob6hG6sAw+Lu6yKHj3BI/FNTFYsKZcQgVKsk8KugmKt9AUeADRaXgVr4NGz9+Hg/feSfuNLuH38THG1NRLkPzTv26vLSWFEDv642QMaOQ4CHEqEWPwdnDD34xIzFpbAKi/b07h7zb2pxRVxUGD1cPeHqKcD6+8B2QgMHZJdA0tqC82Qfa5kAEBohjotS5Rw9AhNEVwQXlKBZ3zyjuYvSAATC6uqGgXAk2haIr6oRISM7PhzEoCM6BgdCLDnyT8Kf9h/YcrY8PGoV/nhBwu4Woq29s7ByFYVuRI/z++te/dtYfDzzwAN588025cwGtSMuXLz9atwi3detWOezI8/7zn//I7aj+/ve/y2O0GGVkZEhx0ptzv/vuO5t5eeONN2Q+raHI+vnnn+VQHa1V06dP73QXXnhht/P8rKFAo6VuuOgIJyQkSItXdna26WjH8Ci3tGDc7PifddZZMgyHYgmvldfM+0XxGB8fL/0Jxd6UKVMwfvx4k08HXAHJYxRthYWF8lxF73FIwTZI9JqCxQMuF4ItWbwkzeIFYTPcKn4WiUKxNy8PDcI/XLR8wVZzNXZuq0OtzwjM/tMduOOODnf+lHi0VomXrCYG82+9A3+8/Q7c9n8jEKUtQ/IPqShtFw2m0Rfx0y6UYmbBmIGoS6tExPzrcOmVizEyxB1VmbmgIVducdfmjYhhszDnKhH/7X/CHbeehwEV2ShNSUO+lSJISy7C5s3ZaPT1hZdwvj4alKcfwf6Nh1DSy3S3b0jHgSMVaGU8vl7w9a5H5tb9OHwoH1XtbXBxdUXklD/gkutEvm4U8Y2NQdXBVNTpDYgdNwKDx8zCqPHn4Nqbb8Clk6OQl90OTdAEnMd7ddsNuO0a0VNNSUfannwpEi3xDI9EgH8ovPalokxfi/SsVjgb3DFooI/owumBpnSkFHgDrpGYMiEBA8bPREDyPpQUV6NCKyLQ1qK1cBu++/RDfPTuu3j3sx3YWeqGoVdOwUAvd3AGRXVbEGpdIhHjL0RSV29mmx56rQbNosCz0EvX3Aqt3tjxbE5AXtqaGuHq7Y6wqHCIrBxfIeHEWh8/BFU1QN+qh6UNWCIaFS9DOzxrm9Ag/mSnxCcsEu5C+OnKKmUDdHrbBBSKk4O0JAkBxsVozeL3RuGkWBM/G4Rr0mpFJ1wLo0aDxoYGKZjMgo1zsyiaUlJSUFlZKedwHT58GKtXr5aiaO3atdi5c6esVzhHi5YoWo0oUDi3a9myZXKIsUa0TRwOpLXop59+6vW5FGvWecnNzZXn79mz5xgjBKEljNNDpk2bJocoLaFYo2iixYxi6NNPP8W7rNeEY/wUh8yfGV4z8z1x4kQZF48xD7bgvaYVjXPRvEXHmTAvR44ckQKMc9Ist5ChAFy4cCHmzp1r8jlKQEAARowYIYUfLW2K3uOQgo2TRQcHByNcKP3togeSJXoENeJlLBYq/2BREdKEX6IIEy1eAH9/f6nezWRgNrzCR2PiUdEvaQgeDedhszEvCfBwAwITEjFA4wyfQ9lIc3WHIWEcEmKCEBHhB5/YwUgcPA5jIt3hHxGMYNHwRpnikUQlImJANBI4PicaZiSNxmh/A0KbGlB77DA/GtyqkVq8Cd++8AL+I9wLb/+M3akVcHF3gkak296LdKs9ikVhXonPGM9L/8UL7+9BUUUj2l3Zq4yBR+LFmDfaC+FUGb4ivqBg8DZ0NfWxOmo2wod33CtnkZfQEeMQX1ADfX4p8kxhOomIR0RwDOam7kR6bQYO144SSQzDKHFuu0EHXd5OHKxxQlGdBq11JcgyeiMxdwcKssqQXyMqy9ZqtGSvwSevvoylzz6GR17fhvVlg/Dgn8/EID8PUHa7+gnhFugJL1FXOXWlVkSez7r+b3jpnXfwjtm9tATXnzVa3ivmRX8C8vKrEY2JqNmg9XSHs1Cfv1g7ZdDD6AQYxcvYOUNOPG+/Nif4NYqevvhTClCFQnEMgUI8jImLQ1NxMaqE0GHbQLFG1ySEjkb4OQvxEyZ+DvHzE3VJx87zhOKJ+2zdfPPNePXVV/HKK6/gD3/4gzxG3nvvPSlQOKx39913y3Bc3bhjxw4pbDiURwsShyZpXeP8rTVr1shjvTn3oosu+kVe/vGPf0gLGq19jMcSCk5O/mdb19Uee0yDljLG9QLbCOGWLl0qhzQpWgnjoTikSKV4OuOMM+S94ZwzikT+TuHHRQoUcfRfv349BgwYIMUZ4fBrRUUFBg4ciOjoaOlnD7Tc0SLHuM35UfQOhxRsXFUSIArlcPFwpwu3PDkZG0RvZIN4GTOEWJsolH5UWJhcbRIUFHSMYHM4ImZg8v+9gBWi17RTOPae9uz5AO++eBkmicNHp7PbQfzFuPKRd/FDZzx0L+Mft8yC0KEnmQEIiRyIqfMzUHloO7Z7xEAfHC/TNeq0KNm1CWn73sR//nE9Fk1agLmLHsT7VTvwQ2oOcgqE/JAT/R/BsrWbsfmHF/DI3CRE5nE4UJwv4weCy3PgnmaxsOE4OFF5+dWIHqShsgx5w2Lg7e+NAJN3J2xovJxRFx+JGPGnFHRV5Sh3aUNZZBhYDf5C5CkUCrnyM0i0D9OEaNOIdqFQuHohRFoMBmiEKDIIMRJTU4NRgYHSqkOBY55jxQ7+uHHj5HAf2w5bUDBNmjRJzg3jl3g+//xzKZasz2XcYaIdssTec4m1HwVQcHAwvv/++19YoLhKkwKL53QFj5155pnS0mduH7gYgZ1axks4bMv5arwfFFsTJkyQ83g5REqLIQUdrYEUj7wOLhSg6KPA5NDrr4GCjW02rYDWglRhHw4p2AhFm58QZoPCw7FIqPs60cCJtw1jRCGJFH6R4sGzwHAZseVS47FYgaaindhgOVlfEFyxE8YDK/DVXtGW6jgpPRlZPm1omDoSE8VxW/te2YUQCNi7Ezv9Y9GSOAhJVrstBFfsQlvyd1iV4i7EgGmSu7sb3Fxden3zIwtWoeTgXmzLMcdD5yoqMOdjFmZ0SUUdWvMrIPSQFCaR+StQtK/jXlHolO7egiNDI+A+LB7D5QmWOCE41AdJo4Lx3tNvo8nJA0HxA4Rvq7gFBdi9KQWJ5z+EZz7eiI0bNmLDT99h89KrEK2rESK7EFWWE/2j5uKiy0dh7tBMPHzBf/FzVccq0TFT2xAXnYFX/vhfbDStHCW1WVnY/t//YnvTUT/bnJi8OIdForW6CUeS01AqYrVHxHl4tmLq2T+gtK4M+UUiJ7WVKNi/DYeiw+Dh44Uxw9IRNVS8J+L908r37yAym6pRFnVUnFVVlMLT2Yg4Idjsep4KRT+EWx+4CwETIUTIDNE2RIrGv/LQIWiEMGrbvx/D9HoMF8ciRDtBQcXhPLNg47l0bDNsbaHAyfGc02ae0L9x40Y5rMnVlLbOtYzjeM619DP704JljXkYkmKKw622MMd1tG3ocJbbS1AscdiVQo67+c+cOVN+cYjDpBxypZWNwvH+++/HDz/8IK10FHIUWIz710ALIC1zHEo1D68qeoczzZ89Ob4sxNaxrhxfOqp1W8fMzmymtgVfPvakAsSDTRIFb4xwI4UbFBUlVXqg6D3RsmYuiGZmzB2CwIYD+OaxJXKpMd1r3x+C6+AoTB6hweanluCBu4R78Qgq3ROw4PwR0vrRq1exfDs2ffIC/sb473oYS57Kh9+kyZg5PwnRViazcdOOTVfm6e+v4eVvjy4msJezLhyCCMOx17bkqU+wfHueHELrFv/RGJLQhsCmD/Hi/Q/hxR9yMWjmgM74/nzvI/jr6xpEjh2FKVMHwJbR3S04CEHjJyO6YCDGDgxBzABPIVjroKtMx9bq6Rg5aRYWLzBNhj1jBqZfdBbGN5fCmJWLLMsMugchfPQ0TJs7CnM81+OtR1/B19tyoBk6HWecfyYWBazF24/dj/tM13jfS2/j1Xxv+Bic0K0tVVcPrcjLll+Zl9XlbtA36xF0OBnJ4iHpLR6SrjoHuWuW4qFnPse6zV/iW/EePP/8m/i+xAujf38O3PeKTsFDS3D3w2/hP9/44KwLxiBhQCASpiZhSJIf8sV78LD5/cMAzD9r8NFFG0eyoGvQIiY81JSabVgebZUna2dPGbR0x1vOOQnZ1jFb7mTVJZauv6fRV55Hd1A8eIn6Py4kBONEWzBSXLOfEDMjxHlDxN+xoo2gWKPViaLFLDY4FEfRQ+FgPU+MUAzx2mJjYzvqDpPj3z3R23PNixFo3eKkfuaJ8984r4x5toSGCVq7aH3jyk1LKL4OCcFqD5wnxzl01157rVyQx89+XX/99XKolgskeE/Miw44XMoFDgzDOX5Mm/BecpPcoqKizoUI9sDrpbWR98PRBRvfWb6HjlY+XB5++OEeN86lsGImeqOwzQXO3Guwhi8Gx8eHDRvW5Sag5h6Dh+hNhYgHTDM4e0t0ZrFmHX9QmA/0TS2oET2JapEG0wkaMgXjxscjMcoVlUcyUGvQoc17LKbOES/k7MHwM7ajrq4Vo8fFICrIFW16VxhcIzBh8kAEuOig0fnALzQKI0dGga/Z2q++R0lVGZx9XdFuENfiORHnXHkmZo4WPQetQVSY7R3nergiNNwTfv5H021lnlyDERgZhzHDI6AV6Y6xM93IAT5o1x17bTqPWMQNGoCBkX5wtUjXtU08YMv4fEPh61YvhGk5Csqd4RM/GfNnxCDYVSvjqxFiyClgJs6/dCamJkXAV95NK9zE8/fxh0d1LMYvHoPB8QHwNWigb2lAnnasEEbDkRjj0zHMy88F+HvDuUSL0JhY+A2MQZirRf48g+AX6IfBQTU4ktWO6OEjkDB0OIbEhAi/SuFXi9bmVnmN7f7hCJq8EBcmhcHQpMWAuGAkCNcp3owtaOK9EhX10ARvVIi8zPg1eZk4FpGaarSXFmJ/6DjMGtCxsS8xNFehLv8AtuQ4ITAsECEB7vAW9zZq1AxMGjsAhqwC1FSUo8opCL4xs3Hd76chMdgbAUEB4va5o/lAMorEe2CweP8CjVrRCdiGz1amoDZgJCafMQ1DbexfwnvBTR0HDx7cOcTRHT2VQWuOp5yzEmF4ezeJPBl1iTX9OY2+9DxoDeLQYFcrIJk+r5NfvfEXabg3NyMxIAARoj1h+bA1AsP5W2x3KK6ysrLk78nJyXJ+GYf8uBCAQoRzwSjsOAeNP9nW0MpEUcNwFBzMGwUQz+/tuYRpch4bz+G5tHxRtNHyNXLkSDkMaobXwHaS+eUcMIZj/HT8SD73QKPQsk6DYoBDoLT4cZEB0+HfXIxnXm3KoVaKqZUrV2Lx4sVyzl14eLgcEmU8tLgxXopLXgsNJryvq1atku0wV4Sa88pnxvO5opXz5Mwb7jIe3nsO15q3+ODzcTSs61hHKx9OInCPi9HYY6M5k3MB7M0EX2ZmwLzzsTXmj6z29PF3R+T++1cgbFg4rr1x2rGLERR9hvrk5VgtKp1/Zk/By7efg4nxwfDztK8R7C365jpkf/kYHtoRj1Hz5uHOS8d07u9mSW/LTE9l0JrjKefsrbNSttw0sztORl1iTX9Ooy89D1qOOFTX08ff2dhRqPIcChQKBIoXS8uaGd4fCpxnnnlGzufieRR9FEivvfaajItDhB9//LHpjI6Vj1yYwJWYnA/GRQMc4eH5FFkULvRj2vaeS5jf9PR0uakt80VoRXv55Zfl77ag8OJXAyigzHBY88orr5TWRFtpUGhxIQKFHIc3mRYXRljC4dtHH30UL730klxVSkF18cUXm44eTZfX+Pjjj8vFAzfccIMUNX/84x/lFiGW4Szz96c//UluDcKvMzz//PNy+xKudrWn0/lbY13HOlr5UILtOFCCrR/QVoXsrV/ig78/iv8mvoh37zwL5462JaN+PaWlVZgx7Sac9dC9uP6SmZgeantOohJsJ1cg9IU0+qNgM2PZlHWVDsNQlHHIir/TGkZxQUvXww8/LK0+PEZnhnGZR3PoT4Fnjt8cl9mi2ZtzCc/n/THnnfeVz68rzOnxpxmewzSIrTQYN9NgGP5OZ86vGXM+6M/fzfk2Y06XmOPnxrlc2MA5aRRlxFb+GJ6ikXPiaGFjHcbhass8OgqOLtjst/MpOrn99jNwzfkj0fPXHBWnLc6BiBl3EW56eQVW338WZgy29xsLvSckJABffPkMHrxoHEYH2hZrCoWie9jYmV1XUKA99dRTcuiPO/Rfd911UrBxiJBTbXguBQYbW7OjpY7ixSymLOO39OvtuYT+DGMO351YI+Z4LNPg3/TvKg3+bQ7DvDCP1pjzwZ88binWiDluy/i5IpUrTSmsacHj/DtzOMv8MS5ufcJPWdGaSFFsnUeFfSjBdhzExQUjOtyvd1tyKE4zXOHpF4HYUVMwZUgYgryPex1xj3DV8KRJwzE4wg9+J2fUVaFQCDhUyOG4yy67TA4jcrjy0ksvlfOqbAkZRddwSHPOnDnyPvLD7xRqXcGFFFzkwHl03YVTdI8SbAqFQqHoF3B1I3fiv/XWWzs/B8XhL8XxwQULF1xwgZxHR2taV3AVKufEcZ4drXCK40PdOYVCoVAoFAoHRwk2hUKhUCgUCgdHCTaFQqFQKBQKB0cJNoVCoVAoFAoHRwk2hUKhUCgUCgfHmRvc9eTMm/rZOtaVM2/QZ+uY2SkUit5jqyzZcvaUQUt3ssq5pVNpqDTsceZzFIpTgfV7aPlu9uROZvlwamhoOCUlg99W++ijj3D++eefdl86UChOBeZduOfPny8/zuwIcFdvbozJTTcVp56+9Dz4CanefOlAofi1OGIda4mTgV8q7wF+aoIfReWHXu3dodj8EeKuNsnjjVm2bNlp+WkqheJUYK5M+HHoxMREk2/X9FQGrTmecl5XVyc3HOUu8fZwMuoSa/pzGn3peWzZskUJNsVvinUd62jlw5m9sZ4cEye2jnXlmDCdrWNmp1Aoeg/Lo63yZO3sKYOW7njLub35oTtZdYml6+9p9JXnoVCcKsxlyNHKR0dIB4bjuzq9HsVVVaiorZW/cyxXoVAoFAqFor/g0IKNYk1vNKKivh4pBQVILS5GeV2dNDl2JdrKyxtRVauBwfS34lRjgKa2DCX5Ocgob4bBeHKmTFZW1iIrrxy1eqDtlMzKVCgUp4I20U5oREe+urkZOoNB/q1Q9EUcWrBRrFUJsbYrOxsusbGocHPDlvR0lFdXQ6vT2RRtS5duwgcrUlBl+ltxqqlCyop/4ak7/4BFS3ejskln8j+xvPHGClzxp6X4pgTQGE2eCoWiz6MRbUFqSQk+3bkTxbW1aO2mQ69QnM44rGCjICsRwiy5qAihiYlwDwyElxBt2uho/JiTg4KKCrRoNL8omHq9EQZDG46nj/Xqq1vw8arDqDb9fUIxaoDSlXj1hS8s0qCyKMWWV1/AFx+vwhbpafZbgntvvRdLRJ5KTb5k1bJluOaMM3BGp7sG975kPteCoq3Yuuxei3DC3fgEFj+2Hvc9uBJH6jVoNQVFawnqj3yBB+/7AuuTS9Bg8u4uL68+8AB+1xn3HOFuwrMrknH46MmS6i2f4sdCV5RNvhOf3TweIT7miZhFyE5ej5dFXjI78yL8ti7DEyLOs2S89+KJZVuRLo9R6O3DVw/cghvlsUtwzkWvYk1VE2rFkd/P98P1U7V47cWVyGqyuDaFQtFnaWxtRWpZGcpbWjBjxAhsys2VIzF1jY1yMvevoV7USw8+uArrUyzrxB4w1buzZs2SbuvWraYDvzHpX2HZEzfJPFx00UWoqlImjL6AQwq2ViHWioRYK2hogFtEBFz8/aF3c4PBywv68HBURUZivSikWeIlbBIF9UT1psaMicawhBB4mv4+oTiJW+0TAOeigyjPzUQWa4A2PVCTjD0ZjSisc4YvE+70q0NmSibqMvYguUYIUdMlljf6oMkjCfMvuwyXCHfZ2bFwz0nDhg82I1Mc51Bww6EV+Oqj7/HpNieME2EuZjjh5kb5wjNjL35MK0ediLCzOjNqoW8qQVpqCaobtUeHk7vJS15NILwHTsHZjPuSC3DZfF+UfL8V234+jEJ5MmPJxO7VGWisi8CkObMxOT4A7q7OHfl7/d949IUPsVzkpdaUl8rDW3Dk4DaUj7sMiy++DGcn1aIoby+Wby6EQdOEzBWvINMtElFzL8OF80dgjM82vLn6MLJKmjAgaRimjQ3DkMx3sTGtGeVNMhMKhaIPwukyFGtpoh1oFcJssGgXBoeGYlhUFPKEWEsVHfq6pqZfijZdNZoLNuKtNzfiQE41WkzettCLeiktrQzVDRZ1YrcU4vCWvdi1vhax8y7FBb+7FNHR0aZjvxUd9e7m5TuRV+SL4Qsvxdy5C/HRRwd6vN7esuJ//8Njd92Fu+56HA/9fQX2CIH7sfB76fWvsOKQhcRtOIQdP2/EGy99hk+evwv338tzfun++dk27Mg/kTnsezikYCsRQqxQiLUWIdC8hGBrdXFBs/BvcHJCi7c3jLGxSBW/J5eXo1gIOy6JPUoLKrN2Ydu37+P99z8SbjW2Z1agSite5aYKVCavxhef0p/Hv8SKn/YiUzTu3NzEy8sNnh6uqKpowk8/JuPQtk+x4qt12HKwCGk2/KoNTdBWJmP9F5/iMxnfany3Ph1lIhe/6Ns5uwH+QmREN4qaoBQpBRoRSAii4sMo8YuDa0Q84n1ERWTQoSl9Owq8RiA40h8JbSnYnt4EnXn3Fd84xE48H9f/+c+4U7g/37kAoz1aUfZzshRKTLdgxxbsPVKP1kGLcJsIs4ThhLvj0nlYNCzAzsqnh7wEjcTY+ZfjJhn3rSIf0xGSk4+Sgzmo4MlG8UzKdmJzliucRJ5njw6XcZI2vQYtNdWorqxBJf/u8EbBnkrkpLli6G1/xi1LxPVdPwLRrnU4tD0PNS0G7PggE84j5mLhHeKabr0Y1y72wJH1R1Bc2gBtYDxi4hJwTmQG9gmBWdVg71UqFIrTCaPooDdqtcgUoqxJr0eE6NAPDgmBn6srxsfEIEj8XSI68hRtDc3NMBgMnZuTQt8ATcUBrPz2ALJEvXFCLfGaPKQmlyGnIh4X3fln3C7qxoSEBNPB34h20aY0pWH71joYA6bgCpGPG2+8UVy/G/THOfLUFZrKI9i7ZRt+WHsYRUKsacU93rRpL1Yu/w6bt+zubFfRnIPDew9g3cZ0lDfWoqa2FrXFydglzxXtlvi7Wrj6Zt3Rdk5hE4cVbI3i4bsGBUmhJiQO6uiEX4PoMWlEgXUOCEB+XR2KKivRKnpanWjLkLt7Fb58/Tk8+8wzePKvT+KNlfuwt1QDTV0xire+j5df+jeee+45PPfkc/jPa19geUYzWvTt+Oyz/fhuYxZ2HynEM4++g68+/TdefeVzrNqahc02/PJrCpG97h288qSI7+nn8M/H/4Olr6/ET+XNotdn/eLxVocicaQv9C7NSEmvFILIgObcdDjHRyIgLgaBQroYtM3I27EPiB2OoVMGItKnDNt25KFJa+gUNsfg4Qk3byFsPdxg3irzUIobgpMm4Xc3n4UR4m/zIGTEuHEYNfcMDGwsQWF6GtIOH8ZhurQMpOdWoNFoYXXrTV64BF+Iaw9vT3iJStNVeLXrddAf3IMjIQPQnjgIiYEdQUng+Ctw7a2342/XzwGrM4YnJXnxqMofjdEi0+4i04GJI5HgGYDw4grka92xf9sMhPqFICpCXHag+DlqIkYUVkDb3IIG+CBQpDVq4hAUVlSiuUUIYoVC0edoER30XNFGZIrOekJYGAaFhso6hBuBeDg7Y3p8PPyEaDsgjmcL0aYR7YN5FEYnfq8pKUNzcxkKczOQnV+G8voWGFsqUZB+BEdknZhhewFTm67bcDWpOcgvqEahyF9LRSrSM8Tx1DRkmMIeyShHvcEoO8y1tRoU5pegUnTYj6R11MM5RZWoYbXVLvKqr0V5XpbpXJFeegEqW4zQ2WwEjmLU6VG+W8RVo0VFSx1qy7JQUNmECy4chWGxAdCL9rIoKw8FItNGZtrQKMKI9oDXISJv01mme2yerbni+tm46IprMP+ca/HEf67A1EBv+EdNQKRTE9yyfupsV82EJY7DRY+9h9eXvYf3lt6FG+W5d+H5997DO8I9c8McnDnYxxRaYQuHFGyjRa/ERwizHPHC14uf9cKvlmJNFLpmUeA05eVo378fg0TvKlQIBL342UleKQKTLsVlr+3Gzk3fY8XfwlC0cxN+3JCCppixGHPz+1izYRt2796N3V89gDvO8cDry/egWWNhpWvIgTH7KxRM+gJPvvcynrhlFpJs+LnuycGr93yFkLu/wOtrdmPdsktx4chU/H3pHjR0Mbk+NCxKCE4X5JVXQafTYM/270Ulo0dwgL842gqdtgS7NxsxMDwUc86cipjIYUjZvFsIFp3t3uCRFKTp6nEgPgI0vnN3uwN5UajWBCMsVIY4FnEdNZuexI1nnYkzJ0/GZLozL8JZN76BTTVNFnM1epEXWjj3bMf2AFeURAQhTHgZjQaUFOUhYlgchg4aKKTqcRAahmBNGwJEZVIs/jzGaikEoktYJOIyitHS0CLfES8vH4RFDkBGcTkalGBTKPok5Q0N2CTahimJiYgWwszc4TPjLURbkhBy0YGB+Dk7GzUivHlotCQ9B8ufeR77dj6PB2+6CFcv+TeWrjmIuuS3cO/COZgv68TzcOVtS/Gt9QKm1pJuw33x9DdY/tkyrNr8HP40ZSpmLjgfl82YhfNk2Atw1uKl+F6IJ865XbEiBQ8ueQpvPTIZc2Z11MPX/f1NfHFEHOR855JvsfS2K03nzsechffgreQ6lPRgEmyqacbSG1/HT7s/wrtv3o3r5l+J6Td+iv8Tbt3BEqx+80387crbcK/IdB0zXbUJK/79FB7kdRRqoCm0TPfYPNtHBMZMGIS4JBvtquJX45CCzdvTE0NEr2mAEGNZQphVaTRoEmKtpaUF2qIiuCQnY5yHB2IDAuDn6wsP8XsnA0djYOIQjIr2go84Hj/9DAyt08GttAZV2jI0pn2Cxy6/GJcsXIiFf3gEf3ttI7Q5hSgRvYjOsuAXB69Rv8eF04OREOkOd1cXONvwa/GJQ8mw3+OCmcEYFOWF8CFDMCQkGrGrt+Fgq9bmS+40XPR0moEhO/Zgl6EWOblzMGiAEB6xon/YWgNtaTI26aYIsRWGuFEJiIqOwuzkTUgp1KKGGazYiX0f/xWXzZolCvoszHpciNrYGXj49lmdgq1tYCT8woVwsrX3pLiOwOn34KXlK7BizRqsoVvxPpa/9HtMD/RB5/7oPeUlfSW+fPZWXMQ8nH0JZr3igWnnL8Afzh/ZKc44DOEkKk+5kaDJr1fQcscfIh5re6VEHHdmL7Hjf6HYvOEeEYOhRWXQCsFm90RhhUJx2hDu54cZgwZhW3o6CuvqoBf1gyVcgJBcUIDiwkKMcHdHm+hQmi1skUPicP6SPwlR8Sc88uL7eP3p2zDX3RPvPNyA+a99iLdZHy5/GHcuFmLvpZXIa2qFueuXvbe5i3CrRDgNFt51Ds6/5TZccMU/8PpHH+ICQzOGX/ogblu2Biveux+PXXgEL723C4eza2Eo2Y666jI0LFiDD78Ucb18KyYFtmLd2q3IrDXglVtzEX3hA3hW1s+v4L1/jMahd3/EkYzuF0D4BHrjZlGXz77wNtzyl5fx2Zdv4tPHF8PP001a1KZeOBHnnTcSTW98gb3NOVj12XY0BiVi7v03Y5aHuL7b30Dd8D/YzLN9iDp54CyMTBqOOzWP4cO99bD7VEWPOHNPs56c2YJl61hXjgWEvRpbx8yuc16BFfy0SqjoOQ0JDsZgFxfUiV5SfXk5tKIAeufnY7g4L0EcixS9qEDRi+InHTrx8oenjzd83dmeO8MzMBi+BnGhOj2OHKnAWy9thWbUWTjjgktx6SVnY8GURAzQtMIg4uzsTLn6wNl/IKKCXCHe8y79jMJPK/wiTX6uQjB4u3nCp7IODcY2WNj9juI7Qog7TyT6JuNIVgZ2eE1HVGAYBnoBuroqlO3/GftyNuHj157BPx55Af/5YDUyavdh48EyVAnhCe9IhA+bgXN+dwEumRcL9zIjnFrdERkfLBdLUOIENxTBUCXislWyRZ7dgodgzNTpmG5e5Tl9EqaOGYhgN5fO4dMe89IWiyGT5uG8C+Zh8cRg1O1vlsMQoRF+nUOzv5qGejS5O6E5Iggh4s9jeheshOtrUR4TAg9vD0hDukGPtpZm1Ph6w0W8Q6f/1xRtw/JoqzxZO3vKoKU73nLOOUK2jtlyJ6susXT9PY2+8jy6wluIsISQEESKev9wSQnSKivl/Cnuv1YhxNqu3FyUCf8wkcdIIe48RHjzlxM8fXwQNWQQAgIHYfiYSRg/chD8nRuwaedP+OGrL/HV8uVYvuJ7rP5hG/ZvOIQyrV6uTyfVok60FW7fhhTkiXCBQyJEPTwIUTFJGDNtFlzjFmHy/DlYsOgMzJ4zGbNnxqJ91R7kFVWjStTjQXGTMH3WGZjJOnj2JAwK8oFrZTUa9TrsSN6CNau/xbdM5+sV+Or7Ldjx415kVtZ3K9hc3VwRL+ry0KhBiB8yBlOmTcCUERFwd+uoPYOHjMOkuZOwcMAWvP2PJ/FJljdck2Zi3uR4BIlz99SNxODJ02zmmfON7cIzCFHxiVgwcQCSf9yD3JITu9jht4DvLN9DRysfzhRNp8J1BwuXp4cHooUomxAZiQHNzfAuLUVAWRniRaaHhYYiKiICIZxoKgpkV9/sam8zoqm0CDXBPnAJDoC2og1rdrhjwtU34volf8atVwnBNi5cWqWOxwLkpq2Dd8VBZJbo0NgqbrgQGHWtjahNiEa4q0sXq03DEZfoj/CwImwQPauSQWMRGBCMQGjRWF2MzN374TEwTIgTI1pq2uDs6Yehkz1wcG8miqsboetcdLAEd97xR9w8Swi1kkyst1jsMDKkBE05yVi37tgFEI1FRSgVvVLuANL9VIie81LSNhBJXHSw5A7cefM1uGGcDkW7D2FncpGM31mIZR8/f3FePWrrGzp7qd0REFwD3+ASlIhMi/cdmoJcFLe3ojo2HANcjRiQkIMmbTMaGjn1QtzrnCPITIiEp583AsT5Bk0LGsuLoI+JgLeP18lZ7esA2CpPp9I5Yp76s+srz6MrXJyd4eflhZGibXASjWOWEGwpwpWIdmKv6NQXFhfDWzSCCaIzHyzaEH5XlZ/16Qq9hzNqg9zQxg5iTQ1qWtzhGRKPWbMSEOThItuHnsO5doYjbS4eqI2YhoEDQ0SHXLQV3r4IihKd+8wiNDS0oE7U4wExIzEmVhzjiT6+8PX0QhDPFdqqNsQDel0LNEyn0QiNWxxmzkpEbKhvZ6f6uPCMRNSgBMyf3ohNH36B/dpQuEUPxiDR4+0xz6Yo7ME7JA4JUy/FsIbNKCwpRyEnop9G2HofHcE50zrVk3M39VBsHevKsYDQUmbrGB2HMc29Hlvw+1peIkyMEGVnx8VhtBBqo0T4sVFRiBBiLSwsDP7+/p1560RXh9rSPGSkpuLQoVRs35KG6lFxCB8dh2GiYQ8ZGgnfxhyUZKci5UAKUtNFb0yc1mld6wWBos8xvHU91v50CLv3pGLfjhQcLm9A+8XTkOTlAc5Ks0VEXBi8vT2w8Z2NGDBqEHxDREhjLaqrinAwyxUL7nwJ/3qdq06Fe/1ZvHTHHLSlHEBBeTWEburA2QMIm4Mr/zAM4foj+PblL7EmoxBlLUZMODcCvsYsbPrgc3wv7kOKcKnCbf1pIzat3drz9dqRl9LyGjQyLx5h8Bs0D3ffNxA129ZjxUdrsS2/HA1trggRvazWnHwUZ+ej1GLWqqGxHGWiUs0rKkNTYyly0o+gqLIRIcNqEDs8E/u+T8XhlFTs2piMXI0ezkOjEONlwMyL81FXcgTJW1OFaDyM3VvT0Tg8Fv6BPvARV9TcVI/i/HwkRkfICr2vwnfeVpmydj2VQWt3Msq5tVNpqDTscUyjKxiXqzgeIur/Sdw2Q/TutubmYp/o1O/LzESw+HtIUBDCw8MRKjr33t7ex8YnGj606qA3LbJy9gxDyPALcOdzr+O/y0x13fsv4tWlV2JCoHfnNJGuwr0mws3ghHtTOEm7ER6aSjQ1a9GiE2LIoIeupQkafx+4ufVg/RfCySNyFi6/52k8/5Y5nbeEuxUXjx+ACFOw40Mn1zQ4tQ9AdOIA+Bs00IsecKOon51Ent2PN8/WiHbBJ/YMXH9WGaqLipGa1dRpqTwd4DvL99DRyodDzmEzQ9FGc3aUEG1zk5IwbdgwxMTEyIJotqzxQo8h92t8+o8/YNGkSZg690Jc8NUILJx7Jq6cNRADfbJxts8/cOd5szBLHL/q2eVYWR4lV1JaT1y1hyGTB+O2Fy5B9YuX4pYFkzDvD8vx7eER+MeSyQjgmGxXDIxHVNICXOS+GPMmeyKE3aqGAlRVtmKP+604f7IvYulHgkLgOW4CFmftRE1OFQo4u96SpMtw5RWjcGHID/jLgnvwfnIddFOW4I+3zBJ+n+NP4jpnCDdJuIvfWINPMbrn67UjL745ldCY8+IuqrTJS/DQDb4IOPQOHuUXB6rdoRk/AzPqi+CTkYNUi30bqzYtxb//9gBufOB5bN30D/zfWbNw35ubkRe/GElJw1H1p0lYNEO4ezLR4DIGN1+WJJIIEEn8A0Hr38YbF0/CrAsfxt0fDcU9N07DqCHyBqKmKgf7tmYgSoh5H+++K9gUiv4O633W/2EBAZgmRNtwIcoOCbE2TnTUuGqUnXqKNR8fH9l4HtNO6IVMSxV1XEOzXKzk05CN8IOv45vtzSjqZr6VveGIq74ZcWmvY+fObCQXckpwFfJTdiJl/gTERIVggCmcLazPPbEUIutQGt5d6o8HPvsHzqo+iOIf1mOTqJ9dRLrx3eR5oCkGe3Hx8kb0hVfBa9delG/fjlyTv+L4cWqnna0HOCeCW2fw5f+FQOoCjUbTIbgsFwRY0NjYiP/9738477zzMHToUJOvbZhFjgmb5zUwXqpYW3nJTU1FZXU1tPzDWcgSnxgkDhI9LX9PtDfXoLboMHKqO8qsBxcseAXCtc0LcYlhKC+qh4e3Gzy93MTvddLPy63DJN7Q0IpCKz8YW6FvrkBmWjHqdQYYRF/MLyQS8SOiZG+razWsQXNNA8oyWxAoekz+7q5wMzSioa4RhRXOx6YBPQy6ehTuL4Nr3EC0GpzgrNcjJiEYvLO8A7RYVZWVIbfGDTFJiQj3cYNrC/2KkFlmMXvANxyuXiHwbzP88jo0NcjMB8IHBCPQW4+WHvJS1eaD4AGhGBB7dM6ariYXhSUNqG/3F723OIR5NCD1f4/jndwgNI27Am9eMcwiXCVKauVTkgTFjUR0mJfslRYdzpfDqkaIXnJcNGIGBos7y2ffgNLUPJRVN6IJnnBzD8Ugcf+CeP+KNuLnNWtx39fAIy/+BbPiAhDyq8YOHI/elBnSUxm05njKeU1NjWw42YGyh5NRl1jTn9PoS89j8+bNqBZ1+VVXXWXy/SVsG/hVHG6SW1FXBw/RRvgI0cbrp2XtF2JN1HUt5en46qHr8FmhG9om/B/mTh6HOfWf4dll6agUdVwb6w2/BBijzxF1dCUee+pcnDszAR7Fh5D23au/CBc05jI89eB8DGn5CR99mIt9lQm4+/HZwJp/47V392N/UQO0Tl6iDh2CBS/fh6tHxWDDp3uxL70C9z13AWJFNK6lK/B2F+ca2Pd09QYGX4m/LDkbc0Z3tC82MTQDRZ/g/n81I2zCVFwrOrTu1c244YZPcN398+GZ8T32fLcbzfP+hjuuCwR++h+WfVuF1OCZuO+peQgU6b7RRZ4Hd36lpoPX7rkFH32zDjn6eIyYdCnu+991+PK5n5E4LFymG2Wus79+Ef9cVY/DIfPwto3r7bwHjPQUY13HOlr5OC0Em+L0pTnnOyz/dh3WZLpjyOIbcM9ZCQjwOvFF84dPP8HX6/ZBP/P3+PtlwxAjKpc+pteUYDvJAqEvpNHfBBthE8Y0OHmbnXp25nkPuurUG7XNKNn9CbZmNKE5eByGJQ3FRP9CrF25D8Ut2o7dAjxD4BQ8Ss6DnXXGIAyKDoCnvh6aqiO/COcdMx7nnzUMoW2FyDhSjwpNACbOGADfpnRs+2k/0gur0SgklpfvUMy+ajIG+ngg93AZKmpbMFHEzSFXZ24u2+W5Ahdxr0MnYP7s4UhkXuhnC36dRpy7Za8eXuFRGD4yEi6tevz0UzqGTxwAQ0EaSvIq4DHzAkyOBjyqD2LHvirk6UIx87wRiBbnbu8iz0IyHsOWFSuQnpNzTLiC/cUICfKW6XbuqFYh0shsRnF7JBbYul6znwx8alGCrYtMK8HWX6hD9saV2LgrGwcGXI4nLkhEoPeJl1Jff70Ru9JLcfaNV2J6CDfQNB3oQyjBdnIFQl9Ioz8Ktv5FNYqS05B+MBclJp+jeMDdMxxJc6ZjUJAHfB3BZHWa4eiCrQ82awrHIhCDZ1+HG+57DEuvHHFSxBq5+OLZ+OeDV2JOWN8UawqFQgGUIWvzSnz2zDN45hfuRbywdDm2FrWgrmOnCEUfQzVtCoVCoVCcFiRh1i3/wMv8Us8v3M/YsOZ53DQ2EDFqzVWfRAk2hUKhUChOC5zh4uYOD29vuajiWOcFLy8PuDkf55dlFA6PEmwKhUKhUCgUDo4SbAqFQqFQKBQOjjOXQffkzAtJbR3ryvEcOlvHzE6hUPQeW2XJlrOnDFq6k1XOLZ1KQ6VhjzOfo1CcCqzfQ8t3syd3MsuHU2NjY48lw7Lw2Lu01XxOV+Gbmprw0Ucf4fzzz1fbeigUdmBecj5//nwMHjzY5Ns1PZVBa46nnLe0tMj9ruxdwn4y6hJr+nMafel5bN++XW3rofhNsa5jHa18OBkMhqOhu4BfGdDpdPJbVvZmQn5Z3tlZ7glkC96YZcuWqX3YFAo7MVcm55xzDhITE02+XdNTGbTmeMp5XV2d3E2eH9i2h5NRl1jTn9PoS89jy5YtSrApflOs61hHKx/O7I315Jg4sXWsK8eE6WwdMzuFQtF7WB5tlSdrZ08ZtHTHW87tzQ/dyapLLF1/T6OvPA+F4lRhLkOOVj46QioUCoVCoVAoHBYl2BQKhUKhUCgcHCXYFAqFQqFQKBwchxdsXEHR1NKCHampSMnJkb9zkp5CoVAoFApFf8GhBRuFWX1zM1KLi1Hv7o6C1lYkFxSgtr4eer3+mOWwCoVCoeh/6A0GlNfUYF9GBuoaG1XboOizOKxgk2KtpQV5VVWoamuDW3g4tIGByBKiLaWkBDWiYOpOUcHcuHGj3EOO7uuvv4ZGo5F+69evR1FRkSkUpH9aWhr2798vl/oyzPLlyzvPtXTW5yoUCoWieyjWqhoakCsEWz7r29JSlNfVoVXUt7+2bdBqDaLOzkZBZRN0Jr8eaSxGccr6znq9uLjYdKB/USnu2QZx76rFPTSY/BS/HocUbNzRt0EUviJRCHNFYQxKSICLnx/cIyOhj47GNuF/pLxcirZT0ZtiQbznnnuwZMkSvPTSS3LvlpdffhnPPPMMNm/e3Jkn7om0atUqfPLJJ3JDy88//xz//ve/8fjjj+OBBx7ArbfeKn9/8sknZZjMzExTCgqFQqHoDqNoJ2qbmpBbXY1KUd8GJibigPidoq1C1L1ane6XbUObHsbWWtE5rkWjRvxu8rZFY6MWL7ywHrsyKtFk8uueVjRlbMWWD1/CXx59Ek/840lkZGSYjvUvMsQ9+5e4d7niHmpNfpZUFBUh+8gRHDmSjcysSjQY2lAq/PILy1HRZCHxDE2orxHPK78MpXlHkJHOc37pcsrqUK/p+1OlHFKwNbe2IksUurzmZsSMHAmDmxs0wr/FyQmGkBA4jR2Lb0pKkCLC1IkC+1vPaXvooYfw5z//Gf/3f/+H77//HmFhYUgQorJZ5Je7c5eIvFnnKTAwEM8//zx+/vln6SjuZs+ejbVr12LPnj1YunQpzjzzTFNohUKhUHRFmxBijaK+PVRQgCZ3d4QOGoQ2T09ETJyIZNF+7BGNf7UQbQaD4VjR1lqMutRPcO+fP8HaA8VoMHmfGNKw+ftk7N2fiEdW7MHmXXtUnd4FS+++G+dOmoRJk87D/MX/wXeVjXhM+N2w5N9YuqnKFEpQtQnfvv8JltwgBPD/TcIZ03nOL91lT36Fbw+d2KfpiDikYDuclyeHQf0GDIDG2Vn2buqFqzX91IgC2jZwIA6K3lR6cTFaRQG15N1338WcOXM6Hf/m0OTKlSuP8adI4k7a9fX1ePjhh3H77bfj8ssvl8cuuOAC/PTTT6itZarHws++cBdjOm9v786N8saMGYMhQ4Z0DpNawuPcyZjh6fg7N8Lj7z4+Pp1/KxQKhaJrDKIzXNPQgL25uXAKDYV3RAS0op3QiDq2xdUVTkOH4oiXF9YKMce5bdxFvlO0iZ/tbXrRZuhhbBO/d/ieGKorUFXbjlq3KMQP8oG/n4+q07vghjsW4PLrbsCC82/Gix/cgNkhPuI5joFXdSFat3+O1WWinafNo90gR6yCEifhypdW44tvV2P1+6Ktluc+jLdXr8YK4V5fshgLh/l1RN6HcRJipcd3lkOU7KlQoFB42APDm3f7tQW/Jfrxxx9LYWT9aap0UdByxfEmX194xsaiWcRTJ/zrRT6axMPTcNFBejqGtLRgfHg4kuLjERwcLM/lEOSOHTvkEGSsOJdMnz5dmqY5l2ygEHqkQRR4FuKkpCTMnTsXixcvlr0hWsoo4ApEHjik+eCDD0oFb0lpaSk+/PBDVFZW4rnnnpN+999/PyJExUHRRqvb1VdfjYCAAHzzzTfHhCM1ohKhle2DDz7A22+/jVBR6SgUPWH+bMq8efMwaNAgk2/X9FQGrTmecs6OCeN3F50oezgZdYk1/TmNvvQ8WI+zLrb+NFW18EvOz4dW1K9eYWFoE+KsWfjTvlIr6vQGkV5dWRk8RD09QcQzQ7QvwSIsP9lVnbEdW5Y9hIe/BBImDsaYeedi+uTxmBuUgc/e2YicplZoEIjIIeMxYv5cvHLvJ7jxwfmYNzMBwbpqNJfs/UW4M684D+MDgd2vPIxl767DjnofjLh4PKK9AxDd2gydUS/aryB4+4/DRXfPxzB/LxzemY8jB3ciymcnNqYAQj8idsJCTJl9NmZG64C6/Vj12SbszyoT53rBwycBc264EhOjfRDSzaNtbtbgs8/Wwb35ACrratHsPwRJcxYjZOc72F3QBNckUxodTaO4aYexc91WbNiSjgrwU0qjsfCGuZg4MhqNh0vw0/J9mCryPFjk2RdVKDmcg13LKzBY+CUgB4c7z+W7EIWpl16EqWMTULQ/F08/tw6Pv30VkkJ94CMTs6B0Bd7+MBf7KhNw33MXgNl56P6PoC/dgsiRwdgz4Hq8fnE8Quq/+0U4VxvnujLOE4B1Heto5cOZQ3c9OUZIccOfto7bcgzbXXge64oBQoRFeHpCL4QNxVGtuBgp1kRPSSP8DDk5CCsvx0BRAINEOEs2bdokrVZ33nmnnGdGR8GWl5cnj1FU0XEYk3PGNmzYIK+NKp7hbrzxRtx111248sorZfgckRZ7aPbAYU9+MJaikIsIykUeFYoTjb3lsKcyaO0YtrflnPAcW8dsueNJg2F7G76/ptGXnkdXcDhUK+prvWjcWsTfjeJvOQLDn8KxnTAIZ2xtRa3odLc0N8s4iVG0JRouWNM1or62CtV1jSjMrsDuz7YgpaAYhaLOLi84grSDe/D9z1mospg0X1dU3UW4bBmuoaFFiDgR3tOIlrx8rHnjTXy3dj8OZJWjODsVqZtW4KMd+Sisa8WhXfvw9acrsSVDHCsTcaVuxoaN27ByVxFqW7TYt3wbDh7KQg7TKc5FUfpOfLcmDbkV3S+A0DS34ttlq7BhVyoyjuzFgY2r8PZHa7Ezowj5h4+mwVErWmoyfl6DjT9uxvbUcpQWFyJ760p8u+Mw9hc3orE8H8k/vI8teS2o5iBWYz7y03bhvTVZqG014MjPKdi/7TAymcfSYpRn78amzSlIzqySU5h6jx+ik8YgMSkCuv2fYn9hC8StOiWY39XjfXd7G97eNFyeeeaZx7xED6U7Z1Z+/v7+No/bcgzPoUN+hLir47R40boWEhJiuk0duDg7w0uoU4NWK61tTX5+cv5aa0MDjKJn5S9E1HjRY4oJDZWWNeaLeSQcxoyLi5MK2ZKtW7fihx9+wN69e6UQ27VrF8pEL4wqml/m52IBWtk4pMl8c4iS1q9p06ZJP+bZDK2DycnJ0oq3YMEC6cd0aSmbMWOGtKxxgUFUVJQccuWQrTkcYS84NzdXxnHhhRdKgalQ9AQ7Dvv27cOoUaOk9di6TFm7nsqgtTuecs48MQ2+87aOW7uTUZdYu/6cRl96Hlw1z7py9OjRphLQgbvoqPuLMGnZ2WgRcWtEXd0g2guKtWZx/ZqqKriINiJC/Bwt2hZ/0X4wr7Sw+Xi3ITLWE9tSx+KWv/0ZN101B/7ZZVj21w0Y8c/bcP45C7BoYiC8tZX4eFkhitva/5+98wCMozjf/nO96NR7b7bl3rtxp/dOSEILCQlJSP4hhCQQ0giQQMoXUuk9JjYGY8DG2Ma9y12WbKv3difpej99847ubFk+SSfH5STNzwynm52dmd252X2mvYPFV45GQVYsqrdXBQ236v1mTL1+HGZMZs/2zixo0q/FY7/9FozvrkT6A7/CVx/7CR65NgMFsvX4zVodpo2i3qstOFnRjNzvvItfPXQr7p7sQ0W1GfuqJZg2JRNvfG05Yu+4FlfcdytunJ2PiWl6LHutHlmTs5GRHXd2j5UfGxONq1/8GKMe+CG+ess0jLRX499vlWLB03/Bt+aqYWBCjNJYckUBk0fAe7/4J6rUE7H0l3/Cr+9fhIUx6/DuXik88kQsyG1BlOktbMDtGJ8ShYTmfThSVoYPMxbj/+ZmYs1T69Ciy8D8n9yH2+fPxMJxHdi6thVOmQ7qpEgc2VGJxTdNQKJWibM6BS0ncPBIBxptsZjH8hLFvDauP4GI7BGYPTkSBcf/jFXWa5Gto8UGJjR1CycNcu75mtvV8xkbbvUjLOew0WaokRERKEhJwWImejoOH4aRCTVXaSliq6owk4m0NOqFS05GbGwsvzn9QWFpkcC+ffvOcH/+85/9Ic4PJPRoWJXmwdFQKA2tCgQCgeD8IGfiLJa9DOewhrmdPV9rmTN6vbBS71l7OzxFRUhjDeXxMTFcuNIc4b6Gp6xowpHWt/HENYtwBU1iX3I/HvzpezhWXINWt/dUj1Zv4Y4WV6OKheveGeRV6FA19tuYNSsfkzLZeyEuAVkTZ2H8xv2obzKgNnkuMqbegttnAEzPAIkpSI6ORS6dy2Kqwhr85Ud34xZK57IbsfTev2Pr9mKUM0FGvYm9omDvwrELMDaPpZcZi6j88Zg8YQHmZqkQl3k6jQBNObcgc/pcLBkDyJQqpM5YgDEnmuAqqUJTfComTFuKjfuPosnQhtqqdrjanfg2y7SOZboJu/Deyz/CPZTHWZdh+g1P4+0VO3GyuR2t/vjPhbjMfEy59l40rtqA6pqGvq93mBGWgo2gChap1SKPCa0bmdIdwVpLo6xWTElMRKp/WJOGIEkgBXa7D0C2b3oup9az84uLi/kwKM3vIPVLjs7vCS00OHr0KO99y8nJ4co3VEgpU48Z9ZzR6k+ahyEQCASC8wM9Y5UKBZJZw31WejqSLBa0HjsGe3MzfIcOYZTLhdHsWAp7RySxhn1kZGTf84kisxE194f4439WYuWnn+LTz9Zi7efv4sMVD2FuQgTvieL0Em4VC7eUhYvxB+tCAp9UycSlFOw/lmcppDI5ZB4vOn2d8ElkkLDvikC22DV1/WMotPAV3INH/vga/svTWYPP1nyCDRt/jvvm5CGdn9AbLAapjI9S0WtRwv+WQy5lcZMLpOHHx45J2L2R81eoBFK5DFKWP9AwXVwGIqfcgHvqD8Nh3YkdbTI0dEzAnEwZlCzfvqxrcOP//RnvUB4//QyfrlmH9eufwxP3zcFIHvu5IdGkI3rEdfje7L2ob23BUWGe9BRhK9ioUlIXdhRrHY1NScEcVvmmpaYiPy2NV8KAWKOKSGEDkKkMmqj629/+Fj/+8Y+5W7duHe/1KigowLPPPouf/OQn3P/pp5/mixRobLi2tpbbUiN/Mtvx9ttv8/ls1DVK+ejOihUr+Hk0T43sqNEChu5Qnmg4dObMmVzwCQQCgeD8QY10rUaDnIQETGLvgjFMpOmqqzGaPctHREcjg70jaIoKNbapgX5Go97jA2pbYbQ5+Rw4lduMRFMlnHHTMWbaQv4OWbhwFubOzkO8komqrrP6DJfcLRwh9TqQVLsOJ082oUoPuCxGtFadQPWkfMTFRqKvZWZSnwdJHScAbTbSxgXSuYy50ciOj8DpyTn/O7Ete6AvO4EjTBT5PG60nTyGuvQYyDOSkaGIgjphNK7ML4f+0G7sa5LAkDkO+WpAzl65sZZqKKVaROQH8khuAkZnx58WueeCTA1lTCZmXj8RvqIS1Bw8jhb/oeFO2Ao2goSYgomlaJ0OYzMy2A8hmwshmrdG47k9xRoxb948TJo0iU/iozlq5GjOGa30vPnmm3nlpd428m9paeGrQigsLTqg1ZvkTwKMBCH1kqUxgdgTGuem8W2af0dxkOCbMmUKX3DQneuuu44vXqBj3aE8ZGZm8lWpoQznCgQCgeBMSITptFoUJCZiDhNnE9m7YDJr2GezBj4tKqNnOD1fzxBr8gjIIzNREHEUx7Z/jM8270eDxYx5I1qw76MPsfLd/3DrBf/5YA0+3Nq1mCCw6CAp2hNSOEKt8GHJRDMaCjfi43f+g/feX49Vm0xIvXkG8rPie/TGnUnPc3k676/Af9YVoWwguy6EwPQRNshaCrHmLZbGspV454Na+MaPQP6ULCQzCapQRmPM3Ai07G2ByaxA0szcU3PGzjiX8kjus73YX97/ooNDe8tRdGg/Skv24/OPDqHa7j7DwK5UoUbU+KsxLkrB0jOhze8/3JH9muH/u1do9QItOyWh0VMg9UZgaWvP3qkAgcl9wRYd9IQqHKVNPWrkaJIe+QXLCx0nwXbbbbedcmPHjuUij3rZuvtfe+21fEIrLQqgRQdki41WiNIxElskCoNBCwsCcQTCUTw9e9Nofh310J01aZZdCwk+ikcINkGoDKTOEP3VwZ6cSz0PmJEI9Xd8IZ4lPRnOaQyl8qD5v8EWHXSH3gO8Uc+EWyZ73kayxj0JNRoGPUusEUywSTUJiLG+jXUbd2BPXQTixk3CfdfHYNvLr2L9pvX4YssWbNlfgT2N8VBpFFi4kAmY1Cgkx8kwYpzirHCH2pJw2YJ8xKGF5dkNuzQBcxbnYc4sHUo+X4P1H3+EdYXNqHYswKO/vh5T0qLQWGGA3eXF9Hm5vDdK6qhHRS/nfkbp7NiHLdVxGD0pG9ksL2dP5OmCttPat68GE2ZlIyveDXOLEScbdJh3BXtmdMtfIN0RY5RorziEje+8g493HERh9XTc/tC1uGpuDheVEmknIiLd2LtRitSRBbj8pjFI4ikB+d3OXUV5JFcmR0RqJlKSdGgoa8W8y1m67B52730k3vnr29i6cwfq29px/KgUo2+ejOZSPdJTojBmbAoiuJmQJOSnOGFQxMCqycQVQe7VqftHkZ4Hej5jw61+SDqpe6kfKDISNTR5M9RMU0WjytLbgyNg7+T666/nN+dSQj1uNPxJttSoh04gCEcGWmf6q4M9OZd6Tr3S1ICiF2QoXIhnSU+GcxpDqTyoEU2r7HvaYeuN7q+yPtNh4bxuG1zuTvikZABdDoXECycZ02XHeCwSJgHYMYpFpZQxESxlL0sfOn2es8JJZAqoVXImGrzsWlmcnRIo2Dk0tOlyuuH2svNo7phEAZVWARnLm8ft5eZJFEo6j0EGYns9lyfE86Ni6dC8uN6uju4BiTa5guausfjY+W4PoGTnSc7IX7d0XSwdyg+PVQalWsnEhtQvgljqPC8+musDeeA84oxz/fjvp0zadY08XXa9PfPrYr8H2ge2+33xsvBSFpbyfiq8zw0XyzM7wsoh2L3qlp/zQM9n7Ln+di9U/Tif1zpooZVEzzzzDO8NEwgEAsHggwsDv+sTdlymjIAmQocIjQpKOS0AUELNXpgR/sVouggtdBoFO644LZC4ODs7XIS6S4RJJEz4MbHcJSzYGUy8KDXsOA/LzolgQojCsagUTJScEiBEn+d2nU8rMxWyMux+8xk8vngxN/h+prsRN9z6Cywvs6HVzWKRMNEmZ2KS5Y+E0Jn580N+Kg20gTR0anY/AmKNCOSF3aee4uiMc/1Oq4KKXRvds1Pp+oN3R6lWn3VfKF90X84IT2krldD0eq+GF8PteoNChU9ijYSbQCAQCAThSTSSC6Zg1vXX816gM91VuPrKGRgVp4S2j0WxgsGLEGwCgUAgEAwKkpE351rc5reAcKb7Hr7/8M2YnaZBdM9JY4IhgZQmvPXnAnMDgh3rzYVyjkAgGDjB6lIwN9B6e671nFywY8HcuaYxkHOGexrkgh0L5sL5OgSCS0XP32H332Z/7kLWD4nZbO63ZgQiDHXSHdHfOWRq47333sMNN9xwyRcdCASDgcCEWNpKracJmWAMtN6eSz2n7dkGsirxQjxLejKc0xhK5bFr164BLToQCP5Xej5jw61+SDy0bKQfyM4YLXclkxmhZsLpdPKVEjQ/LBh0Y15//XU+9i4Em0DQP4GHCZmjGTmyf1vi/dXBnpxLPe/o6ODL12nCcShciGdJT4ZzGkOpPLZv3y4Em+Ci0vMZG271Q0qtsf4cJU4EO9abo4TJBTsWcAKBYOBQfQxWn3q6UOpgd3eu9TzU/JC7UM+S7m64pzFUykMguFQE6lC41Y+ukAKBQCAQCASCsEUINoFAIBAIBIIwRwg2gUAgEAgEgjBHCDaBQCAQCASCMEcINoFAIBAIBIIwJ+wFG9kccXk8aDQY0NrRAZfbzQ3ICQQCgUAgEAwXwlqwkUE52slebzTiUHU1iuvq0Mr+drpc51e0dbK43CboWzvQbnLA4/fuF58bXkcHGho6YLGzv/3egt4g+e2GVV+PhsYmNBidXd4XgIYGPRpaTbCGXJgCgWAwQu8JasibbTZ4vN5ThkgFgqFGWAs2qnwk1vaWl0Oeno4WhQLbT55Ei8FwfkWbz87e8Kvw4h+W4Z2Pi6D3e/eLox4dJcvw4x8uw4bD9TD5vQW9QeXVgK0vfgePPPYUfrS8pMv7AvCjH72IR174GFtDLkyBQDAYcbB3QWVjI9bt3YvmtjY4nE4xCiMYkoStYCNBVs+E2ZH6esTm5UEZGws1E2325GSsr6hAbWsrbHZ7yBVz7doS/PWlnWhif5/VE0YNsk4XHHYXS9fDv4YEa8l1el2w2VxMXLK//d4h4WiE8cRK/OLnK7GlqBHmLk84jCew5hc/x8otRSjhnuR3jPndim888if8jV2HgYft4qUnn8RdS5ZgCXdXMvcw/vRp4NxunFyFt579jj+c3/30Ldz11Pqz74u5BEVbVuLnv1iDE0aWvt+7t7wYWTn94o47cNOpuG/CDbf+Am8fM6Lx9MnwOsxoWvM3vG+bguyFd+IX13bfXukkdq1dj/fPyAvze+tZ/JTHeQ1zz+KtXRWo58c6YDFswEt33Iy7+fHv4HtPrsJBdsTF3C/ujEY2qvH+il7KXCAQDHpsDgcqmptRZbUisqAAW1nj/iR7Z5gsFm5BXiAYSsh+/vOf/5p+2P056mYmF+xYb47Ck6AKdszOxNahQ4dQwCpZfHy8PztdcLHGWkq1ZjM6mVBTseMuuRx2hQIWpRItLM5WvR5aqRQRzE/BjvVnGdvh8CBCp0J2dhxol70zQvvcgKkI63e6EZGagYlTMxDpP9Qn7g7Y9CewejMwaX4BcrNiofEf6pdOB5zmemx7ewPYTUBsegoSOg2w1O/DG29XInbqFOTlJSPOR367md8elFYYoGWiNXX0aKT7twpcvmw3LPIITFk0HePzczAy0Yrao3Z2v7RIKkiEzmVFe+F7ePvdAzhk1iFt2kRMGzmSb7uhNdpQdrIVBokaS64oQBSLjyt4azlKj5Xgg/VOzL1+HOK1SijJ3xU8L9EuB1759xYkTx6NSTMmYmxOIjIiTDi82YrovATEpURCCwsTe8VY+8xK1I+4FpctmYelI6LhC+Tv/RV4e201GnxJmOfPS8OOl7HvWAsaddMweUIGEk0HcViaBHVUIrI9FTix/h/Y1D4NGWNGIy/SArujGbs6c7AwKwo5yT60VxxB3ckKdBYsxUgWoSLsZ2z2DW1fcuDAAeTm5iI6Ojpoverp+qqDwdxA6zltw0KQte5gx4O5gaZB7kJfB7mhkMZQKo/a2lr+npgwYQK/pu5QXNSzRmJNz8JK4uIgY++KDuZPc5197Fgke1co2fshYEn+UvDZZ8Vo6LAjLj2av3cuGqZi7N11HHuPWZE8KvHsd14/7P3iC/zn3//GqvXrsd7vivWs4RubD/Z47YYNbVX7sf3dl/DmXi+0SbGIi9HAXFWM7W89jzdXrcfadafjCLjDpigc3FmILcteOyON9ev34kilGbK8UUhimZZd5A0vgj1jz+W3S+EvRP2QUqT9uUBkgUyE4kIJ3xsNBgNqjUZY1WpoU1LglMnY6x4wM1Fmj4iANyMDRez7kZYWHpZu8mna0FC0G1vefx/v+92WogYYO5WIiVZDzkLw34C9HhUHtmANhVn+Ad7/ZB+OtxhhZ4c8Vj30x77AqpXL/XGsxtpNh1Fh8cBjqcDhTWuxmvw/+AQfbShCvdPNe3U4Hiuc+mPYtmolPux+rpUd6t4Fp4iCMm4U5mbWoLFVj+pWFoPdCE9zKcpTZiIhMR7JanaO2QBj+UGUJV2F0fEdUJjKUFRLufQTNwFTrvwqvvPYY3jssUfw2P/NRVx5FeoOlqOZHfY47Di5bhV21GqRMPN2PMLDdblHrmbiLU0d8py9XvMiYzUrZS6uvPtb+B7F/egDeOirBbCv3oXqmla008mONnbL9+PjogSMzMnBhNxYHifNH/TaDGitqkG9voOV3mmKP69EuzQPMx9hcf7oYfzfPYmwVdfgZHEz6qtMKFxZjfg7H8Tdjz6GH317AeaNcmLXpyVot7vhSZ6ACdlajFOVY1sJKxP30JnXEmo9PNc6O9BziGDHgrlzTeNcwg/XNIZKefQGHbczYVrd2opmGv6MjOSNejcTZ+rMTDSx74etVhSz94OZfV7KeW1Gox0Wq+vi9/Bby3B03wFs2FLGp+oMdID46KFKfPbpHpyoq0MNc3Wle7B7wydYs2YbDrMXiztwQa5WNJXtw6plH+GjZauwr6wJ9CrzOB0wt9Shvr7r3K0bNuLjbvE1tVuxZ2/5mWlw14TmViNsLP5L+cQO/FYDv9vA91DcuYYP5RzZ7373u1/TJqV9Oeq9InWn1WqDHg/mKDztfUUbmgY7TomTkqWN33v2sB2trISJzk1NhYuFZVoHRuba2QWZ2Hl2j4fH72xqQiT7nhwVxdMhrPrt+PKNN/HaC2/jv9s2YdOmTehImo09hWaUHCzD5CsKeO+ZuXg1PnrtDfzt78uxZtsWbNpxBMcdORgzg0SMGc3r/oIn/roSa9ZtxKYvduNIlQ2O0ZOQVfkeXv3zW3hr2Wp8vm0Htu2vRLViAi6/aiLGZMVC2laL6i3v4y/PvYSVn3+BdRv2oajaBsnoGRiTqICKNRm6Gg1yppal0Jk+xyeGPGiiUjFFp0d70Qasj7sBSyekIz9GCkv9cZz88mPsH/FNXKbbjjaXFLXS8bh8HEuLxbJh/QlEJET4ewWZ9JLWY9/HLZBnZmHUgpGIMtnx6V/XIu3ee7Dk6pkY33WbOLH5+ayCmNFaUY2sMdFwt7Whnbm2plIcP1GHfeWRWHrTBCTyHjZvr3mZmxuBT1YXYdK8vK5eRgm7V7YGbFvWguzrpyJvZBKi9ZUw7P0Mz7ZMwzXXTcasvGhQViRyFSJy52LBlChIbSpYbLGneti++H818CbmYOotBUiX+hChM+HwRisiYxLYbysWu18yYsbPFmFUghqxKivMeiuOb7Bg8s0TEB8RjUhrDfRWEzZYxuLmCdGIUA7uLrZA62/MmDFIYQ2ZYPWqu+uvDvZ051LPqUeHPiNYQ6rnsWDuQjxLerrhnMZQKo+ampqgPWzUs0YN9WNMkFEvvzIujje0qVFvYmk5oqNRb7OhpbkZiex7pEZzahTGzhpzLc1GeO0NaNGzhmJrG8w2JzzKSKhZa95r08Ogb0ZDkx5tbe3MWeGVKyFjeZJ67XAam1DT0Ao9S7/N5ITDK4VGy47BAVMDEytNLWhhz9AOowkueSSyMmORnxUDhc/L0tXDbmqGnqVrdvrgZu8xR2stGlge7OxpKGPpKLtvsc0a/yaDHk0Ub7e8WO1emFgabvaMbWhug8HQBpubvVUUGn4NhLVuH3bvq0GFXoo8ele43bDo2bUxkatvM8No8kAeqYZcKgk6L+rgcfaOjZ+E3730JB64/XbcuSQbKN2JXet3o5Q12GfmKaBRSODTs/dmcQlWFKdjlqQQnQWzEJeahbHZ6Riz9HbcdOvtuH1hPKSd2dBmXHcqvmum5aG9RXpmGszdfvu1uHLBBLBXCuQXuXeN6PmMDbf6EZZvsIm5uYhgF1Bx8iRM7LOD+QXEmtXhgJ1V1E52U/PYzU1kFdHNfowBtr74MopcWVjwbiEKC7vc3x5agPlZ/gB+lj/zEYqM43Enhdu7DYWrn8K9M/KRzI6p0ydj0jffwRdbdnXF8dFP8f1rVfjjy5vx7N1/g2XK9/HTj5j/9o+x4fXvYGGcjgsMonSfDa/+1IYb/vMpPqBzv/w9nrg9CZv+uAqVZnu3+WBdm72mZWSjyWRDc4cJbfpGHNz7BVIT4qDVkJxhfq16HN4tw+xJaZi/cAmU3giUHCpGAzt6VquJehr3sUoVLUdDcgwSmJfTLcPWkmxIlFpEn9GV7ad5J/a9/ShunD4ds5ibTm7J/fjms6tQzA6fvrMDyEubHo7De7F2RAo8USxd5uWwW9nDsQEF85iAS4w7db9Cht0rdrOQ0mSCrLkDrX7vU0RFQ6uMQEZJDZpZ848e4FHRsVBGxKCkpp61CMV8FoFgKEAL0Xazd0PsiBGQsMY6F2rM0Xuijb0n6LuPibi2yEhsPn4c7Sw8WRsgDh+ux8MPvYI3f7sId13f9by7/v4f4cV9rBHPHp/6rS/ihUeu63oOTp/D3D343UeHUcQScNQfxuFX7sGVi8ifHb/uEXznxa3s+ediz799WP6j+/F1/zP0siVX45dr9Xjk11v5QrYNh0vx0Dd+id9+4zJcv3g6vv7UC/jL+x/hlXumY9Gc6Xjkpa3YVsOzeBr9Vnz8wiO4ncc5+1RefvdOEX76yO/w6i/ZuZd1pff1p15C9zVcW9/7CBvf/xNWsGf7bZddhvt/+1t848YbcR2P63rWeH8Ra/XmM0Y0+iRxAW566Nv45j0zUbFsFWptXe8yU00F9C16KBffhDkFlaitLkdFjVh+d6EIS8GmZco0Pz4e6ewlXXb4MAxMpJmZWLOxVpOzrg6yI0cwSalEBmtJRep0UKlOzw446FgKTfosLJ4ShShWmclpVfKz1Hpt0hVImTwHSylcJDk1a91Iee+XxNUCS9mHeP7+r+PeW27BLQ//Dk+/tg2mKgO2ptyJsTMLML2AzolEZISKxR3oNWOtPE8TDtS9j98/8DXcR+fe8xP89LmVOHK4AtV+IXEKdg3SqawinmyE5sRRHLZK0VK3EDMmaRAfy2I016JV34o9nXMwOUONxKkTMUrZidziw9jfxPQZaZCaNfjoj9/HHUuXYun1d2PpvxSYfv1S3HPdOCRSGkzQekZkIz6SCadgLZaEqZhwyxN46aOPsJK5j8i98wc8+/AVGMEO+xtsfeelzgpXyZv48w++hpspH/f9Dg+ty8UTT92EyyekcnFG3dudnT5IWX5krFUXLCt9w86g1iB7INMw6lnd5bwM2HEvHaN/zIsJtkhtFHKr6qH3eM8QywKBYHASy567E7OzUVdays08mdgzITACY2ENM5vZDHdVFXQ1NcjXaOBlDVka0SG8HRUwH1uJ8jEv4ofPs2fd3x/HA7PjsXr5GlTZHNDMuBff/OWrXc/B5W/go1+NQkNDNXYV1aO0QoU3Vo7C/S++gTfY8b8/eAWuj25AhdGET556GtVjbsbtf+96hr7/zuv4vwWxSFG7+UI2T4cFzpMGJHz9Jfzm8fsx0V6L7ZuqEPmDd/HaT6+Bq+YEdh86c0HZx39qQIfyCvyA8rLyXXz0ryWQlxRj3/uvo7SlAe0LP8JLb7Njf2DxRdqwcePpBVYzbrwCc697ENewZ/vz//gH8rduRdLc+/Egy9+yf/4AP7u6GC++sw/FFSRzQ0AihyIhEbG6KKQcrUATf5cZUMvOb61VYuH8kbhs/hXoqG1j96n2jOvoldZ9OPTfp/BV9s64kt4b5L7yMzz2slgo1hthKdio+zqBibERrJWUw763l5fD1NLCxZqmuhqjWOXLZcdSEhIQExNzhmDrQBpkmjgk9rNqwKFNgyYmeLiqEy1488VtMObPwZSlV+Pqaxbgskm5SLe7YdTlIDpOh+heVhd4tTHw5s/EoiuuxDVXs3NvuAtfuffrePSHi1GgU525KEHK8h07E5PTzIh2HcbRJhOORi7E5DgV4pSArZG1WIq2YGfJZrz1e9Y6e/YNrNzwJY43FmH70TY43ewhpMtA9oQ5WLJ0JhaM1aKp0M7uSSySU6P4QgFppweJxkoY22ww2rqSPQNVHGKzJmDukiVYFFjlOX8apo1O40PHgR9In3lhzU+nJh/jZy/E5QvHYnScAnWFDmQWpCCW3SiFP47/CR+rvjRkG6OFL/p0j+YpSMx7HDBkJCCaCX2+SMLtgtvrhilCCzUTdN1HGwQCweBEwxq6mYmJyGCfpoYGNLW2ooO9E7hYszBhxN4XsU1NyGN1PoW9R1QsHA07cRSRUCSOw+RZC7FgEXvWLZ2LySPTIK9tgIOdL1e6YKwqwYHPP8fn677A53sP49C+EtTV62GwmtDKBNOh9XrIUsZg9s1X4MolUxHvlmHTkQwkTZiNRdd3PUMXzp+HsSkq6AIPP0UEFEmjMHEOS3fxTOSnpSNGnYxxCxZh4dJpSGHPKV+H8fRcaMbRE4exadN6rKe8fL4On2/ZiR3rC3Gyzg1J1mTMnL8Ei+l5zZ79+bFaSJr1vFFKjdWEzDQkZoxEOnu2T7lsMVza6Zg8fz6uZPm74so5WDo/Fa5PClFVawjdjJWCGttyaMx2ONn99prKUdnqQ71nBOaNiUHy3EXI0zfCXVqJ8lA62dSJiMubikXsPXkVvSvJLZ6OmQXJ/D058Eb90CcsBRtVLg0TYemxsZiWkoJ0VgnVrGJGNTYix+HAGCbUUpOSkMA+I1lrS8kqZIBEVMBtaUJdP329ESY93DQMaacOGy+sTazF4rTzHrD6Ji8+2ybHlHu+g2/9+Cf44X034LrpqVCxcFFt9TAZ7bz7nCb0m5vqYWD+gYomlyqQEJOOWbd+Dw8+8hP85Cfkvo3vP7wQY5lg0/rDdUESIgvjpqvgsxZh777jaBs3CxkKJQtnR2tVGeoryqHMjIW1pRlNtW4oY5WISHFh766TaGctN2/cREy96mt4+Mc/wqPf+RoeGO9E3YFjKCxq4N3dKqkHsxLKcXznQew50uUXoI21UFvYfe2/bvWTl73VaI+bhSVffQjff/SH+MFXl+KG5GZs/ewgSho6uMkSORPhGk0EOhpbYLQ7zngw9UZ8CmtnydthYJnu9HhgPVmM6hg13IkxyIywIimzCi0GL9hPAq7WZrS2N6NyVCaSFTJe4V3GdtisRnhy0hEll50f4SgQCC4ptOpTp1ZjTGoqEt1uuFhjvo3MPJnNcLEGfTR7puUwQUGjNLHsHULz+Wj6CUedAEX6PEzOVYG1/dh3DdS6SD4VhkIc3rwbmzbuwf6Ttaitb0StrROKdiskVjsi0iOx5PpcRLRXoPiLNdi1rxxlFh07T4VyzENaSgJ7Z1EiQVCzcKn5yI6VQxsbicjETGQkpyM7RspXt8axZ37PvgNTlBQmjxmmWspLE2pNscgryMSI8VOQnDERU7KYhqJMs/xHqrWI6zrtLHwyJdpS5iEnpyt/Cq0OsWk5SD1RC6PJ2rUoLBRcrAHsc8MSF8ktNLhri1BWXYq95RU48sWHWLm7Em3lB9FQ0WNhXG9E5iBrxi14iL0jf8zfk8x9+3bcuTCfT6MJS3FyiQnbe0KVUsMqZQardNdkZWE8eyuP6+zEJCbgkpOTkchaWAGxdqr1xJgaUwh34x6s31qGsrIu19Bmhe30ZCxOvqMc9spj2H6oDKUnT+LovoMobzfyrnVFVATiCjIQ76yFobYMJUePoeREOVo63RhrPYrK4uPYd7QMJ0qO4+jBo6hyuU8NdUb7mjHStA7rvzyOA4f9eaisQWWjibXgfEFX6+SNz0BHnR5Fm0swYs44yFVMWniaUF3NBFbnKHz92WV4491lWLaMuX88iR9cNQKNO/ag0uqENTA2qEpCZP7leOyn6WjevAEfvbcRu+sNcKlkuPrBVOj3fYkNH3+Orf57Qm7rR2tReCAEQ8H95KWJ5aXe6oKDLk43AgWz5uB7D2nw5R/eweov9qNIb4JHpUN8ahYMe/ajurkN7f7+bhLLblMj6htamPjSw9jRiJpKJsTMHoyaVwuF+gQOsbI8efwk9n15EI3RWihS41gL1YJpV5egZFcpSth9PrrvGIorm2CfkIME1hJUwYN2QyusHe0YzVqbisADWyAQDGroeU8NwLjoaEzPyEA2a8y5y8vhYQ16DXuWF7DjI1ljPsnfqD9DsPXDe29Vo1q1AA+8vAz/efd1vP37r+HK0SlcQCRPmIyvvPRvvPHeNcgs+QTLfvgs/vCXNTji9kHZSQZ72TOwx3vmf0GROB1L7vkZXnjT/7zl7ud46LapSPOH6ROPF51uDzydPiicbdxeKOXP52X3y2GDQ6eBnCm+090dfcHeNfV1aG1pQ9vUUUhhJxmPHUZt6TYcPLQKLz71W/zqqfexrbUYh9pqcfhYE5//fNbUFcH/RFiLWBJtNNyZwkTb4jFjMHv0aGSwCkoVkeam9RRrxIKv3ox0+1Esv6drMia5R17ehq21/gB+7vxWCmTGFXj0qumYd8UN+On+CDhtEbyllaUtx1URv8P3b5iPy9j5d/9hBT5tSsXMaBl+/HQOilY/iQeWTMd1334Sf63JQaZXdmqIbuT0fHz3z7dB/5fb8e0r/XlYfBeufHQVDnecuejgFGMmYEzmNbg+dg7mTOdT2wB9MSpMGdDH3YzbmZ82UKsyc5CSnoKlRdtwpNrJewhPodQB03+AJ7+hQ9TRN/Drh/+KT9pjEHPDn/H095OZ3x9wj/+ekLtnWzsOIocPO/dJP3m5qmgrnCwv7sDFxY1E3KLv4rVH9Djw9+fwAu044E2AevI0XFO+B+0VrQjMS/XZO9C46lE8/N1f4+m//pFPkr1zydX49Vo95Jd/C5mWWmxjZTlr/g248XcRmDKNxbEgkyUxHjPu+wGUz38FP2L3eckDK7C6aCye/sF0ROv4DURNxUlUn2hCdnpayA9sgUAQ/tBzn1bNxcfEYA57J1zORFkSa4TOi41FPmvQU6O+u1jr+Z7oldzJyBqVh7GJ7NnkcqJx7zaUtOm5iaSyBgdeXKWH2T4Vd/7lT/jpU1fi6pRGtDZaMM/3bxwtKcfhHu+Z/4WUylWoLdyFTee6IUxzO+yVzWh2W5FZ/G/s2dOVP0dbK6qP7EHR0mlIT0lApj9435Rg2/v/xafv7kX+3TcgU9uOykMliBh1Ex5/p2txH3fvPI6bRnUtRmtkZwXroBCcO5JOMv7RD7TCxuFw8B9/qD98Wo4dEFzBMJvNeOWVV3D99ddz0x59QVmkZa80cZT+pgrYayV06dFYVY+aOgM3B0LE506E1KeEqtOFrBEJXUYEzXWorG1EZZMZUhaXLjERErcWiUlxiIt0wVJzBKWtXfZm1JGRUGljIXcrkZvmQHmNnu85qlCroY1NYBerRmZ+Ytd8La8dbkszSo7WwOhiLRnKgCICyuhMTBiTDB1r0ZwtHczQV3aweyJBzMSMru5guo4mGnrVnM4zD2uHRW9Aw/E2qCeMganZiKhIJVL8c9YIl74MVfVGtPuikTlmBJLZyV4D+bWgztBNMsbnQi3VIEEjPzMNtwnGdiOqmmTIZXmO6GxHSx95qTnailZ5HEaOS0JiXNectU6vG87mEpTUuiGNTUN6Tjwi7dUofP5R/EV2KxZecSUemZ/eLRzLr7WreSpTqJA4cjqy4liLsL4W9ZVNMPC7lojciVlISdBBAxc8rNVYXViKZqebCeFIRCWkIj9w/04ux9/eP4gt7dn40S+/g+nMUzXI+9gHUmeI/upgT86lnre1tfEXJ/V2h8KFeJb0ZDinMZTKY9u2bTAYDLj77rv9vmdD7wMytN7B6kZLezt7xndCq9Hw66f0qCeue5o7dlTi2ec34jev3Y0xCRGIaNuNHV/uwbPvRHC/qrd+jA1bC1FkiYZWIUX6yASUVYzGVbdehRm5Hiz/3uOoTVbDK3NBlTEX0xbfjoduLgD2PI+/vV6EgzUW+LTsWRMZj/nf/xf2L9+BWbOSkDs6GW8E0nVvxPvvVuJAay5+8uxSZNQtwxMvWJE4dRa+/uBspPrzWrfp31ixYhPWFOrhCxRn1rVoN8ehIC8ezz1/IzKYl7xxNV4LxBfwY++Pwvf/hg/efx9fuFgDV6eDtMXO7hd7J0lUkPhysPDPj+Hr7Hk5gjdwz+S13/8Nr//rVXSy5z03v4RYpmXnYN5VV2DB1JHIdq3F878/COmoObj2vmsxMZA/8yb854/rseWwDlf9+wlcw4SvpiVI/pg7Ow0iETlTluC2xx7CEnau+iK3s3s+Y8OtfgwKwSYYGvhYS89c8j7+/M5e1GkmY/7VN+D+uVR9zz9v/v532NaqRcaiG/HoDSPOWEAxWBGC7cIKhKGQxnATbAS9wigNMu8UsIFF96CnWCPqWUN2955qzLtmDOI1CigcDaivbsTuYwru5z7+CQ4fLUNxEzUcFUhk9UxmY43R0dlI1NpRvHIlTrJ4qGkZlTcNYybPwsI8dh/MJdjyeSFKqvV8TrBCo8OopffCVtWE7EwtouMiUBRI11uN48VGNNujMWN+NiLZudv2uaFJTsXYCWnQUUYJSxmO7jmEvfsrTq+6jJ8EpToBORnRWLzQ/1yjcIH4An7MtZfvQPGBHdhdx65j9GjIampgplW1rEmr0Y3G0ntnI+esedVdHN2xA3uZO73aMx5502Zi8qwJGKFlV0/XGyzPaEL5jpOoqetE/NULMYZlRmELnr+z0yCikJA9BtMD517kh7YQbL1kWgi24Qh1kBuw/71/44vGWMgmXIvHr8rrOnSeef759+BNSsOVNy3GtN4mAg8yhGC7sAJhKKQxHAWbQHC+CHfBFvLWVESwY725UM4RDDeouZSIaV97Cj9/7PsXTKwRjz/+Nfz8/qEj1rpDdStYferpBlpvz7Weh5ofcueaxkDOGe5pkAt2LJgL5+sQCC4VgToUbvVDwhRlSDWDIg1VYRKBTPR2jsViwXvvvYcbbrhB9LAJBCEQaP2Rgcn8/Hy/b+/0VweDMdB6TsasaQgq1NYkcb6fJcEYrmkMpfLYtWuX6GETXFSCPWPDqX5IPJ4ztiQPCs0LoD22aG+sUDNBe9pRtyB1zweDbszrr78uhkQFghAJPEyuueaakOpMf3WwJ+dSzzs6OvhcIZ3u9CyWvrgQz5KeDOc0hlJ5bN++XQg2wUWl5zM23OqHNLDisi9HiRPBjvXmKGFywY4FnEAgGDjB6lIwF0od7O7OtZ7TecGOBXMX6lnS3Q33NIZKeQgEl4rA7zDc6odYdCAQDBIGWmfEJPfhl8ZQKg+y69Xc3Iy5c+f6fQWCCwv9Tjdu3IjLL78cubm5YVc/hGATCAYJQrBdWIEwFNIYSuVBu7HU1NSEfI5AcD6gyf0zZszgxpfDrX4IwSYQDBKEYLuwAmEopDHUBFtDQ0PI8/EEgv8VEmv0nJ02bVpYCrauwVOBQCAQCMIQeokJJ9zFcuGMEGwCgUAgEAgEYY4QbAKBQCAQCARhjhBsAoFAIBAIBGGOEGwCgUAgEAgEYU7YCzZaxGqx27G3pATHKithsdm4ZWCBQCAQCM4HEpkcEcmjkDdqHPIyEhGn8R8QhDWkBerq6lBVVYX29vZT20INVSQOh6PfK6SlrnRjaMuTUFdR0FJVCkvWeYNBe4m++eabfe4l6mXpklgrbWyEgRWE1+1GHItvRFISonW6AeXnguFzAcbDWLPFBV16JqbMyEJoC+rDFTNq9m3CvqO1OJ5yNR5Zko0otdx/7Ew2bNiHo5WtuOz2azEpGlCK/toLSsCsx1VXXYURI0b4fXunvzrYk3Op55QnCq/RhPaGuxDPkp4M5zSGUnlUVFRwsx7BTJRIpDKoolMRo2WfgcdTpw9wm9DSZoXd6fF7hoZUrkRk+kRkJygBUy1aGmvRZPEfFIQtbqYJyPxLS0sLN2eTxLRBYmIi/82QaY2BQr9Vk8mEiRMn8njCrX7InnjiiV+TKu3PUaR0A4IdC+YofIBgx2m/rcOHD6OgoADx8fH+kKehCzDZbKjR69HockGVmgozu5imjg64mL9OqYSSXSDlKdQb2SudrHLbqnCkSI8OB6CL1SK4RAmCl53QugGvvFONdmk0Rk/NODfBZmlAQ+lBrN28B8eOHetyDRaUtrLoq/WITI6EQi7t6hL1WOHsqMaewjZII9RQa5Xo+mmQ9rah4chOHDpWi0qzAol0HvM9un079u3ezfwp7hLmGmDXREEVoQV75p3C0bAbG79Yh0/2NsKePBFLslge9hVi394D/NySk+Vo6IxHFEuzZNdWbNy8GxWaEZicGwmtwp8/wQWB9ps7cOAA35Q4NjY2aL3q7vqrg8HcQOs55YnC08Mp2PFg7nw/S4K54ZrGUCoP2heVBGgwe1YSiQxKXTwio6IQFxuN+GgddOxB5/XYYbG54PKczmMocAEYlcwFIJwmWC0mWFhbXBDe0O9EzzQC9bLRJ/1eSDAFfm8BFyr02yNtQsKPGj2B32K41I+wNJzrY1kyWa2oMRhQ1t6O1LFj4WLq2cz8m1tb0VRSggXJyRjFXCxT0ooBqN+gMAGEumV4/AUrEqfOwtcfnI1U/6F++V/O9eO1taHjyOdYs3olfvrfQ1AzP7oad94VkCVehnyrA8+9djfGJkQggk6wVkJfshoP/gq454kbsWReLuLIH26WnzIs//mjeHOnBJ1z78efn7sTI5j6fPK2r2Htts0wR6oh62QPJW8mrvi/n+LOmy/DvFwtVFzsOVD23i/w92MRaB11J977eg5Q+Q6e+OkKfF5YDaPCC5kmAinXPI9fPjAX89WF2PzFl/jBmjj87R/fwcy0SMSE1qgQnAN91ZlgCEOtwy+NoWg4t89r0aUgMzUJmVGsQaOvxpF6M1w+CeRMsMqlLC32zvCxvFKqkk4ffF4P3EzM0dNOKlNwYStj73MJ+1uXMhppsQp0Grv1sEnl7P1CYQL5Zmf6vCwOL/tLxg7LIZewNLxueLwsXiYkpSxOhYyFZ+FcXhYFS19OiQRg/h6vF14Kz3JGvXtyFv50Eqfj8/X7dh7eUA/byZMnuaOeMYLudxQT8nl5eUhNTeV/U50I5bdHwoniEYZzB4CNKmtTE6qZaEsfNw4edrPt5M8uxhMfD8nkyVjV2IgjzBnZS4x64wYzrVv/ihdeWI3XSubj34WF2Mkc7aP30UNX4is4ihIWhkmx/vGyJmHDXhyyF0DJ/hXYD2FvA3uQ0e3JvQV3PfUmE14s7r2bULj6VkR+sQmb/7uNx89CMVeILz9qR4Q1E7csHsPiYyc21CD1nmfws48oT+ux/oPHMX3lK9i/5wSORk9C/phs3Ov6N9YWWlDXxiMSCASCS4cmAclZIzGRvTsmjByJkRMmYNzEiZg4Jhd5qVHsydjVINYk5CJrJPNnxyaMG4u8RAW0dDCAlLU+danIHTmGh+FuwnhMHJmE+AgltFHJSM5l544fi5FJWkQopZBp4xCfMfpUuKjEtK68BM4nNzoD6XFdozhSmZwlwc4fc/p49/gEA4dEl9FoxNGjR7F3714u5khEhdA3FfaE5S/iWHU1WplYiMjIgIO1YKihQ9q5gzkjE20Oplw97NhhgwEnWAuM1Okp2nbh8388gQevuAJXXHENc9/DXz4rQokZcDQW4di738MdN5E/O/7VJ/CTV3ahymLFp/94C3s3/ROv/PkH+Pr11+K2r92GK6+6sivcFV/Ft37yCtY2sThI/HRP4+obcMXX/4zlh6rQSuk7mIg89i5+ecdNuJWf+1088tTHOMQO9Sa6jh+wI6ZgCm595HbMj41FEnM05DVm8QLMvfE65LMwoQzRel1ONBVugyV9ArImJyNNUYJthU1w8maeEiptJKIpbiZ6Y0flIIU9kCKcLnC562aC7dAu7FKlws5aJhNS2MNKEQFM/AZuWTABS8ZQnpIRH5eHnGwXFGrWSpTEIj45FzNnpqO2WQ+LvVs5CAQCwaWAvSOk7NnGXh2QdJrQWl6GxlY7rIiGJjIOcToZpLpk9pzVIk5mhb21BqVl5azB6YEj8JBmz0uZOh5ZmfFQutvQUluGE+XVqGixM6WXhIQYHdS+Dhj1DWixq5hXKmJ07HkYw56xMey16mhDbQt4706UwgVjQwVOlLI46jtgl0QhJjoGiXFRUMdnIzNeCYW9pSuNEydwkuWlus0Ou1t0r50rJM6o940WIpSWlmL//v1cxA32zp2wFGzRWi0k7Ma2m0x8GDQg1jqYcrawQrAzf0lLC1Q2G+By8XkbAXYtK0NFrRqZS5di6ZLLsHSqBJWFx3D4UC2Kqx34cJkBMdPmYjY7PjleDZ2+DM0KOVIK8pGQMoq1dGZg3uIlWDhvIS5fejmWUjyT4xHdWYW3NpfD6vSwNNZgzyE9MJodW7oIS+eNQXYcq8As/caT1fj0xWWoiJyGUbOXYu4oKTrbduPfa8thcQSfCHukNBYeXQ4mzsxALPseKBRtQgLiWGWWlnyIl57+JX7585/j5+R++Tye/td6lFgdYHfAjwtupwFFO5oRm5KBGXPHIy1eh/07itDidJ8pFr0sHw21qIlUwhqtQxTz8nnYj7vsODzZWUjMz0Y69eZK2RMvdiQyWDwJWvbdZYfH2Ixq3SjExkUyPwV0kfHIzs9BRWMzzDbqBxUIBIIwwOeFz2WD2WRkjUkPXD45e6SpoFJKoYmKh1ajQqeHHTe2wcjeKRanD17/9CMaLlVGxCCW5ghrdNDoohETFcnn7krkGui0KiglbthMBujZu8iISEQmpiApTg2Vz4LWJgNMHibk1CpEaDVQRUQykcaEGotPoWBxMv9I9rdMqYVWJYVSreVpRDE/pdcGm5M1iMV46P8MDYXSXrRxcXEhD4uGM2Ep2LKSWetHpYJTr0dTczPaPZ7TYo0pZk9VFRIaG5EtkyG2xzjx9nUncbTCBk1+PvLzspGf7UX1rkMoOlyJE60eFO5yM0FzGa6972E8dP91uHFqEiJYHJMuvwx5Yy7HomvuwcM/fBjfvutyzBszCmMonqwIyD3N2LqlGG1M/GzeaYIpcipu+NHP8LOf/Bg/e/gazMpK4IsNGhpdWLfZjfFfZfE/9jP85LuLcFmuGVvf2otaqwvOrmyeQZ0rBW55LJKC7XHsc8FjbUV9VSUqy8tRTq6yBlX17bB6fDg1vdFjgctYjl2liUhPTMDUWRORmpoL6Z5dKG13wdxeibL9X+LTFSuw4oPVWPFpDRxjc5A+MQMJ7HTejdxhQFRyPJIS4nB2Viww1pfh8GcHYSxYiKyMFKQwharQaNk5GXDVNcPGBJuYpysQCMICGgJze/gIQnfpQy9tlUoLmVQGFzvu6NbgD0CLEOQqJp5YWJlMDoVSBbVSBoXPjo52JvDoWc4i9rldcDDBZ/HQqtVoROqYKHRZ0N5mh0+hgpziYefLlEyksfeMWuKE1dyBDjMTZQ43PA4T2swsrCoKsYmpSEtNRWpiPBIiWdrd570JQobKV6lUIiEhAVlZWRg5ciRfVa/VavncssFMWOZezW52LrvZOWo19CdOwGA0wux0wk5dmjU10JWWYmJEBNJiY3mXc/fJfa2KCmzf/A7+9TMmpp74FX72py9QVNoEm9cDhdaK/NjjWPOHFdiwqRAtsaxFNGnOWUOOjo4GlG/9D1588ik89TiL50/v4J21xZA3NEPPmmB16UuRMm4yZuX5T+iGQ5cJw+g7cflkLZKjaQpEBjKjUpC17RCOO12sJXY28qQIaCM10AbrrWXxRU//Nn73GsvD8uVYTu6dv+O1392J6dHaU8Kq02aAtXo/dlgz4bYz8Sb1wsmeUuNO7sCBCisMVXuw84N/4JnHf4yf/OwJ3P+mAlMXzcNtS0byXr2+ccLWfhJFO/bg47f1mHX3IozKS+pKmz3IZDFxyDB0sIePq1uPn0AgEIQnNGRG/+jlHrzXpWtVHuG26NFSV4FS9i6iIUvu6vQwWFzsXCbGFFpoNCy8jwkwD/tkfgrF6Verx25ER1PlmedXN6K2tR12Qy3Ka1vRbrLAQdNTpCpok7MxIjkSEWqxgmsgUDmSaQwSZrRgYNy4cZg0aRJycnK4RghezoOLsBRspIIjmSArSEnB4rQ0GA8fhrG6Gi4m1GKrqjAzLg5pSUm8UGiul5oJu1N0n1x/yv0NT397Pm5csABPF36J7YU3IvbDZ/DE9Htw/6PLUchO697GOlzYip8/VowJf1yFd7az8798E689cTPGsmOhzCUbKKmVh2ApLUcxnwR3btjbWlG9Yw2OHv4rfvrgTVgy/Vbc/aM/YZXrKL7YWw199NVd92X7amx46ZtY2NQGp8kWVECeTQm2vbwan/2nBQVv/gm3jY9BeuCW221wN9ejODMFyggNmEYVCASCsIWEmNNpg8/r5atJyTxUT2jEweV28rCquGjoIiMQzLKdnEYYUtMRJzWhvbIODc1OeCPikZkTBznZ6PR5oWTn6igOFv6sF24na6VbGlFVWoIjx8pQVmfgC+zEYOjAoV410gS0wnPu3Lm8d+0MbTAECNv+QVpuTaItnwmza9PTka/XY6TVisnx8UhjhUIFExMTwwukezdncv1GGEpP4Ki+a+J+l9Ox1ooCdQYvlu32QqGZjpt+8TgeeGAqpmtqUdPctSCSNXlgbjWiWR0HV+YMzBidiKyUWMitbWirK0U5C0Kz0JJri2CtqMbJNnYeq9RNB3ajtMPAFx1ozFVIPPY21hRa0dABmOurUd3RgMql0zFerUQMC9OTBVd5YK3eiXf+svqMxQn1u3fjwOqPcZL93fcqUTPa9VUoOtSIuY+8jD+/tgLL/7sCH7z+F7z6o7loPFSEyjYrXLToIKUA2VNvxbM/U+HAex/jrXdY3lkMdL+TUzPRWlaLiup68AWfZGOuaS1eefw9bG1JQMGPHsT1I3WIVp5egu6wW2FoqkNOejIitRq++kogEAguJIGdCXIzU5EYzaSUQgN5fCZGZcez51D3pZ5BIHMb7Y0wWBxwsmd9QlYBxhSMQnaCHBoyWsno9DjgYc/tkxWNaLMroEvKQv7YsRjrdyPSEpGWlo6kzCykRQG2xiYYLQa0mawwmaVQRSYhN94Dg96AhnYvZFFpyGHnjfGfPyorBalxUdAm5nFbpORG5WchK5Fdh7UZVU1mWHuZ8yw4TaBXLTMzE5MnT8aUKVO4KQ/qUSNdMBR61boj+zXD/3evUGuDbIWQgg31BlD4wM0MRsAIKNmTCmY4l86lG65UKBDNXARr6aQwcZbGRBpNICQhRobtSGh0z5PafBD1VcexY8tu7NuzERs3MnfEBLtCB29bPda98CfsPrIfhceLUePWIaZgBuZPH40UjRL6w+twonwPth8+ivLjR2BqPYbCbZtRWFSEYibqDJYMXH/TBGS170V55X58tn0XjuzaiqLGFhTVJWDE6JGYPV6FJOsBbN1ejCN7N2HLpiKUmhMx/t4bcX1eHCLkZ2tkXawcnbYmNB7fiQ2F+7CP5XkTc58fqseeRhV8biVPN4k9iPijyN0Bm/4EVm8GJs0vQG6CEU3Fx/DpDgUWfvthXDN3PCaPzkd+bhySo83Y8WYR6lvlGDM9H3Nn5yJaHYWUNC3ay/bj+LHjON7qQ0xuHlKjDShcVYpOZQxSpxQgFRZ0FL6Jf77+JXZUNkJva0T5ro34kuXtiCkKCp0aqvYiFH72MZpG3ocFY9hDLEp0418o+qszPemvDvbkXOo5LZenOhiqzaEL8SzpyXBOYyiVB9mU691wroSLNonHDofVxBcNmKzsb7uNG871uByw28xMRFlhcXrRyfLgdVlhMxthttrgcLnh9nrgdDi4lQFydguLw2TkdrhoxbuLhXE63fC42SeFcTq5UVVyDpsVDrcXbg+Lx9qB9vYOviDN7WXXysPYYbca0W60sTJhcQXOC3yyfFIenF4JZPB0HXfQOWaYOjpgMDngFosOQoJ+h9HR0XzO2kBsrgWjq/fVycR4Gl+sEG71I2wFG0Hny/yiLT4iAnGRkdyIIjnqWesp1ojUnAh4rO2oKy5BdXs7X9bb3pmM9JxMZGlZhdi3HsdNHWhtt0KVPxMTF1+FK/MjINOkQCc9ibaORrTq7UhNUcJNFZid3xmTjoTc6ZicloUZs7MxJsOFDmMzSkoqYLI5oBk9F7mJIzFjQi4mTkrByBFRqCs8iAZDC9o86cgYtxD3fn0aUplYCyZnlHG5SE+UQNdZh337q2H059vB4owfPQvz0yJ4ujEqedeQbKeb9+w1m+MxYWoOUiOd7EHkQwOm4rqr85Gi84ejeRRadp+Ot0GXnovJs0difEE8NLT6MyYHOTEGWNuZ2DNGIGv6JGSmqeHasRP1Tjk6UgswK0kOS20JqpwyeGXsAcnuK7+fdE+SxyMnluWj7iD+u74Ro6//GqZnRyJ2aPVAhxVCsF246xgqaQwXwcberPA6LbBZzDzMKWclscbEj90Ks4WJNxJrTPd43V1iyGKz88UCNH/N42Riquf5zFntTia8AukwUcXEmaVnGIerS+ixOM0WCxNvndzIbaeXCTgHS5vCUV48tHrfDmuP8y0sDYfLw0XkGXGTwLSz56rQaiFBvyfquKF5a+djFWi4CzaJ19v/T4Nsl9BF0I0JNdP0Y6YHB93EYNBeoq+++mrIVtsFF4eWDc/g/203oyRiCf764AKkx6i6Wfk+k45DH2P159vw7MkZePePN2BcnDboPA/B+YEe6LTTwXXXXcdXPvVHf3WwJ+dSz0m8U/z0cAuFC/Es6clwTmMolQetiO93pwOB4DxC4ol6WKdOncq3pwq3+iFhL4GQtDwpz1AzTFB4ordzSLC99957fW7+Lrj4+NyV2P7m/8PbnxzFrqm/wcZHZyIlKnhr/Q/PvYGVW0pwz5+exr2jlIhSSMQctgtIQLCRbUDaT7Q/+quDwRhoPbfZbPzhFGqPDnG+nyXBGK5pDKXyqKqqEoJNcFEJCDZaYRoYxQin+iFxu/s3p0wXQcMxA1lxQeFpDlpv3YIk2F5//XXRwxZ2OGGsr0J9sxH6yBGYlRsDVZB5d0RFRT2a223IGjuS22Sj7fMEF46AYLvmmmtC6mHrrw725FzqOVkPp/hpH7xQuBDPkp4M5zSGUnmIHjbBxYZ+qyTYaPFCYmJi2NWPsNz8XSAQnM1A60x/dbAn51LPxebv4ZXGsNv8XSA4jwQEm9j8XSAQCAQCgUBwTlyyHjYaEn3zzTexePFi5Obm+n0FAkFvWK1WvP/++3xIlLZa6Q/RozP80hiKPWx0nkBwMaAeNtIm4drDdskEG8W3efNmPtmOwgkEgr6hukKriWbNmoWUlBS/b+8IgTD80hhqgq26ujrkcwSC8wE9Z2fMmCEEW3covu3bt/P4Qp2cJxAMZ6iqUi/b9OnT+cOkP4RAGH5pDKXyKC0tw8naJthU8eiUSMV2TYILChNDkHV6EOFowZwZ01mjWAi2U1B8JNjo4UJOIBD0Tc8Jsf0hBMLwS2MolcfxEydxvKYJdl06PFIlE2yhnSsQnAvSTi8UXju05lpcNnsG0lJTw65+iLFIgUAgEIQd9CLzuhzsJeqg7mW/r0BwYZB0+qDw2OFyOnjjOBwRgk0gEAgEYQdtsCLv9ELlsUKC8HyBCoYKNBzqhsprhSyM+3KFYBMIBAJB2JGdnY3xY0dDxgSb3OfkPSACwYWAhkPlXifUUi/mzJ4V0l7NlwIh2AQCgUAQdtCG3pG6CLisZujsej6/SCKWHgjOM9QQULstUNkNcDsdiIuL4xuxhyMSh8PRbw2g8VzaoHQgiwNo/gFNoKN97YJB5gn27NnDb8zFWHQg10QjIjIaUUov7O1NMDm8cHn9BwWCCwDVG5oETnWHJpQOZOJqMAKLDiZOnMi3TemP/upgT86lntPuC7TKmzYuDoUL8SzpyXBOY6iVB+2NSltUVVXXwquJhZs5l0wLnyS0tAWCvpB2erhYk1r1iJB5kJeTzfdpDliuCLf6IWEVol/BRgtJKcKBmN+g8JRpWi0RDBJs+/bt61WwyZQaqNRaaLof8rngYueZbS6/R+ioYzORmJqJdJ0LhsojaOhwwer2HxQILgBUcell097eDp1Oh6SkJL56j/aMo7oxUKhik2CbMGECEhIS/L69018d7Mm51HMyMknhQ91r70I8S3oynNMYiuVB+yweOnwY7R0mOKRquFXR8EhV8EoV8EGKThaOvcq6ThQI+qSTiTT2q+n0crEm9zqgsrdBI+9EWkoyxo4d6w/XRbjVj7A166GKTkV8UjpSY2RQymUsox547O0wGFpQXmf0hwodIdgEFxu3242TJ09yR793mhdBu3qkpqbyekEVNNT6RAQEmzDr0TfDOY2hXB67du2GXq8H5ErYvEzIKSO5cPNJ5fQa9ocSCHqDFhP4IPO6mVCzQ+WxIULug8fl5Hszjx492h/uNOFWP8JWsEkkUkhUOqhjUjEuKxYKayPqm/Woa7PB6xv4PAYh2AQXm+6CjYaqqO7Qbz02NhYjR47kuxXQPJ1QEYLt4gqEvgjXNIZyeVB9slisfPeDg4cOQaWJgJIdl8tkLGxo8QqGN/QMdbHfI5nukLC/586Zg8TEBD6FINgQZrjVj/A2nKtgFTImDRNz46G01KO2sRW1ZtbAiohHXkok5B433CwNHztf1ellkRrQ2GyEyeaGRB2JiPhMsGCQscaXVKFmlZs5dBNskkhERsciM1HnT5DhtsBqakej3g5lQh4So+SQO9tgatejxdoJeVQa0uK1iJDaYbba0GhVdeWFEiG8TnhsBtQ2mOD0+iCPTER0bCLOTKIrvmazx+8jGIp0F2wktAiqP9SzRkOkNLk1LY39npijetJf3RKC7eIKhL4I1zSGennQ0BHNa6N6ICWhRg17FqfP5+VDpwOZbkDTciiNXt8/PaC0B5rGQOcUnksa3a+D7tuaNWv4J811JdeT/zWNUAjXNAK/G/pd0RnUeKZpWZRuMMKtfgw+wWaRnfZzm9BhtsLsVUIbFY9YuQXNtdVoYUJIEpGIjPQ0xHS2w2C2wy1nAi4yGpFyv2AzyyBhYiohTodYWGGweZnw0yFaK4fSY0ZTfROMsjjEJaYgRuWCx9yKhmY7VFl5SItgYa1WdNg74dVGIkligdnhgRNqVjHViFM50VhdA4NHC21sMhKjNVC5DF1psLvtdVhgs5hhdIhVD0OZYIKtO/SgiYmJ4T1tNNGVett6e3AQQrBdfIHQG+GahiiP4V0eJBBfeeUV/rlw4UIsWrTIH+o0ojwGb/0Y3AP/PjtsRj30LXq02ainLQoaFWvNROigiYxFrNoLt6kZLU31aNKbYHL4z2NIVJGIio5GrE4Jr9vJbpgddqcbbiih1EQiXieD29zE50wY3VLIo5KQlBCPxFgJvDYmAjtYeJ8KybFaSHxuOPn5Lrh8UkhV0UiIYuKN5UEXoUWk0ncqDUt7K9o6jEKsCXgLkVqV1GNAf4fQdhIIBALBMGVwCza3B16PFz0HFpVKNdSaCP4CNFltTMGeLY7kag1UCiU0LKw2IQNZWTnISYlBpErCFS91mzJZB0d7Mzo6rHAwMZiUlYIYmRXGlg6YbD7IaBUrU9I0zy41Ixs5aQlI0Ml5N61Eys7vZHnzeuCTq6FLycOIkQXIS2dhIlVQyEJT64KhB7W+qHeNVnqOGDECkydPRlRUVMjLwAUCgUAw/Bjcgu084HFYYKotwbGiIzhyxO9KylDcYIHbS5a1FZArZFD00rvZyQSZrbkMZSVFp88/egxHatrR1lyLhvp6VDWb/aEBVVwGMtLTkZMQ+mRzwdCBxFp0dDSfWzJz5ky+OmkgczAEAoFAMDwZkoLN63HD43ayvyRQKRT8JdkTDwvj9XkhUyqgjo+C2udDp9vN5x25PR54/CtRNXFJiI5SQW5pRd3JRrR5dIhJjmV+ShaJGxLqLaHz5RJIup1PYo8mwnrtRnQ0VaO45DiKSxvQZvfAx86Rixf0sILmTZCxWxJqs2bN4tvu0DyKgZr2EAgEgu5s27YNy5YtwzvvvIOVK1fyKRY0ukSdB+QXcHV1df4zBIOVsBVstDNBdHwK0uMjIKMl22r2PS4OiTH9r7bxOKywmTtg8sigik1FSnom0pLY+d1sSXY6TOgwGNBidAERCUjOyERmVhaymMtITUFSVASikjKQlBQLLZywGZrR2tEGfbsPUnUs4mPU0EisqGsxwaWIRmxKOjL852dmpCMlWgVtZBxiE5KQmhSHqKhIREVqoOy0wWqxwGAZuPFfweCDhjkDQ59jxozhdthIuNECAzEEKhAI/leampq4gW6+I0RVFZ/SQ9AE+4A/OavVyv0Fg5ewFWxSmQIKuZwJHDs62ttgsNKCAClU8k74nBa0k5/JDrvbB5/HDafFgPY2A0x2WgBgg81oQLOhnYs2MumhYGe7rQa0tbfD4vR1DYW2t6KhyQBDhwudShWUGg1ffq1Rq1g6MshVGki9TPyxc9raTHD4bDDSAgejA06nAx57B+obWtBisLPY5VD4z9cyp5JLIZOza1DSylGKk30qfHCZ26Fn+WoTgm3IExj+JJFWUFCAnJwcPlctWI+vQCAQnAvp6enc6Cs1CPtyoa6MFIQvEq/X2+/StMBqNhIeoQ7f0DJV6kGgoaBgUHw7duzgx3sLIxAIThMw6zF16lS+zVV/9FcHe3Iu9Zy23aL4ya5cKFyIZ0lPhnMaojxEefSHKI/BWx4Ss9kcki0BGhMPNcNEf+FpJWVhYSG3VRLqhQkEw5mAYBs3bhzf5qo/BlpniYGeQ/Nl6OEUqs0h4nw/S4IxXNMQ5RFeaYjyCK80Bnt5SNxud7+CjW/nwAQWXWSoGaHwNPTT24ampCh37tzZ6+bvAoHgTAKCbcqUKXweXH/0Vwd7ci713Gg08vjJ6GMoXIhnSU+GcxqiPIZfeWzcuBH19fX8Wmj+WllZGV/8Rsa1u/fEL168mA+fivIYvPUjvHc6EAgEp6CKLXY66J/hnIYoj+FXHm+//TZKS0t5zxG9+Pfv388/aSU6zZsNcPfdd/O5tKI8xE4HAoFAIBAILjLdFx2QIKPGHK1MJ8EmFh0MLYRgEwgEAoFgkDJ37lzcfvvtuOuuu3DrrbfynVPGjx/Ph0DJL+DS0tL8ZwgGK0KwCQQCgUAgEIQ5l3wOG8UdapwCwXCH6sv06dPFHLY+GM5piPIY3uVhNpvxyiuv8M+FCxdi0aJF/lCnEeUxeOvHJRVsW7Zug8mrhEemRCdCi1cgGI5IWA2Rdnqhchkxe+Z0pAjB1ivDOQ1RHsO7PIRg6xsh2Hqhv0xTfBs3bYZBGgenMgo+idimRyDoDUmnDwqvHTpLLS6bPQOpKSn+I70jHoDDLw1RHsO7PIRg65vBXj8u2Rw20om09FjidUDW2bX3mUAgCI4UPsi9Tl5nyLyHQCAQCIYXl1SwOZkSlbmskPvEvpoCQV9IfR6oPBa47Fa+lYlAIBAIhheXTLDRDgdTpkxGfKQaMq8DUtHLJhAEheauUe+aWuLB1MmTERsT4z8iEAgEguGCxGQyhbQ1FY2z0thvqOO4tDUGhe1tewbqYaOx3oOHDsFgdcOnS4JdGU1Tq/0hBAIBLTagnjWFzQCFy4iZM2ciOiqKWzXvj/7qYE/OpZ4PdL7GhXiW9GQ4pyHKY3iXB81de+utt/jnZZddhvnz5/tDnUaUx+CtHxKDwdCvYCNxRZGG8pIIQMM2lDjdnL6gLTWaWlph88ngikiGW6bhCxDEqlHBcIcWGii9digdBqjcZkTpIjBhwgTeOx0KodbBAOdSz2lOHcUf6sPpQj5LAgznNER5DO/ysFgsfKsq+pw3bx53PRHlMXjrxyVbJdqdomPHUFxcAplKC6smyS/a5OhkaQnhJhhO0C+e1eBTiwy0Dj0kThMS4mIxY8YMseoqBIZzGqI8hnd5iFWifSNWiZ4HRhcUYNrUKbB06BFhbUSUoxlaTwcUPprbRhOs+9WUAsEghzVNaK6azwmNx8TrQJS9AT5rG/JzczFr1ix/OIFAIBAMR8Kih42wWq1oaGjg3YPHT5bBaHNArtJAJlfyeASCoU5npw9eVtc8LgdkPjcmjBuDKNYSjI2NhUajES3WQd66F+UhyqM//tfroPNra2v5sFxcXBx3PRHlMXjrR9gINkojcA4JNztLTy5XQCaTQtpLmjS5j8KHOr5M48SUDhXYhbqOc0njYlxHqGkcOXIEBoOBi4SxY8eG3XUM5fKgquj1x0WxZGVl8TpHYchPPAAv3HUMlTREeYjy6A9RHkKwnYUo4MF5r5YtW4aTJ08iLy8Pt9xyiyiPEBjOaYjyEOXRH6I8RHmEgiiP/tMQY40CgUAgEAgEYY4QbAKBQCAQCARhjhBsAoFAIBAMAWg47qOPPsJ//vMfHD161O8rGCoIwTbMqaysxJdffnnK6fV6PvmdFh5s3boVmzZt4v4UTiAQCAThC82Homc1GaSnZ7hgaCEE2zCnurqaC7OAC1Rympy5Y8cObNmyhftTOIFAIBAIBJcGKfWmhOIIMl8Q7Fhvjgjm35sjwjGNgbpzSYMI5t+bI85HGrTNEa2Y6c9RuJ7nBnPB0ujLEaI8QnNEOKYxUHcuaRDB/HtzhCiP0Ny5pEEE8+/NEaI8QnPnkgYRzL83R4jyCM2dSxpEMP/eHBFKGhKz2dwVuh944BCXtRIDDU+EYxo2m43bwQp1iS4xmO4V7a1GNsF6QuGJwDm0FLq/PSwvxnUM9fLoi3BMQ5RHeKUhyiO80rjY5UF7iL7xxhv8s7fN34lwvFcXI43BXj8k7GXdr2Ajq8n0UqeLDDUjA91kNVzTMBqNPH6ykRIKw/leifIQ5dEfojxEeYSCKI9zuw4Saq+++uqpvUQXLFjgD3UaUR6Dt34Iw7n9MNQNH9IE1aqqKv83oKWlhbdCKBztdkCflEZOTg5yc3P9oYIjymP4pSHKQ5RHf4jyuHjlITZ/75vBXj/EooNhDi0moIUFAbdixQq8/fbb+OCDD7B9+/ZT/mLRgUAgEAgElw4h2IY51AqIioo65WiTcfKjT2qFBPxDbS0IBAKBQCA4/wjBNsyZNm0aHnrooVNuyZIl3G/x4sV44IEHTvmTn0AgEAgEgkuDEGzDHFr5qdPpTjm1Ws39qEeNxtQD/v2tEBUIBAKBQHDhEIJNIBAIBAKBIMwRgk0gEAgEAoEgzBGCTSAQCAQCgSDMEYJNIBAIBAKBIMwRgk0gEAgEgiEAmWO65ZZb8NWvfhUTJkzw+wqGChKHw9HvTge0GQJZ4yULwaFC4clqL+3bFQrhmgZZjKYtJqgihMJgv1fLly/HyZMnMWLECNx2222iPEJgOKchykOUR3+I8hDlEQoXI43BXh4Sm80WkmCj/a7oQkOFwlOmaYuGUAjXNGhvNrrxAyngwXyvSLCVlpaeEmyiPPpnOKchykOUR3+I8hDlEQoXI43BXh5iL9F+GG578y1btoz3sOXl5fGudVEe/TOc0xDlIcqjP0R5iPIIBVEe/acRmgQUCAQCgUAgEFwyhGATCAQCgWAIQL07q1at4iMlR48e9fsKhgpCsAnOgFYWLVq0SKwwEggEgkEGDa9VVFTwaS0Gg8HvKxgqCMEmOIPx48dj4cKF/FMgEAgEAkF4IASbQCAQCAQCQZgjBJtAIBAIBAJBmCMEm0AgEAgEAkGYIwSb4AyKioqwefNm/ikQCAQCgSA8EIJNcAa0FHzLli1iSbhAIBAIBGGElDY6CMURPp8v6LFgLkCwY705ItzSOBc30DQCBDvWmyMuZBoBRHmE5ojhmMa5uIGmESDYsd4cIcojNDfQNAIEO9abI0R5hOYGmkaAYMd6c4Qoj9DcQNMIEOxYb44IJQ2J2Ww+nUIf8MAhbs1ADDQ8EY5p2Gw2vvdYqNtMEIP5Xq1YsQJlZWV8L9Hbb7897K5juJVHd8IxDVEe4ZWGKI/wSuNilwftlfnGG2/wz/nz5+Oyyy7j/j0Jx3t1MdIY7PVD4na7+xVstDEpC8cvMtSMuFwuvp9WqJumhmsaRqORx0/7fIXCYL9X//3vf7nRxfz8fNx6662iPEJgOKchykOUR3+I8rh45WE2m/Haa6/xzwULFnCbmj0R5TF464fY/L0fhtvmvWLz96Hz2xXlIcqjP0R5DK3yIKH2yiuv8E8Sa7RrTU9EeQze+iEWHQgEAoFAIBCEOUKwCQQCgUAgEIQ5QrAJBAKBQCAQhDlCsAkEAoFAMATQaDS4+eabcffdd2PChAl+X8FQQQg2gUAgEAiGALQykRaMjRo1CvHx8X5fwVBBCLZhTENDA18R2t01NTXBYDDwT7LH1v0YhRcIBAKBQHDxEYJtGENbUJEZj+5ux44dfFuqXbt2cSO63Y9ReIFAIBAIBBcfIdgEAoFAIBAIwhwh2IYxZAn7K1/5yhlu0qRJyMzM5BNWaWuq7scovEAgEAjCEzLa+vHHH+P9999HUVGR31cwVJA4nc5+dzqgTUnJGi9ZCA7V2i9ttUBhQ92eIVzTMJlMPH6tVuv36ZvBfq9+97vfYe/evZg+fTp+9rOfifIIgeGchigPUR79Icrj4pVHYGsq2kuUGtjBGtmiPAZv/ZDYbLZ+BRvtXkX7XdGmqaFmmsJTWNqiIRTCNQ364VN4Wi4dCoP1XtFxWmzwm9/8hgu2GTNm4Je//CUSExN5OqFwMa5juJRHT8I1DVEeojz6Q5THxSsPEmy0+Tt90ubvwQSbKI/BWz/EXqL9MFz25qPja9aswaeffoq6ujqkpaXhyiuv5PuJhtoaEeUx/NIQ5SHKoz9EeVy88hB7ifbNYK8foUlAwZDHZrPhgw8+wMiRI3HPPfdwOz40F4J+fAKBQCAQCC4tQrAJ0N7ejsLCQv5Jiw2uuOIK/tnR0YF9+/Zxf4FAIBAIBJcOIdgEaGxsxIYNGzBu3Djeo0ZGcqnHbfTo0dyfjgsEAoFAILh0CME2zKFJmBUVFdxYLvWs6fV6bN68Ga2trVi8eDH3p+MUTiAQCAQCwaVBCLZhTkCsxcTE8JWhsbGx3J++T506lX8GRJtAIBAIBIJLgxBsw5zDhw+jtLQUt91221lLnWl1KPnTcQonEAgEAoHg0iAE2zDm+PHjvOdMp9Nxez09lyHTd/Kn4xSOwgsEAoFAILj4CME2jNP+Rc8AAOtESURBVKEN3sleD21HlZyczA33dYdsyZA/HadwFF4gEAgElx6Xy4Xdu3dj27Zt3G3ZsgU7duxAeXk5qqqq+KgI+XV31dXV/rMFgxEh2IYhtBUGLSo4ePAg7z2bO3eu/0hw6DiFo/B0Hp0vEAgEgkuH0+nEzp07sXXrVi7GaLEY/V1WVsYF26FDh7hfd1dZWek/WzAYkf3qV7/6tf/vXqEXNG2dQBaCQ4Ws95LV3p69Nr0RSIPC015cbreHf+/L0Q82IB6CHe/pKE/UKqF8BTsezJF5C9oMgvIV7HhPdy5pXIzr6J4Gme6glhktJiB7azTsGQhHw5603xotPsjPz+dpxMXFoba2llf2qKgopKSk8Hi6x09OlMf/noaHHIsvsB9dAApLxy9GHRxIGgGr3kql0u/TN+F6HUMlDVEew6c86JlTUlLCz6H4aQoLpdXQ0MD9kpKS+AgJxRVwOTk5SE9PF+UxSOuHxGw297s1FUEvScpEqAw0PEGZJrFAQsJitUGj1UKpUELWSz/guaQx0HPoZlL4C3ntF+M6uoenv0kwkPihSk5bYgSgHzSJBdq4lhYhBM6xWq38HFqIQOcES/tiXMdQLI8A7NLg8rj5NiU+VumnTJmChIT4UxU5HK+DfkP0YOo5/7EvwvE6hkoaojzCK40LWR4Ujp7L9Ewk6Bx6f/7zn//kn0uXLuWuOwFhF4736mKkMdjrh4S9nPsVbCSk6CVOFxlqRgI9DqEqUxpqO3zkCAuvRIfVAXunAp0KLTrl7MayeNjl+EMKBEMR9gtnlRZeNyQeOxRuG+KjtMzPx1rF2cjMzLzgdfBc6rnRaOTivrvo74uL8SwZzmmI8hje5UF2NL/97W/zz/vvvx8PPPCAP9RpRHkM3voRFpu/NzU1obSsDLUNTZDoEuCVa+GRqeCRKOCTytmrjAgtXYFgsELNEmmnFzKfB3KfEzIvq0O2DiRERyArKxNpqakXrA4S51LPxWbjojz6Q5THxSkPeunT6NSTTz7JtxMkk0wk2jIyMvwhuxDlITZ/P2cMBgMTa+Worm+GLCoJdnUCbMoYOGVaeKUKf89aaDdKIBjM0G/dK5HDJVPDpoiCTRUPX0Q8WjosOHHiJFpaWnhrTCAQCHrS3NzMFxZkZ2fzbQYDe0ELhg6XVLDR2PuRI0dQ39QMeVQiTKpkuKUqv0gTCIYzJN4UsCjj0BnJGjIuD/bu3cdbYiF0igsEgmEENeRqamq4YLv66qtx991386G/7du387nH4pkxNLhkgo3EGrUApFIZOrVxsKni4JMIKyMCQXc6JTI45JFwRyRCFxnJJxPT0IdAIBAEoBX8NBxKiwrmzZuHJUuW8BWhNIJFpj9oXpVg8HPJFBL9gMiuV5vF0TVnTXr2BD19fSc2LPOek9v8gQ/7N/pgaDLAYbPCJ4aSBIMUmhrglmnhhBwHDh7i81MEAoEgQFFREU6cOIFFixZxW2yrV6/m86FosdKqVav4vCrB4OeSCTbqom3vMMLmk/EFBp1BsuJxS2FpV3Jn7ejm6HtPP79/IDx3HVI0VlXA1NYKt8vpj1UgGFzwuW1MtDllGrQbjaKHTSAQnKK+vh4nT57ko1Yk2Orq6rg9zfj4eIwdO5bvBU3fLRaL/wzBYOUSjkFKoFKr4VNo+WrQYETGyDFxVhQWL4nG0qUx3C1ZEsO+d7lFi5lbFIOFzC1gbj5zly2Mxtz50Zg6OwppuQq01JfDaGgRgk0wqPFJZHDLI6BUayEN0SCjQCAY+hw4cIAPfY4YMQKjRo3ic9eIhIQEFBQUcAO6NLeNFiUIBjeXTLDR6lUF+2F1ysh0R/AXUHyyAktviMEjD8bh/74Zix88GMv+7nLfZ+6798fg2/fF4Fv3xuCbzD3w9Rjc97Uud+NNUciboIDNYoDdZoXX6/HHGh54PR7YzEaYO9rgcYv5BUMV6kn2sd+ez+Pu13X6vHSC/8wz6ZRI+bQBWpIuFXM9BYJhDz1baGoR7fFMc9cWLlzoP3Ia2tXgmmuuwZdffsl3qyETEoLByyV98sukUv4i6nVVKL272I/S7vSivtWO8noLyhssqG62QW90orrFhtIGM6qarWjtcPFjJ2vNaOlwsh+mj70E6QXYFVW4UVdegjeefRx/+N4dKD1S6PcVDCU6O31w20wwNZSjrepYv87W1szEe/CeYKojtACB6kyI5oAEAsEQhsQabfZOvWu5ubmYOHGi/8hpqJeNFiGQTTCyyEB7jAoGL5dUsHW9eOh/wd9Aneyfjwk2r68TDrcPFocHFrsHNocXTlcnbEzIWexeWNn3ruP03Q2r3QUH+zFTL1a4KjYPy5+pXY+OliaUHdmHz97+B97701PYvW4VXA4xQXQoIGH/ZAoVLPpG6CuK0HryUHBXeogJthIu1mjVdO8IpSYQCLqghQS0oCAtLY3PVQu2PyZtwxQTE8NNfdA8N1pJKhi8yJ544olfkw2X/lxgvzL6DHY8mKMuW3LBjlHrgCZHmiW0QjT4RqxymQJalRYpkRIu1KinzePtEmByuYwLNfJjSfDvJqsbLrebnUf57ERTmwWVJfsQk5DEnVoT2nYUF4P2lkYc27cNZibaxs1agNiEZCiUKiSmZSI+NYNVtK55CIJBDGuRkMVru1EPe1sL//Q4bWc5n9sFTWwSolJyoIyI4qu7giGFDxFuI1KSEqFWq4PWq56urzoYzA20npNdOMovXWew48Hc+X6WBHPDNQ1RHsOjPGiLpWPHjuGjjz7iQ6FTp07lez+TiNu/fz+3vUYrRGmXA4onOjqam/egIVHy0+l0/abR04nyuPTXIbHZbP12QQUSJrXe28ukJzxy/40JBv2gyApzgyQBDnnXj6cnSoUaidEJmJoug77DAaPFzXvbFHIJInVqtJndvEdNLpMiMkKF5nYHjzcqguVTKkdxZSs2r/4XskePR3bBeETHJfpjPo2HCTyLsR1N1WXQ6CL5d4fNwvOu1uqQwMST1WxEW3MDi1OKqNgE5pfJjkWwm8t+ADYrak4eg9fTtXKPRFd0fCIS0rJOia5g4RqqyrDtk/dhaKzDfT/7PdJyR/E5bd3PpZ62DkMLWuur+TkEjz8uCclZufw7xWnuMPC/A6TljEQUu1ZaaKFvrOU9eZ3+H0Sw/AkuLLb2FuhLD6Kt+jifq9YdiUQKBfudpU9eiMjkLMhVGv+Rs5F1epBoq8bUieP4UEd/9FcHe3Iu9ZxWnlF4elmEwoV4lvRkOKcRTuVBq5nNZrN/qx4ZDx9iEkMG6pige0VzT88nZNrn8OHD3ITHnXfeidGjR3N/utfr16/nwoR2OyAX4O233+blPXv2bL4YYThyvsuD3c6uOsTe8fTTjo2N5Ys+qD5diHp+yfYSpfjICnM94nsXbHI14iPjMCVDDkOHEx3WLsEml0mYKGOCzeLigo0uNCDYXEykRGnZhbMHRHFFC7Z99lKfgs3cbkBx4Q4s//vvkJE/mouc5poKdgPZyzEtG0tuuxf1FSew8/OV8Hl9GDvjMlz91YeQMWIM7BYzKosP4b0//5KLK7qRuqgYjJu5AFd/7TuIjI3n94uEGIV78/c/5cO0coWSxe+G02bj6Vx/3yNoYaKs7Gghpi++Ftd87WEo2QO3obIM+zZ+gi9XvsUFIr3cI6KiMXHOEtz0zUdht5rx5nOPs/P2cyFGc6ZIGN7yrR9j8mVXwMiE2sblb+DEoT38GOUlKi4B42ct5GmQQBVcBFgVM1QeQ8uJQtg79H7PLuRKNXRJGciacSXkaq3fNzgBwTZ7+hQkJyf7fXunvzrYk3Op52LvyvBKIxzKg14p9GKkXqDjx0+gsrqGr26mITtqXIeYjEAQ9pAecbM65HI6IPH5MGf2TN57SU6r7ft5HmAgdTCsBZtCpkJcRAymZKr4IgMjCTYvE2xyJox0arSbunrYZKd62JynBRsTN8crmrB97avIHhOaYCPRRQKtYMoc3vt1/MAupGblY/bVtyAyJp7PM2trrscd338CoybNQnnRfnz82l+QPWo8Lrv+Li72Dmz5HCcO7sYVdz2IKQuugoYJraO7N+ODf/4eFmMbvv7YMxg9bQ6qjxfhs7f+jsaaMi6eegq2tpZGbF29jJ27CckZubjtO49Dy8TawS3roG+oxZyrb8W7f/oFE4BezL7yJkxbci1sJiNW/vt5tDbUIHPkWC7ujuz8ErOuuIkJuMt5j2FDZSlqy4qFYLvIOExtaKsqRtOx3X6fLrRxKUidMJf3rkn76fEUgm1wi6nhUh4U38aNX3LhRiub7VDCxZ7xPvY8p91sOkNMRyAId6SdPkh9bsg9dqg8NmhlXt6RQj2e48eP94fqm4HUwdD67C4VrMKTqQOvj5QsuzAm1jxMxdKn1wu4maOFoPTdzf26nIeHJ3MKXr5wIVRSmDhLyxnFh0ET07N4r1R0QhIS07IQFRsPGVOKJOq8bjcTPie5oLNZzMgbNxUp2flISs9GTEIyLzDqpXParGhvbUZd+XHe8zVt0bXIGjUOcUlpXfGxBytNTA8Gxd9YVcrn3U1bdA3LTzY/b/KCKzFx3hJUnTgKfVM9kjKyeW8fHaOh2pGTZvBCJ2FWX36C9wI211TyHriUrDyMnjqHCbxbWIs3tCETwflBGRGJiIQ0aGOT+NA6odB2+UXEp7IXoLCtJhj8tOr12LptOxzsGWmSRsKoTIBdnQCXIgJuJthIwNEeucIJNxQczb+nXWgcyhhYNIlok8XCI9fyXmUasj7fhLVgoxaal6kvEmAuptjcTJ253R7uXPTJlCmpU3K02MDjJUeT80jUdU3eGwgkoqjXiQyTqphQIuETER3DhyO7Q+KrvbUJRn0LE28uVBQfxNaP/4Ptny1H1fEjXCgamhvgctr5/DKa/yZn4ixv3BRERMX4Y+kbq7kDDrsVSo0WCUw8BuabxSenc/FG9ttIzHbPn5QJShKO6gjWmiWh6/XwIdia0mPY+sn7WLfsFRzavp77s7vLzxFcHKQyBTTR8YjJGsXKSckXJGhjEhGVmtM1b030OggGOWSYlVYitrZ1wKmOg1MVA6eMCTUp9azJ2ROHfuPidy4YOtBvmnqNaScaFwk3Rde+z2a3FLV19XyHifO5M034CzYSXz726fMxEeJhYogJNObcLjLb4eZ+NB/M7aLhUg/vFaMVotTDxifaXwBdQoKNxqwJSrO5thKVJYfRVFPOhdnoaXORlJ4DJXsRk2AiEx70QpYrVRe0J4UEJvWk0XCFlglPWnwwZvpcpOeNQvnRA1j/31eZew3H9mzhw7eCi4tcrUN02gioI2Oh0kWf6l0TCAY79FJqbGxETX0j5FEJsCnj2QtMze1sCgTDBWqY2OVR8EbEw+aVoKTkOGw2G9MkTIucBwaBYPPyHiuFpBNKOaCQd0Im7eQ9SDKJDwqmf2TsGAk3MuehkEv5kBPTbadWRl4IZHIFXzxAPXGLb7kH33jyT3jkD6/h+79/FQ8//U/c/K1HkZyZy+eR0bAqXUN7c/0pG2t0bT4m5nrTk9SjRuKOetHcTBwGhnZpFSsNyZIwIxFIgpDuBUFp0Bw7SiMiMgaTLrsc33vuFZ6vpXfcj5TsEXzFK82fo3gEFxfquSWzHTEZIxGbNZoLtr5WhQoEgwVaYOBkjWaZNgYWVSK8UhoRON2bxh53cNpYY9d6Do6d52SPTRptoQY5j0wgCFOokeKU6+BSx0OpVsPQ1satV5wPBoVgo0UFUZEqxMdoERcdgehILdRqFaKitIhlftHsU6NRIzaavkdAo1XT25GJnQtXsWlFacGU2Vwc7dv4KdpaGrg/X2VaW4mNK95AS10Vn1uWyoQSbT9VeriQLzwgyHQILTjoGp48m7S8AsSnZDAB1ohCFn9A6JGR3fKiA3wRgVKpRl1pCVobavmxQBrmjnZuyqOppgJGQzMXdKNZXinPNHctPiWNiwfBxUfKhH5szhjE50+ANrb/hQMCwWCguLgYVfVNfP4ODQ/1HPok4fX5Ox58/O+Bu9UvefDlf4HqknZYjR2isSkIe7wSOZ+zafPJsGfPHr4Y6Hwg+zXD/3evUHcezROjZdk07BYKFJ7CBjai7Qkdr6mpgRm9G871ujthNXv5zgUtbXbuDEYHd20dTrSzzw6THR3s02hmzuiE2WyHmfmZTDZYTGY01h5DbFJyr4ZzSQiR4Dm2dytfMJAzeiI3x0GmPCqOHURa7khkjRzLxWPA0O2IidORUzABSRk53KZZyf4dqDp+FEd3fokDW9ayuLZxkZRTMJGlncJ7/GgBAq3OrCkt5uFKmfAiQemwmTFy4owuW29M9FF69F0XE8uHNUmEHT+4C5XFh3Fw6zqeJxJd42cvQnp+AY+z9NBeFO/bzleoVpYcwozF1/FhUBKO+zetxaFt63Fk1yZu8y1zxBgsvu1elu8kPnQquLhQnaD5bDIFq0syecj1iQgYzs1ISz1l+LIv+quDPTmXek4rBsmsTqgrHy/Es6QnwzmNS1UelVXV6HB0wqOOZs/zs9P2eSRorlFBwX73Gq0C6ggl1FrmNP7P7o6OMX8VC6fSsLDsUxethNtdzGIyMj+tWDQlCHuoOkk6feh0mJGdnYWoqCj/kTMZSB0Ma7MeLocbJr0Jlo5W2C1GPk8NNDhIOea57vqbDxd2/XcKmsdGvV0dbVXIHTuBCZjRiIyJ8x89jdNuQ0t9DYp2b+KCLXfsZL74oLasBOVH9yONCR8y20G3icxzmNpaMXLSTC58aLK/0dCKvRs+gZP67f3QatK07BFM2M3gds/IDlsgPjcTYIRCqebDpYH4rKYOPpyZnluAkZNn8iFP8qPzyExIAE1EJLuWAoybOZ9/37P+Y96T1p3J8y7nPWi0OpXMhQToea5gcCHMely46xgqaVyq8tixcxeq2l1waBKCNsB9Xik6GmKRqpNDp2TpsP/4szvgWJjA3zSRhX+y/5F1ALIAoHf4cLLofWh0rCHMGtWxSWLupyC8IZMfCq8NWnMt5s+egdTU4L/ZgdTBsBZsNHeLLP2TeYoOQzP7PrBxYEo/kgkmmnwfn5LOBYtAMFgRgm1wi6mhXB579uxFeYcbVmUCXzXXE5lUhoS4NMzMVCJO02WGyUfT0dgxKUuXFpa5PMyPeUhlUjjdZBWAmuISJuAk2F/twLqVL7E8erjpIjJhNNihoV2rqR2N1eX83RSXnBa0U0FwMemaW+51O9Hp7d/KhFSp4vPZyVD/2XRC7nMhzlqDOTOmISUl+DN7IHVQ4qOuqH6gCGnSHFnuDbVSUwaoUlM3XzDo+I4dO/oUbDSs6GLhbOYO/knbPwwEyivN89JGRvFudLqxAsFgJSDYZk2bHJJg668O9uRc6vm5CITz/SzpyXBO41KVR2FhIUrbPTAr49m3s+Phgi02DZNT5ZB3utFucXFzTTIWT4RaBgcTaCabhwu2aJ2KG0m3OjxQKeSIj1bjYLUdGz5+hb0YvUNGsHU32k5TbBbe/DVMnLsE1IdCJqHIugC9sxRMGIttBC8OtKjFZTXB3FwDt83s9+0FVl90iRnQxCT2unhMxn7ribaaPp/ZA6mDEovF0q9gox8QOYos1EpN47J9hacM0ia1fe0lSvC0WVx0I/vNaA94yix9KWvx8XyEmHeBIBwJCLbJ48eEtJdof3WwJ+dSz61WK58zRZvRh8KFeJb0ZDincanK48iRI6hk7zezMvjvkla8J8SkYiITbFKvGwaTk72oOllepdBpFbC7fDDa3FywxUWq0GZxw8K+qxQSxEWrUFTrxKZPX2cCpnPICzZakLb5o/dwdNeXyB49EfOuvYPPSRZcDLp62OoOboKxofKsvZ8D0G9fplQjY+piRCZn97qIL5Rn9kDqoJS6tftz1GKjiIId683RQyMw+bU3FwqULt0MbkZjgI7OoZYJtyzfz40QCAYLVB+D1aeeLpQ62N2daz2nyefBjgVzF+pZ0t0N9zQuRXnQ9/4godc1L432X+zkxtBdZAzd2zVE6nKz724vHxp1uSkM+9vtgZM5vpqenTscoMVoNosR7fpmWIztTNiKVbEXD9IbckTEp0GpjYLX5QjqyB5sZEo2N9NEvc39QfWse33p7gZSB8N6DptAIDiNmMN24a5jqKRxqcpj3759/iHR3nvYYnSJmJimZIm60drh5MKMbGfqtCrew9ZhcXExFxejRbvZBavNwW1vxkapcaLeju3r3oFcKem3h83Y1oqqkiN8e78AuuhY5I6ZjIwRo+G0W7Fj7Uq+cj8ArTqdtvBqRMYmMGHpRVN1OV95TxYD6FrtNgscVgtLX8nimYS03FGwdLSj+uRRvrdzANqvOj1/NLJGjWXhrXwvaLIAkJY9EgVTZ/MwJw7sRkN1KZMGEmh0UWf0sJEFguoTR/HFslfYZxHiktORP34q34KQ8nfy8F4Ymup5PAFo32gy2USL5mgYlfa4pnlxtEUiQR0XZBM0b+xkfj2C/nGaO9BadgiGiiIu0LpD89VUkTHInLoE2vgUyBS91+dQntkDqYNhbdZDIBCcRpj1uHDXMVTSuFTl0dDQgDaHj2/PEwwJ+/WqFBok6cg+pg8WR9ce0YSCxUPize7s8lOrFLCyv50uDxNLgIqptlajE7XlR5j4kPAFZNrI6K6Tu0Hx2swmJrS2YdfnH3LBRav3aWvA2tJiRLBzaNX+8f27sPbdf/HtBWlYklbTH9+/k29LSBYCaFiMVuav/Ncf+H7OJNQobNnR/TiwZR1f/EbCp6rkMHavW8XFocXUjtb6ahauke8RTZYFzB16fPrm33Bk5yYoVGqMmT6P53Pr6mXYtvp96JvquPjrblIqYKGA8s63H+z08cV3NExKlgl2rPmACzLqeSM7n2ShwGxs40IxijkSj19++Da/HsoPLdprqavkdjnTmcik6xf0D+1KRMOhLquRz2nrjkIdgeiUHMTljOXDon0RyjN7IHWw/768CwxdkLTTK5xwwoXgBILBSSdoJxbqQSNRRnPV6JO+ezr9jr4zf74VIfupdx3vCkMr9vobDKKhQ9rL+cuVb3NTR7OuuBE/eP517kZPncPNPB3ZuRFv/v6nTOAk4c7vPcmP0WdsQgo+fOkFFBduh83S9YKmYdjWxjqMm7kAX330t7jxG//HV3bu/mIV9m38BIdZXLRXNPWM0e423/zl/8O0xddyk03nCokuMss0fvZCLgrJOPtdP/wVHvzFn/kK0pETpuPmbz3G8/3gL/7ChF4SF3cnDuxCQ8UJHNy2DkV7NnMbnbd/9+f47jP/wl2PPMWvTxhLHwBMOGnjUxGdnn/GClASVKrIWMTljYeUCfOLzSUfErU53awqX3LdKBAMAjp5F/uMGTPEkGgfDOc0wnZIVCKFThmNsWla3hPWNSTqgYwlqYtQw+bqRIeFvQt8XsREa9BudsNmd0LF3okxkSqU1XRgz6blUGpkvQ6J2q0WbFj+OrdNmTVyHDcQPnLidH6Met7qK45j/+a1THB9jEVMZM299nYkpWdzW5U713yAzavew+wrb8IkJpgMTXVY9tffIDUrH3c+8gtuzJx2mHmf+TXWlGPs9Mt4D5ieCToSg3f/3694Dx31vtErValS8962t59/Ai111Zix9Hrc+u2f8LyQMKTdcWjLQtrWsOeiA7vFjLXv/QuFm9ZgBBNoS+94ANmjxnHBS4bepXI5j5+uafVrf8GhHRtQwPIwdto8nDi4i18jGXW/nJ0384qb2Hkebm9UWEoYGNS7adU3oPHIdlj0jfy3SUOhsdljkDp2NiQhCODzPSR6yQQbrWZ6//33MWXKlF4NygkEgtNQHVy/fj2uuOIK5Obm+n17ZygLhL4YzmmEq2CjIVGtTIcxGTomIHxoabdxQ+hSqQQRfA5bJzfl0dnpRZROw/+2O1xMsEkRE6VGeU079m1ZAZVW3rtg60XoBKgsPoQdaz/Afnb88jsf5D1wFI/R0MKHLT965Y8YNWkmpi++lg9Bvv/X3/L5aHd+7wnkT5jGDZ8v/8ezqC8/jqu/9m0u9PZv/pzPj8ti6dDe0jRsSYbJM0eMPe+CjaDhUxqupd15vB43mmsqeTqT51+JmZffyO26Lf/7M/wYiTba3pDEHcVL1ybmsA0Mt8MKU0MF6g9t43PZYrJGIWnUVL4PdCgMGcFmNpvxyiuv4Prrr8eoUWLJskDQHwOtM0NZIPTFcE4jfAWbBCpEMMEWyXsq9B1WuN1unqZGpYTD3QmLncx6+KBVK/kcN4eL7LDJEMkEXGW1AYXbP+DbVZ1vwdbR2oxD29dj9ev/j88zm7boGr47TV+C7b6f/R5qrQ7lxw52TfQ/dgBN1WVcJM29+jbMv+Er51WwpeeM5GnsXLsShuZ6RMUm8H2qA+lOmLMEi27+Oh8i3bNhNe9RozlstHCB5q9NYYLuyq98k+90Iwgd+q3SHLa6A5tYOTsQmz0a8bnj+daCoXC+BZsYixQIBALBBcfrJbMePjANBq1KypwMaqWUiT+A1i+o+XcZaKMEpUIKjVoBhVKBTib2uB3OfvoWyHwT9XZRTxcJLtr2L0BbSyO87MVI88Bokrelw8D3aSYcdguaayv4nLW4pNSQdhug4cjMkeNw/X3fxw0P/ACzLr8B0fHJ3N/UbmCZkfC5bDRvzON2cgEVgP4mv15h59KqVTqXeso8Lieff0e9a7QHtVYXhcuuuxPX3vNdZLM8qPx7ZNP1uJmoIBF44zd+iMW33sME3zTQUGo7u34yPi8YGDR/TaHRISZzFOJyxnBzH6GKtQuBEGwCgUAguKCQ1vK4PXw4VEG9ZhFq6LRqaDVkh0oOlVLJzXvQ8Cj1EGqYP81tU6uUTGBJ2Hksgn7GguTsvLyxU/k+o7TooHjvNr6akhz1qpF5jZETZ0Kl1qK86CBfUUnH6JO+00pO6oGKTUzxx9g7R3Z+yQ3bUi8WrUQl0xu0ApMWDdAWU9QDSd9pyymbxYzWhupTeaH5cRZThz+ms6FVvolpWV3nMgFI4ckum1yuZPHKuCAlMUerQ9taGvgqUkLfWIutq99HbekxdOibeV7I5AftlJCclcf3vhYMHLLLFpM5ErHZY6GJubSrbIVgEwgEAsEFhXrHTBYnjpS1YXdRCwpL9DhU2oYjzB09aUBxqR7Hy/Q4Ua5HaXkLypmrIFfRjKqqJthsDt4z1hc0oT579HhcdfdDXKjQas7nvnMrdzQRn3rdyM7Zd5/9Nxc777zwJD9Gn9Qb97Uf/ZavCFWHuOd04Zef4cWffhN/+O4d+OeTD3O7bGQrjYZUA0yefwXyx01B2ZHCU3lpb2niQ5q9QcJx8mWXY8T4aVyErfjnc/j3L7+PUZNnMjGZjGN7tuKNZ3+Cv7O0zSzN7lhNRj4M+8cffBX/79F7sfmjd5E7ehIuv/Mb3Jab4ByQSNhvS8l71i71Stuwn8PW6bPB1b6GZaIDUu0EyCKmsjzIQ86HQDBUEHPYBvf8sqFcHv3NYaOetY7Wdhgaa2DUN8Nht54e4gx8+L/z/3d7K3Wyf9TD5vXakJSZiaxR4/vsBSOzHDRvrL2lwe8DPt+saxJ+Oh9eJDMY9BmAeq3ymLCiXi0afm1vbUZdWQlf+UlGaSOiYpgY6uA222iOGQ2b0hBkwAQI0T2NALSggUSXqU3v9+kKR8OvNGSamJ7F4ixBhC4aCWlZiI5P9IcC6itO8nlw1IMWyF9DVRkfziUkEinPHw2xUm8a5YlWrhoNzex+dZkAIhHbfVGE4OJy3hcdsJdAt6oRHGrZ0ATRgRhXDEwo7c1IpMViwXvvvYcbbrih15ePz10Hj3EdfJbtrNZaIJGziqCeh07dFezHrmMPDVnI+REIBjsBwbZ06VLk5+f7fXunvzrYk3Op5zabbcCGWs/3s6QnwzmNS1UeR48e7XMvUW4s19jOV1bScF33OV2hoo2MQnxyeq+GcwWCcCMg2CaNG93rXqIDqYMSvV7fr2Cjlg9FSg+CUKHwBLXEgkFmPZYvX44bb7wxqGDr9JrgtW6Hp+3v7KJZa0ymQKe9HW5PCpwx/wdt7EwoVboB5UkgGMwEBNvChQuRk5Pj9+2d/upgT86lntODhuIP9ZwL8SzpyXBO41KVx/Hjx1FtlfYu2Fg61CNF20G5nA7ewzRQaH9osiWmVGtB89UEgnAnINjGFYxAbGys3/dMBlIHw3ZI1GPZD5/tS8jkx+Fz1rGrioPUpofToofBMxaazN8gMiZzQC3D843L5eLXEUCr1fKbTr2HGo2GXzvdA7rFXq+X3xMqmIDrCZ1L513KaxKEL/3VmZ4M5SG4vhjOaYTrkKhAMBwZPmY9JHIapGdix8oeDkx9umsgcTXBx1qQTruFiyK60EvJtm3bMH369FPupZde4n6LFi3iL9b6+q5NeqkwiouL8cMf/hAPPvggrrvuujPOC7i77roLq1at4g9EgUAgEAgEggBhK9hkqhxIlKPgNLag021Hp8MEt9OCDrsOtebZ8PiUvOcqhA7CCwbNI/rOd76DuLg4fPOb38SVV17JW56Up82bN+PEiRNcWFJvGvXGNTc34/LLL8cvfvEL/O53vzvj3BdeeAGPPfYYZs6cyXvYBAKBQCAQCAKErWCTyKMBeQ68vhwmgOTwOu0wWuQwOLPgU06EUhXBhxCDdSHSHqXPPffcKUffSUD997//xSeffII//vGPKCsrw+HDh/HOO+/gzTffxPPPP38qHPWO/b//9/9w7NgxPom3NxITE/kE8JSUFN6rNnbsWC62aHJhVlYWSktLUVFR4Q/dxYQJE3Dttdfi5ptvPuPc22+//dSWQ6FOShYIBAKBQDA8CN8hUYZEGgOpehL7VPPhzw5HKiydU5GQmIHIyCgubHoKtpMnT+KLL77A6tWrufgiV1lZyfdgJCEWEGV6vR47duzAyy+/jK1bt+LDDz/ke5uuWbMGGzZswMqVK/nfLS0t/phDh+ah0Twjmk9Ck3FNptNLvwUCgWAoIve5ofJahRNOOL9Tem20T4e/hvzvhLUdNq+zFu721exB8CmcTcdR2XEFjKr7kJeXh/j4eD65tmd+Hn/8cd7Ldccdd2DSpEl+X+Dpp5/GunXreI8bDTtSvsiP5pz94x//QE1NDX75y19i1qxZeOCBB7jwo/w99dRTmDdvnj+WM6GVriUlJfjVr36FJ554gocjEUi9da+99ho++ugjPiRKvWoxMTFnhAt2rkDQF2LRweBeEDCUy2P37t0wGAxidEAg6AbJK6fTyXUFjaYFYyB1MKwFm48JNlfHJ5B7P4Gr6SgabNfBFvkdZOfk8QcSxd8TEmw0t+z+++8/I23qSSsqKuJiivzpOsiPFgP8/ve/R21tLT82depU3H333VxM0TyzvsRUf4Kto6ODLyJobW3lAlIINsH/ghBsF+46hkoal6o8PvjgA96IpheTQCDogt7zNHJ3zTXXYMSIEX7fMxlIHQzrIVHijOxLpHwzVnpY9AW18no+FGm+m1qt5i5wU8iPeuMoPD3k6G9y9De5/5WMjAyMHj0aUVFROHLkCLeRJBAIBEONgDFdMm0knHDCdTnSG1Q3gpnxOhfCew6bLApSzWh4yeCiLwo+aTQTWV3z1vpSou3t7WhqavJ/u3RQYdGwLAk3mhNHLVOBQCAQCASCgRLegk0eDbl2CtwYC7viMki0o/mEfuoZ643s7Gy+UIAWEdBCA3K0UvNCiCUaftizZw9fwECGI3uuCCUyMzP5yk8SkGQ8VyAQCAQCgWCgSGkKWyiOCObfmwsQ7FjAhYQsBp1xzwKJv4Y24QpERzMR18fEVjKPQYKOFgt85Stf4W7FihVcXFEXZXdo2JT8qLeOhllpDJn86DvFQfNA+kqL5r/RQgUyEUILGCgdCq/T6c7oASRzH5Sf9PT0U/GFmoZA0JNgdSmYCxDsWG/uXMITwY715s4lPBHsWG/uXMITwY715s4lPBHsWG/uXMITwY715s4lPBHMrz86fU7mbMw56FuXp0AwxOleV4K5UMKQk1gsln5rzanATGR0FyJ9QeGJ3sLT6sl33323z83fA3TfyomEVV/5oF4smuzf3ZQG7eEVuAYyVBuAJnHT+DL50cQ/o9HI57CR4CJDtxQPCUQa2gwG2WgjY7gBKB0KS/GQLbZATyDliSYVUnq0WpTCUF5CSUMgCBBYdEDGl0PZ/L2/OtiTQB3pq371hCbV0u881N/vuaRxMa5jqKRxqcqDVsTT1A+yKdkXTsMKeG3F3DC6Iv4uSKS0DV/YT6UWCM6JUJ7ZA6mDEiZYumpfH5DgIGET6H0KBRIjFLa3yft0Ia+//npIgk0gEJyu/LTiaOTIkX7f3umvDvbkXOo5NU6oh5h6p0PhQjxLejKc07hU5bF8+XKkpaX1Ktg6vWa49C8DjkOsBd6OTtBuLtnwxj4MpTYTcsXpxWACwVAhlGf2QOqglCp3fy7QUxTsWG+OEqbesGDHAk5UUIFg4FB9DFaferpQ6mB3d6HqeXcn0hiaaZBfb3R6TfDamFDzHmHhmthLxw1pZztg2gBby2rYLTX8hRXOHDnSgC82lcHI/j4/6/1CxNGAuuOFWLHyMBrtbgg7A4MTqmfd60t3N5A6KPqiBQKBQHDB6PR0MMFWBJlaC6lKDYlUBalEDRk8cBo+h9VYxXvtAkOt4ci+fTX4eG0xmMzsEmzOVtRX1+B4aStoOdu55tzt9uLQoXo0d9iDizFbDaqLduDNt/eh3uqCy+9NuJ1OHNq6FZv54ro92HuoFs3M7wDz21dcj3qjP8ZOL2CvR+lxFle9ER0drajYsx6bNnYtyuvpdnY/VxBWCMEmEAgEgguHRM5EmpbpBiskTJZIva2QOmrg83hhd3hgs9nDXrCdRdsufL78I/ztlV2gWcznuv7fZHLghRe+xO4TLbD4/ULF1N6GFx56AHffcDNuuvkn+Pnz67DT0IYnvn4fHv3TKqw52gY3qUuvA2hei1f+9hGWf16C4yf2Y+UTd+GBr96Fu+64FTffdDNuuPFW3HEX+87coy9vwKbSgeZGcDEQgk0gEAgEFwypIgnyqEVwmkzw2M3odNjgYc7s8KHCuBRWT/Ate4YDMTEa/OlPN+PySemI9vuFSkysDn96/Tu4+Y4f44e//Cn+9Oc7MV2hhnLsNUit+BL1hzZhq94fuBtpkxbgm28XYvPuQhR+/mf88oc/xh33/hmrCwuxh7kPfnELbpow0NwILgZCsAkEAoHgwiGRA/JYdMpnsTdOArweN0wWCerN+VDqRkMbEc9X5589D64J1ftX4G933ol7mLuTuZ+9uALrSlpgPvEBnv/WfXiA+/8MT/xhHYrYGTSQ9+67hXjphWfx0jNd55B7ZsV+7G8CnC3HceKDn+Fb932169jDz+K3LHy52YHnnt+I3cf9PV1Olkb5Gjz/3JrTft0o/IyFXfsm1q1+Ht//yl146OEH8dWv++O88wHc963n8cEJM1qc/hN6wWZz4e239+JoVRts5EHpdr+2bzyJp17aCLLw6aHj3ZDJpEhJi0VkVDziEuKRnBIFDfVmqkZh7vQ4mF16rN55tm1QhVqL2PQ85OTmIS87GQlx8YiKTkZWXh5ymctIiEKkSkiDcESUikAgEAguKBLIIVVlQyLTwdfZCbsnFu2+RUxo5CA6OiaoYGs4sgf7N32JYnk+0rLzuVmEjORYOOuqsP6l/+CQJRERKeyYxgB9xTa8vrkaVqcXRzatxbZ95aiVsHOy05Evr8HOnYews7gBJ6vMWP2fMtgT05DC4ot1W2GvPoFKdt62HZWoM1i75ol5rHC2l2LH9tLTft2IiI6CLjoe0TEpyM7LR3Z2DvKY2KE85qdEINFZhP9sL0OVnsuwXnGydHd0S7el/Mxry8/JQHpiFGijxdCW6NErXYeMGYsxKs4CRekn2FzD0ump9gSDEiHYBAKBQHBhYWqDVsNJpBI+Qd8njUOnZhbi4lO43ctgpk5K9tXi0MlOjHn8OTz17HN47rnn8P27LkeG14rVH7di9L2P44e/fQ5P//hyLMxvw2ev70WD1QmXtR6K5CmYdAc755nf4LlHrkGkqRW1lTUoa+7E1q1KjJhxB+7/8ZN47Js34JbxOn+KoTPmshkYP/cGzF5wL37yzNN48ocP4r6br8d1S5di6YKJmDHCga3bilDbbBzQys66mjOv7blfPozv3DoD6exY11rCEEmfg7n5OszAQazYVI82JgzFPjuDHyHYBAKBQHDBkfj7iCRMOihkPugiNNBqNdxcQTCzIFWYDkPMtbhxMqDupufskTloHX8frp0RgbQYIDIjGzkxacjdWIgihwsdWddi7OTpuIzMXkmZzElNR5Zag0T2NVLRhjTfFrz68Mv4dEsRrAVjMWbp1RjPjoVmHe9sfB47rGUf45Unf4Bv3XEn7vzW4/jOi1thKqlCm90Bsz9cKPS8tv+F9PGzkT1iOpo/WY1Ksx22QbSmQxAcIdgEAoFAcFHplEjRyfuMQhvoO1+MXLAATxd+ie2FNyLmw9/hien34L4fLcc+dqznsGeodLQ58eg3tkJy5RP4w5eFKNz+MTa8/h0sjNUhyh/mkhA9AQVjxuK7s7di3WEn6tr8/oJBixBsAoFAILigSCQqKKLmwOdVw+7WwCVN5fPWyABvb0Z3M3EYsaYv8UUR4Og2rqix1CL++HJsPGxDsxGwNNah1tSEmvmTMFql7HO1ZaNFhvVV0UhKn4VrH74fN1yZjVxPBaobvfCUNqLNYucLDJzGNjQe3Y9St6t3cxsGE5z1BjRJFGjQjEF+wShMGpeHdCbUlIYK1Ps83EbbQNBY2pBUuh/FjS4Ynf5rKz8edNFBv0hViMzMweglM2FbvhpVVbUw+A8JBieyJ5544te0NUJ/LrCXJ30GOx7MBfbICnaM9tY8ePAgCgoKEB8fz+MWCAS9Q7aqDhw4wCc30/6zwepVT9dXHQzmBlrPqR7TC5devMGOB3Pn+1kSzA3XNC5VeRw7dgxRUVHIycnhcZ2FhAkzeTTcTgds3nS4ZJOh1I3g59D8NcpvTxTWYpgbDuGLTeWoOLYDu3btQHmHBJ1yOdJtO7DjSCPKinZj77YjON4eiYw7bsRtBfHYtakUEQkRmDg1A5E+pvRMRVi/042I1AzEqOzY8P9eQjETQccbatDs1SA6dzymTshBxJEPcLKtjL2X9uMYc8X1rThcl4YFS8bBqreiw2DFvCsKeK8Zu7vQnzyCquKt2Ftfg2P7j8DjqkVNyX4c6nHuqKxYaLou6SxsNjdWry7CpHl5yKVwxnqgYj0+K6/BiQO7UFJyBEW1TtSZM3HDTROQrFXyTb0Iu8WCT155BWu2FaOmxQGPLBJROQn4ksU32R9fhFIBhVYHHNiC7ZZUpEwYi/l0X/xxwHICB490oNEW2+3aBOeLUJ/ZodZB2c9//vNfU6D+HFXOQIShuEB4+gx23Ol04vDhw0KwCQQhEqj8ubm5iImJCVqvurv+6mAwN9B6TnkKCIRgx4O5gaZxMa5jqKRxqcqjpKSkb8HmxyvLh08xCTJNLl9soNH0PoctOk4Jmc+OY5+vw5GqCpRVVMCuy0Tu1Gm4ck4Ejq/bgJKyEygzxCFx5CI89O05yJBLUVvVhuSMGIwakQhNJ3sRugyoatEimVZcqowwrH0PO6orUVpRD3fmdIy//EbcUiDDiNgi7DtYgkMHjqPF5oU8fx5GsPTmzs6DnOVHI5dh0rRM0C6tUlUi1JJaODoKsXNPNaIjnbC2NaKW5bHnuelJkXyVZzDcbh8qKgyYMI3ljYWL1zqRntqONV/sRPnJUhiVcYjInIbxCZmYc1keYtVynhfCZrHhozdXo91jgt3BZJw8ESPmj4SZxTfZH5+KyTu5PBYjs4FaaRZyRuRiMt0Xfxxwt6GlTQppRPLpa+s6IjgPhPrMDrUOSljArpB94PF4eMuNNhQOVrGCYbfb+UODNjQNRmBT1Ouvv77fzd8pix7KLPtbxuIMNQ8CwVBiIHWG6K8O9uRc6nlbWxvvIYmMPNVm75ML8SzpyXBO41KVx7Jly5Camtrr5u/DFy/cDidcDleQ1aISds/lUEVooZQxkR3a7RcMIkJ5Zg+kDoa9mCabPWabDTuPHsXhsjKYrVZ+gQKBQCAQhDcl2PbyL/D96dMx/Sy3BAuvfBSvHulAvcMfXCDog7AWbB6vFx1MoR6uroYzOhr1Ph8KKyth6OjgXY0hdA4KLhk0Jt+Kwvd+i2f/+Dc8v+5si9vni+effw/PvrEJhbQzs0AgEIQN6Ri99C488OyzePYs9xR+9eS9WJKlRdy52hQRDCtkv2b4/+4VGjulXq3g24cEh8JTWJqfEIzA2C51Ewabw0ZirY2JtYrWVpgVCiiTkmBnn3qrFR1GI6JYXpQsbm6MMcQ8XTLcRthbj+GTdY2QRkdAF6WGHG647a049sk61EmjwTwRKSe/Jub3Dj470I42iRZJyZGnJplu+fBDfP7JJ/hyxw7s2LGbuTJYdAnQxtC5/kBE00Hs2Lwe769ax8JQWOYagKMnLehoMSI+J47Hye+aowH15SexfqseccxfpZD5DTQGz4uXJrq++irWb9qELTzu/Sg8VA9feg6iNAqo/dYdfW4bTMdW4q0vjqPal4ax48ZicmZgkXsTyo/WoOy4EbpTeWF+OzZj4/ur8NmOvSzeNiAlFpFxEdDABqelFDtefR/rNm1h11+OymYfYsakgkxelm9bjUNVBjRJEzG1oNu1DTH6qzM96a8O9uRc6jkNj1EdDHWY70I8S3oynNO4VOVRVFTEh2H7m8M2/NAgMikD2ePGYdxZbjTGFGQhUSuHUkwcG5KE8sweSB0My58JrYZoZ8Kgtr0dzW43ojIyIImIgDwhAa7UVBxyOHC4qQnNTLg5B0NPm9cCu/4oPntjNQpPNEJPkxnIz1CENW9+jH1n+B1hfv/Gy/98D5/tLEF9t73oPlv+Bd55cwU++eILfLHuc3zx8Yf4ePU+HDih58YZO71upr+O4MD6tVi9+hN8QOH87oOPt+Cfb2/He58VgzqiutakMGw1qDq6Ha+/tRd1VtdpW0S95MVqseGtvy3Df5d/jM8o7rVr8Pmqj/HRJ0dxotnStR8ei8Vta8BRJr6OaWZj8hU34v65Gafzt+dTvP/fNfiwW17Mdduxf9NqfPzBF1i3di0+fvNdrNhZjGN6G1yWBjQcXY5PP/gcn336BT5b8SFWfvg5Vpe1w+7x4f5bR2FyTAuOfbkBR1mE7lMXJxAIBALB0CAsBZvJZkNZczMTCE4kjx4Nt0LBhYCVqU93XBwwfjzW6vU4ykRbm8nE1WkAu90Nm9XKXAc6Orqc1eHueol3+tDpccDKhJ6RHzPDbHWesm9jtzuZIDHDau6AkYWxuTxw2CywmjpgMluZOGBR+MMy9QGPywazPw2Ky2pnQiWYWFDHQpU6EfPV+9Gib0WNkcVib4er4Sh2SWchkQnRzEgWpb0NjrojzO9yjJS3QGuqQHFrtwizrsXNP/4blm/YgA1frMKGZTciast27Fy1CyfZYa/diNqPn8ITfz0Jfe6DeJnC+d3Li5IwVdGIuq6Y+qXXvMgjgFH34Ud/fRcfUdyf/QvvPD0ZZb96G3sOVqCen8yElHEfVr7bianZBZg9njZWYcLMYULLht/jNz/8NZ797xbs575dFK/8D+q1WZj/8gZ88ekyLHvcjeJDh7FxZx0MZSdQ+M5b8P3fq3hm5Qas+ufNuH5cGZ7/9350WJhgH7UAszOdmGb6HKv2+8CKQSAQCASCIUVYCrajFRUwdHYiOjsbVvadeo+MzFFvjJH52+VyyHJycMhgQEl9PV9hEeDFF7fimccewTPfPz258/svb8O2GnbQUY+OI6/i0SsXYgk/dg/u/9GKU1auX3xxBR77xj34/u3TcdnSK/HU2iN47dcP45HrpuP6+3+EF1lApg+6MB7F4Q+fwb0snjk8rtvxyAsfY6vef/wMNFCq0jBzgQw1rXqU17CrcTAJqm8C5k1FQmIcN/boaGtFw+F98M66ARMmeOA1n8TB4qARspKTAWkZSFVrwCQsx+UE9m4DFjx0J+76ygKM8fsTY+64AzPmz0eu/3t/hJwXWpaflo4cmQxavxfa9HAcPoA1+bMQm5eILL8lS6kmBmk3/xn/+sdv8NRX5p6Rl6Kdc9jNHYPxLNNSpQppM1n+XZ3QtBtxojEV+zdcg2kT1EhgFxudlY88JgQLqurR6vXCAZZG/ihkFySjqr6B99AKBAKBQDCUCEvBlpmUBCV76TY0NMDs88HE/DqYM7K/LU4nExNtQHk5EphQ0zI/GicOYDjyCcrbddAufAbP/PpJPPPVcWg9UYzdR0tx+Ggl3vvtcjgWPIJ7f/oMfv7AWIzSHcAL7x2DyeZm55bDphqLCbd8Gz9cGIcv//4GSmMuw7xbb8PSHAk++vBLVNucoFHK/WtasXezFgufeQZPMffMT+YjGy3Y9cl+tLLjZ3a0SSCXqZCdm4bGDgsaDSaY2lpw/NBWJKanQBehZQVhQbtej2N7XZgwJR9z582AwiNF8eGTQeJjeNzAiWM4FqVEW3wUYpmX0y3D9qNpiEhORnq69gzbP6roaKjtpTj5yQt45CtfwVeZ+wq5bz6FX738ZQ9L2gPIi9kEV/lx7MlKQKdOzQ0yOq0WGBprkDBrGrKT4xHr/5VJmMiUR6UgLS0RiVHaM/buc9iZ3OtUQs0yLZGzcNm5yGi1QN7cgSaPHHZrJDQqCZguhDQ2DlERMcg6UYMWtxd2yBAbl4iImFicqGmAWwg2gUAgEAwxwlKwpcbFIY3mrFksqKupQZvbfVqsMSHhKy1FRkcHslQqxGg03CbQKRQ6JORNx8zL78Jdd96Gu26egwSXDbYWA2qMCuysTMXMm2/GLXffhbvvmIUZGZ0oX7YblTYXbIpYpBTMwvxrb8ANl0+CtMmBpNGzMf+6KzF3XBrsJytg8Xi4sCkrrcaWrYUoqa5GFXPVdeUo2nsYh3Yd58OCPSWDRKFAxNhJSK41wEtGG00OVJ7UYexIHWKi5EyxNMPQ2orClpGYlh+NkbNnIk0qh6LoKIqN/nlZbUdw4PP38M/nn8fzf/4nnl9uQMSMcZg0KxcJ7LBXIkODMhuR2ghEB1YqdEeugToqCenZ2cgOuIwUJMfrTi1s4PSVlzYn3A07sO4/L+FvlI9/fIDXtgCTvzYXo3MTuKVsj9cDu92KmNQkRGvIdOMAkbDyZOWvZWUisTvO3t5FqYRCqoCuzQIbTdgkr+hYaCOiIa+uh8njDWLzSCAQCASCwUtYCjYlEzeZTLTlsZe2t74ebbRSlIk3h8EACRNwCQ0NGBsVhTQWhrZ7UKvV/jMZSTORnT8K4zPY3zRsGJeAJKWKDzk6tSkw5lyBWQVqMI0CbUIyknXxSD14EpUuNyxJOUhITUZGvAqyxFRkZI3HqOQoJCQw8RAVA4oysC7KorKj1laBoi++wEaafL+rFu3/n72zAG/jSN/4a1uWmZkh4IDDTIWU0rRNyszcf+nK7RWuTeHKeFe65u7KvTYNtg21AYehsR1TYmZGGSXZ1n/ejddRFNmW07ih+eWZR/HO7szsrmb31TfzfdPmgOBg+i1aQeMEDJqKSW018ChPRnKdEfn6szEx9kBbjNX5KMvPwLZaO1SlbMHuXCGaivJgl7sX23LaoG83iUqLUZi2HRtWLsPPS7/FG4uBuHGjcMakSEUo0cHEVfzHgRPtrCkWr6EYdPpNePK11/B3kV5jev5e/N9lkw85t17bkt0IfW0W0ndswrqff8D3S34Tgs0bV1w1BaOjfQ8Oi/4R6ETS1oo2J0eYnLSHRwk3tqOD6/R5usBJiHXFMdVRiDgHR3g2t0Avjpc2NolEIpGcTNjTw7KvpGItr6ekYi1PTT1Bi5m7qysGBwXhtJAQtGVkoFkItc6cHPgVF2Oinx9CAwMRKBKXe7DVhZ2OAvYdehiE+OkU1Zs6O9FhEslRA41QO/1Rr/b+4zD2smfx71W/YnX35P6P8I+X5mOsyD88rA63jEX8VCM8nZORmluGPbHTMEKjhTdMaCjMRd7uX5CU/BmevPU6XHfZk3hjyTIkNOdg885itBmEBFGdDn7+BovfvQ1nN9WjpboBVXohYETpmg4DBhdsQ35mKXJrDmxT6TAY0NHefvjQ6mH00ZY9dWiLvh5/odPBUnG+95yLUYXFKKpvUixbLN+O/+zs0Snq6xAXuuc7fRAHDe1kXEdNfHSIdhYXoZRhRIJ8EGjfCY2jAaJ48b0RqaEOjW2NKBoWiSCNg7LMirKtRYe86DD4iW1mEv6kw1pfspZUrOVZSyrW8npKKtbyrCUVa3k9JRVredaSirW8npKKtTxrScVaXk9JxVqetaRiLa+npGItz1pSsZbXU1Kxtk0ikRyOeV+xTCrW8iyTfUtLC/pKnNTPnRnjx1q+tcSJ30aj0WoeE8timT3BWEJuLi6IFqLsspgYxNXUYJg4ZkJwMIKEkGNSxdohQ6K94KbLQWDSx1iyrQnFtYBOCJPc2iJkz52Gsc5aZR6YrfhUbEPHnqVYtBto6YdX4vBRISjK2Ic1P25E9LRJ0Gg5YFiFwtxM1LZH4MaPd2PD1t3YvVukJe/ghUvikJKwEwV6w8GhQedQeA+bj7dfccGOhd/j008SkCE2c43fy+8Gdn33A/733YFtKhnff49dmzYhv+vvnulHWzzjMfaM0/C3Bxrx1lXv44eELBSJzc4urggICMX+LXuQW1WrzEHsi1HTtgHuGUgRje4w6FG6U7Rfa4dWHy/EhZRjwlkr8XtqG6rV+1awH/ujwxHQJc50QrAZmusxIjIMjpzodhLDdXit9SnL1FcftExH0s/poc05pNbyrKWBeJZYplO5jmN1P7hNIpFYp7dndn/6oD0FT1+Ja9MxoBsDu1nLt5YootQAjtYSy+oLRbS5uiI2IACzIiMxKSoK0WFhimWNQ6Esx1axRqKHB+H6+8ej8OOH8OxtV+OWJ37C6v2RuPOuyfB313YFjLWNyWcPwayp9tj61NW4/bquCfz3/h0vfm3N6eAgTiOGI8JnEiZgMCZNdhHXwQ6oyxTC0Rs1nufhynMHY3jcYAweLNKUiRg5JBRjkzYhrVSPejUmm70jHNxDEHLW9bj+DCMMO7/BOy9+jYQmD0Rc+hhuO1+Djt0f4GHVsUCkh9cVYU+zFwK6iuiRPtoyIWkzmkVb6JEKB2ehHYdjyJwr8cCsHOz47EN8+t/1SIQv3EaOxqR9O1BdUI3ipgNFd+obUbXuDbz48kf45OvPsWbFG3j09nvw0eY6uM2ei+C2fGx5+Gpcc+O9uOfdTsTEj8CMyeJ+x0Zh4nXz0P7hI/i7et/Sw3HHzWPh7eYIe9ShuCAHJbmViAkPheYkF2zsj5b9yVrqqw9apiPt5wygai3PWhqIZ4llOtXrOBb3g9skEol12M/M+4t56k8fdFiwYMHz7Gy9JcJfbpwrxo5qbR/LxP35yUZY5jExv68IwDwJ7usoHkBeQrh5ubvDvSspjRdt4T7mGAwdiIn1Q2SYEHTcIJSrwSEIMUPCMXRIACKiAmGoa4Sjhzs8Q0YgfuJMzJ8zDAEOok3qsaGe0No5otMpFPFjIhDoJeqyc4OLdyjGjAmDp9YB3r6u8PR1R0dDExx9vOApBKRXQBQiomMQPzRAsfpYjVnsIm6QXQiio4YifmYE/MTltTc2odkUBO+IeEwbFwA3sU05ViuEmb0b/O1dETp5NPydHTBiSNe5cX6eWzBCfDvEA9oFDi7BGDJ6OCJDIhEZYBLb7GFsd1aELVPw2FkYN3IoThsRiDjRPg4jKnWYOtFpfm5oRVsvbQmwc0H0xFE4bUYUwvxcxL1xhsYzEDGB4le90RN+YTGIGRqJADcN7Hatwu+uMXALCEF8kIuoSvz6r81Hgc4NXsGRQgyKa+sXgOj4aYiPC4WXSdTU0ooOH38ERJ+GCy6cjLHifng6u8DNLwSmkmp0urvC1eK+2VfsxLpN6dhRFYgz5s3BSD87OJ6E7w81avawYeK8xY8Yyz5lmfrqg5aJ9Lef89chBYJLl/NPX+lI6vgzzuNkqeNY3Q+50oFEcji2PLOJrX3QzkRbXB+wMD4IbFlNXoXmPVZAYWUNW1axl5y4dLTVo2rdS3hynQt8h56Gm+dOxehwBv04+uxd9Bb+u7MNtRFn4tX7pytWxJPRxtbfPtNXH7TkSPp5bW2t8guRL2tbGIhniSWnch3H6n58++23CAkJwRlnnNG1xTocOm0S9XHpQU/xI9xBlMOyJJKTEVue2f3pg7KnSAYEB2cPBM99AFe5JqNw4w94ZWVOV87R55VFDSi0i8RVV0xHsPj75B4QlUhOTGgbaBRiLzU/Hzv27UN119KCXEvRJkxGGPR6tLYZbXCesp2Ojk40txjQIdon3SckxzNSsEkGCH61QnDagx/h/TdfxDtXmq+7cHR5550H8f5j83Eag9FJJJLjjk4hhnTNzUgpLITOxQWdISFYk5aGwooKIZZsdFqoSsCyL7/Da+8noFT8ebTcHJKSSvCXh5civb4VB9fMkUiOP+SQqERygiCHRE/s4cqT+X70NiTK4U+uD51eVASjaJedjw/axPEVVVVoLy3F+KAgxPr7w120gXN4eqRsORZ+lYc9VTF47PV5h8SOPIymbOxPy8LSTc644q7pCPNwOjyeYxdbtuThldd/wwsLr8Fwfze4dW3/M/nmjTewdc8e1HT9TUZf9hjOmzke4zls0E0dstcvx/oNqdjtMRePiHOLEudWtH4R1v/0I9ZRyVqgcfFE5IWPQLPte9QUpx1SBxAKVyc9HB1q0MAFuy1Qj71xZhRKE1bgpx9/FGKZDoOTcdljF8GYuxO7NyajddrVePniofBxPRDQSle4B3tX/gOfV1yIq6+aidaUBKxXjjXHD+Ejp2PuXddiuh/gdBKaj+SQqEQikUhOCCjWasVLK5uWNGdnaHx9lVVM2ukUERyMcvH37oYG7GNwdCHqbB4e7QtDNaqLMpGwKQe1+gOr0xzPJKU1oLjeAT4REYgIC0KEZx3SV32HVau3IrGiayfSlI/96an47dfdyNi4Bnsr26AzAlp3L/iEHDw2d38lyrrKCw8LQ5CnFhn7dQfr6E4hCA8PQWhY78c6aezg7tSMjpZK7NxdB0c/D7g6O6KosBpb1u9E+m+/YI9oSwMDtreVoUwIuaUrt2Dj2gyUVDcjo7AZabl6eIoyw8zqDg7wgpvQ6Lb9VJA4PC/o+n+PsBNRBdIryNZfYdyf+9JjyRqq9wRVZ09eohKJ5CD97TN99UFLjqSf09pCq4itVqOBeJZYcirXcazuR09eohRr+TU1KBXfXV+R1yFEGw05jSLp7O1h8PZGocjX63TwMpmUaAAsV2mLUYeGijyk7tqLzLw85Gb+ju2pjWjQhOL02bFwKk9DWnomMjJzkJdXjKKSBpi8fOHk6IDW4r1I3r4DvyXWIyDcHkY7N9i31qG5bB927c0U++eJVCnEjgNK69qxa8t+jB3djMrCAuRm5aGsphEGlyB4istob6xGWU4W0pPTRTsKxXHiDDxc4OyqRUtDKzLSS2Co34v9WfXQtWvg6GyEviQVu0U92Tm5Yv8yVNbrlTWQXYU4sbdymddubcKw087E/U/cgkvPOgPnTA5E9bbVSCswot5rBCYMcVXm5hrzfkVCehPSK10x2SkJZYPOxxB/dwwaNBgjpp+Dc2bPwjljOpFVGIuxZ12qlHfx7NMxJdYbuxJbD9ZxjthXSdNx5uzTcPqZvR/r7eKAsIA2eHi6I6NsFJ5850pMjPJFbnoNinMLMMltH/KizkasnxvcqjcjZc9vWLzfD06tEZh19gjUNznD3n0Innj9PqXu85S6T8P0iUMR5iKEiG1fvRMOW57Z/emD0sImkUgkkgGhuKoK+XV18B00CG1CiDEkY4NIdSLVC4HWzBk5AQEoEi+svYWFSnBQdZZOe00KEpe8ifsvugSXX3IJLrn1Ffzz50QUi7yONh0qf/07nnvwelzCvIuvxTXX/w0Lk2pR0mJC5o49WP/tQvy+85947Kar8eiHa7D0p6VY8+F9B/Znmncnnv7wF2wsNwhtWIbdC2/Bo3eI7fMvwq0PPYd/7DBCZzDBULwRP33wNO6cx3quwvwLXsG/N2civ70TqSkleOzBhfj6nWtw3x0v4J3vdiO9IgP7/vcobr7uigP1zL8Z9z71LywpbEerLRPvHJyB4Lm48+k7MH2QOwp/29I1Z68TlekpaNS4I2jGBIwPy8LOPQWorG21zVmi0whjWwsahTjWqampDW3Gjj/gbOEFv4BgjJ3mgMQ9Raiq1iFv7y4UpO/BoFnToHHqirdq6kCHoVWpu7v+pha0tNmy+o5ERQo2iUQikQwIMcHBiPb2xr6kJNTp9WgQYqxebG/o7ESzEGktQsx1pKUhuKYGUc7OSkR4VbBt+m4rfl5Wg4kf78Zarriy6m08e/V0xIg8BxdvhF78Fj7+3/oDK7Gs+QSLngrBj2sTkVtci/gzpuPCux/BzNOfxRe/bsKXz1yCG665AZc8s+jA/kxfXon40CYsWfYz2nN+ROGkRXj5iwOrujw+JxI/fbsUuS2t+PyVJUjVxePKL3djx6afsPzZZiT+/jtWbioCdLlmx36AF++ahXFhYzDmji+xZsO2rlVinsR9c53wyaLdaOrPsjj+AfBp7YR3fjlKhFzrELItPakVGqMXZs8ahTHjz0L2jr02ryaD/CX47sWbMWfiRExU0xUv4c1lqUqw9yPFJTQSUWfPx6DPf0bBjm+wLN8TGYaLcflkwFWNj1+xFbu+eBjzRJ2T1bovuB93H2UHkpMdKdgkEolEMiC4ChEW7uODQa6uKMnIQEV9PXQdHWg2GNAqRFp7SgqimpoQK/J9PDyUoVx1WKhUMwTNYadj/rlDMHzYEAyJCUGgl6uyKrMd2qHR78fGLz/Ce889h+de+wCvCYGX/3smKnQtaHd3hadfAFzdAhEZOxgRgV7w0dSgPGUN/iv2X8BjPl6Cn9cmobKiA7qYczFr6nCMGSnqiY9DTGQI/Osb0NlpQpZmIryHTcW5pw9B3PChmDx7HEIyilCbko9cl0A4iWPPUI4NQ7CvG1w6G2Gs3oXFr7+C11jPu//Fv5ftQmVGPiqESFUXrOkTjQYOQrs6GNph7BRCryoRyfVB6HCLwugRwfAeNxmT9+08ZDWZXvGfiKkX34nHFyzAAjXdPx9zx4fjj0TItHP0h6vfBEwa+StWfvMJtmS1wn/KbAxxFaegjvB5DUHszGvxsKjzBbXuR27ELefFKUtCSiFiG/YcY+0rcXyVWMvrKXFclslaHhPXorPBQVUikVjA/mitT1mmvvqgZTrSfs6QDNbyrKWBeJZYplO9jmNxP/i3NbhMnI+7O4YGBiJM7KMvL0ddRQVaq6uB7GyECwFHMRfu7w8fIey4QoMq2NpcgmEXEIvBQSxH2dRNa1Mblv5rDZJL22HyC0d4VDjCokIR2tIKkzgna3aslO37sfqXvajwCEdgqDgmNgJhbi7wMmqh94/HoBBHuHOJGq0TtC6u8BX/pZBo9oyFe2AwwsUGO3sHuAWHwqeuBR11OtRpvaARxw5WjxWU5Fbgx4W/IcfkA7cgUU90BMIDfBCka0KrEIAHrrgNNIv9heJp9fWAp9GAxvStSM1PxYYNP+H7z/6NjxbtQGXJDiTuL0J+hQ0BScR5DJl0NuabLVl49dxJGB/rp6x8c+Q4wcklFJPnR0JfKv5v54u4SWGKt233jCxxLwOHzcJFos4r1brnnY4zx1jsd5LCfmbeX8xTf/qgPXfuK/EBQHHFT2v51hL3Zye2lqcmiUTSf2zth7b0QfM0UP3cPMk6Ts46uM0aFF9OWi0Cvb0xNSICIS0tcCwpgWNxMQKFeIv39ESkEHNctsdb7MPleVTBptW3wKGxAXVCiwidA4P4f3Nrs+K00NzSgf98UQmPGdfirr+/gVf/9gieuG4CIly1igVOgXOzGlsVkcQht527G7EjJwTnL3gDL73+Bl5+6FLFuuR+YO8ecW4pQ2t9LaoauZJfJ9rqatDo7gR7dzerlqn8gjZ8s7gNY+95Go+9+gZeefI23HzuMHiJPNssSRS/dSjZtRelBtHy+BgEGhqQv3076luLUFCQik2/JGBdQj7sYluxr7AYOQXVVkXqn4XGyQ2DZ9+Mc866FXMmjkE8Y65Iuumtf/WnD9q7il83fSXVTM1fP9byrSV6KtHbx1oek/kvKYlEYjvsj9b6lGXqqw9apiPt54z7ZS3PWhqIZ4llOtXrOBb3g9t6guXTAy7Q1xdnCdE2WbycYmtrMS04GGEiBQUFdVvXGN9NJaCuAC45ydiSpUNNvQ6FKcnILCpQnA6g0UI7fDxigpzgZdKhuqQY2bt2YJ/RoDg2wE4D+xY9HLJzkFdfh9o2A0z+4fAdPAhDXXVoa7YorxciKtegPGkbfkvUob6mBllbtiFnWChcR0bBWmQtew8fkTcOw3300Bh0KM/ORNa+NGSLvB7NFIc4BNSItB0/vr8I2SUGDDlrHHxbC7B7aw6GzXsar329DuvWibR6Bda9dx2ijDXIySlEZV8DVtacDnRNaGkzot2GwS6jEI+tLW1COLShWQhhQ7sQGl15qqPEXW/dgztumnb4dbHmdCDqbhLlGYU+taH6Exr2M/P+Yp760wfl0LFEIpFIBhS+kCjy/L29MXnQIMyOj1dicVGseXl5KS8tc7FGZp3vgwnjsvDivImYNXki7vkhC+l1vorTgaumCddGf4Ivn5mP2RMnYu5dz+C9wmhEtDvAkwd7xiNy1FDMnfQF/n7JmbjjpSUoLFkF76yDE9/V8vparv7Kpy9BvFcqvr9eHDfrQsx70Q3jJkzE+bMiu/Y4lEi3XMxxexH3XTgLM0U917z2A34qD8YIkddt/bPkEIeA00V6H1mzHsK8x+7CldG10JemI6HjFsQPj8UYtVohgjFpOqY1FMMtMxfpfXkOWHM6mHgF7n9zGRJs8DpY9t1WvPTkW9iy8U3ccPbf8UVCNgq78vrEmtPBxAtw1d3vY2kpbPOelciVDiSSEwW50sHAncfJUsfxvvg7Xzesk8M/HFaliKN1juUdVn9jCUoKspCQUqb86SnKd3LwhbeHH4aO9EVL2mrsLWxFTbPQLqL9XkGhQJM74kaHIyjAHZ31JSjPSMCeYsApajLCnevhUJuJruK6y2vXO6FTq8GUKVHwctJAY6hBVUU10vM0GCW2eXZWoDA9CxmZZdApayuEY9RpwxEV5o22qiakZ1Qc2I/Hitw2s3r17UJc+vrCzSMQju2eh+xnTlJCAgpKSpTh3gMDp94YNHk8BkUEwM++CXpdCXakADEjwpRzO+B8SZVTjayEPLS6BcJvRCzCnEWFLQVIymiHk68/os3mpx1ah4onQoYOx5A+jiW5qanISEk55Bp06Dtg1LVh+NgwuIqt3Xew/dA2N1XkI1c51hxXcc+iEDdlLKLMHRROIo72SgfHvWBj8wxGI0praqAVDyJ/T084ik7OsiWSUwkp2E5sMXUy3w9bBZtEcipxtAXbca16KNb0FGviIbS/shL7KypQXF2NFvHA4C80ycBCT94U8asoPT0dNUIw9wRjJ23duhWlpaXKMRKJRCKRSI4ux7Vgo2WtqqEBiYWF0ISFoVqrxba8PJQK0dYmREJH58kVI5kClYKnqalJUeZMzc3N3cEk+WkpiBQLpMGg5JnD/Rg1nL+GuY8K1bxatpq4H4cnzOHf1eI6P/vss3j99dexc+fOrpwDmLeFv+pvuOEGLFu2DHV1jGEukUgkEonkaHLcCrY2IUKKa2qQVFSEwGHDoPX2hmtEBIzh4ViVm4uCyko0C6FxMlnaKHxWrlyJs846q3tSKE2p77//viLi+ElRZA5F1ZdffqnkmcP9br31Vjz88MOor2ds8QNs2rSpu2w13XPPPYp1zPxa8u+ffvpJmRR8880347TTTuvKOYB5Wzhp+MUXX8TevXuxfv16ZZtEIpFIJJKjx3Ep2Fr1ehRUVaGgsRHukZGwc3OD3sEBBq0WxoAANEZHY3VZmTJM2niSiLbs7GxlHsgnn3yCO++8E1yTn+myyy5TRBnPsUpck4YGrsR3EFrMKPSYp0KBRsFVJMRucXExysvLD7HAcX7LI488opT/2GOPKd5aTz/99CFl5wpR/PXXX+P000/H8OHDlfH1SnG9Fy9ejNtuuw2rV6/u3p9zWSgy6bqfk8OFmPOU7RKJRCKRSI4Ox6VgKxTCoKSpCUYhLLR+fmi1t1di6+js7NAixEF7UBDyxOdesV+RECocElThECKtPG+99VZ3+u9//4vU1FRlCI9C5qOPPurO++GHHxThwSHAhIQExWr0448/dudv27ZNEUD9OZaiixYxa22hELLG/v37lTYOGzZMEWnXXHONkvj/WbNm2TxRmVAwUcjFxMQo4mzfvn1K3BtCURUWFoZLL71UKf/aa69VBNmvv/6qTHwkPN/CwkLlc9y4cUqMJEKPLgo3xoMxj7vE/9MSFxsbq1wLHiuRSCQSieTocVwKtjrOq+KcKiEMmkwmNIptHNSrE//Xie2tQjzZCwFTKURIZW3tIdYjLrZLIUVr1YoVK7Bo0SJ8+umn2LFjh2Ih+vnnn5WhPqYlS5Zg+fLlyvwsir7vv/9eGV6keOF2/p8ijNav/hy7du1apU3mbWE59BbZsmWL1Qn8BQUFisiixcvcw4ueVxwWZVA9zjWjsNuwYUN34mT/kpKSrr0PQOFHL64ZM2Yooo3t6MlpgF4pFHGsk8eQsrIyxWo3fvx4RYgxn/gy8OVZZynWucGDByvbzKHYdHd3V66VRCKRSCSSo4c9J6T3lVSs5fWUVKzlMfXGyKgoeIh9CnNyUC/EWb34P5OyaLAQLW3l5bDfuxcxQuD4OzoeMhH/nXfeUSxbn332mSKeKJZoJSJ79uzB3/72N2Ufiq1vvvkG5557Lt577z3FIsbhQ1qQ7rrrLqxZswbvvvsuKioqkJyc3K9jKRL9/PwOaQvnpj355JNKOZs3b1baYw6HPZmCg4N7jBrOOj744APMmzevO3F+GQWkCi1c9Oyk+Js5c6YiuigqOWSqXnvmqY4NWVlZiuAbO3asEg6A0GrI/aZPn94vyx6Xl+FxHIKVDBzqfewrqVjLs5ZUrOX1lFSs5VlLKtbyekoq1vKsJRVreT0lFWt51pKKtbyekoq1PGtJxVpeT0nFWp61pGItr6ekYm2bRCI5HPO+YplUrOVZJntabfpKHCrjzvQ4tJZvLXHOleqp2FNimdZwESJhiHj5RwkBkfX776gW9TaK8lrFMfqiImiEgBrv6oowb2/FMsT151Sio6MxadIkxdpjDQqX888/X5lsP3v2bDzxxBPIyMhQ2mp+LEUThw5p2VKx9VgV8220Uk2ePFmxkPEYS2jJ4v69wXx6bdJipqZVq1bhqquuUvJ5zTlsy/tERwDGfaEQ47wyJnU5Eg7fnn322cp53H333YpF7O2331bW8vsjULCxDVKwDSy03lrrT5bJlj5ono6kn1P808JsLc9aGqhniXk6les4VveD2yQSiXV6e2b3pw/aU0j0lWh5UYfObE0cXqPosZanpp7gcT5CiFG0jXZzQ70QObqyMujz8+EhUrw4NsrfH8EinyLD3ArEcimyzEWcCofrxowZg8cff1yxli1YsABvvvmmkliO5bHqeZP+HkvMt7Eczv3ijTMfwlWhkKKli6KQVjJrsDwKOwoxNXHemCq0+KBOSkpCWloaFi5cqHiJcoiVAorz2Fg+2xMXF6dsf/DBBxWLHuechYaG9mjZsxVa7HjfKRYlAwe/l/wu9JVs6YPm6Uj7Oec2WsuzlgbqWWKeTvU6jsX94DaJRGId9jPz/mKe+tMH7blzX4mdk/BBYC3fWmID2Imt5TGxLO5jDW53Eo0LFkJkjBAow4SA8RKiI0CIGc6copALDgxUhh0ppFieiuoxyaFIS1QhNGHCBFx88cXKhHumSy65RBEyvXEkx7It9NTksCp/gXKeWqBoN5Ml3MY6OHzK4UoVngstYtZEniUUbJzTRhE2cuRIZf5bZGSkMgeO5dAZgTedlkM6M1x//fW46KKLFEGpOkoQ9XzoIMFf7LbCOnjPWb9k4GB/tOxP1lJffdAyHUk/Z/kDXcefcR4nSx3H6n5wm0QisQ77mXl/MU/96YPH7c8iPhCcnZwQ7OODMyMiMNZkwighNuKFCKGVyd/fv1usmT8saMWixYhDhRQ627dv745DRkscj6HzAOeocdI+nQBUD9LeOJJjafmiSKPDAb1FOdeMQorDlJZw6JRz7Rg2Y926dd1OBayLddJc2hsUe7RwsT0c7lQtgAx6+9RTTymCj8Oi5sLP09NTmYfHoVF1zh8dDmgho2ijhyzns6nDHTTd8tpyKJZDrxze5Zw8Xl/WzzxeC94fiUQikUgkR4/j2o5NIUaLUJCvL2bFxWHS0KGKdYhzpTh3zVKskVtuuUWxNHEy/vz585VhQU7CpwDkBPxXX30Vn3/+uRKZn9YlhrZg0FcOSVKUsUzCcpnUbf05VuXRRx9VhCW9Kq+44gp8/PHHioVu2rRpXXscZMSIEYrFi5ave++9Vymf6eWXX1augXlbzFGvEQUT56Lx/yyL14nwbwpBXhNa+9hWdYiWcL85c+Z010uhS8HG7fSOzc/P7xaLHFqlNyyHUinuGOKE50anDIo5Bs6leLNmQZRIJBKJRHLkHPeLvxM2kYJEbSrLZTustYXt5PJIFCYUKYmJicq8Lkbqp1clLUy0DqlDfTRH0prEYTwOYVLgULCwLu7DbRQ4FIi2HquiHm++XBOFEC111qB1iu3mMTxfQoHGujn8y9Ac1urgMTyW2+lpyn0th2k5f41lcTv3Z5tVU6x5vaoYpvcow5SwHTfeeKMSq81a+3htWC8dKThvjtY6imVulxxd+tNnSF990BJ+l/rbz/ldUL+jtnAkdfwZ53Gy1HGs7odc/F0iORxbntn96YMnhGDrD4yBtnHjRmW+FofyKGBoEeMwoWp1kvQN57Nx0XeGJuEw7ty5cxUrozUoJBnOhPm8n6NHj+7KkRxNpGA7scXUyXw/bBVsXHKwqLISzaLOQaGhcBE/QPnD0da6JZITiaMt2E461x7OYaOFiRYkCjR6dtLqI8Va/6AVkELtnHPOUcKJ9GYx4wti1KhROPPMM60G1JVIJKc2tAtQrBWKH9DFzc0oEf9PKSxETUMD9OL/NtgNgOYcpO5OxLpNOeC6LdZ96SUnP80oS12PtYu/xaebitCkH5iQMtu2peKLRZuQKr5sxuPky+bwPBeU7AMOf1EFcjjO1l9C3J/70vPBGhyu5IR1qk4KrKMFvSI5R+y8887rTnJO1ZGhzn+jxYxDpT3BX9r8Zc01SSneJANDf/tMX33QkiPp57S20EJiq9VoIJ4llpzKdRyr+0FnJ1r1rMWSpBjTG40oq61FvhBo7V5e6BQpp6wMnXo9XMQzw0mU1aelrWYzVixPxrpEI0adMRglGRVwcBLHOmuOL8tDRxuMzRXIyGqEnZNWaV9jQxuys6vg4uMKjYP9H2+vlTrs0YEOYzMqMrKgsxP338kZTkpFFMN61OSmIaegCuUtGniLdnBCTJ64b/szMsT2AhQUFIlUA4OTKxxd1GO7aCxFQV4WktMyFUc6JTXawU7jBDtjx+Hn1mP7mkT79mB/aSta4Ah3dyelHSTXxrYYapKR8PMifL8mCekuY3F+vD9ctSylFc0N9SjK1kHL81PaIrbVlCJ3VzL2iXLzChrRZqeBk7crnBTJ34DS1AxkZWQis6ACpeUGaAM94CSOXf/Tavz48yZUBcdjdJgrXDT9v2+2PLP70wf7W79EIpFIJDZjEGKtSgi1xMJCOIofz+7BwdD4+MAjPh4JlZVIF8KtTqdTXlq2otO14cUX12BLRrmydOFxRVsZGvYvwtNPLMLG1DLFGpgh2vm8aG+WaHffAZpsQF+Ohswl+NuT/8P6lBLUU5OZWtFal47lTz+NHxPSsK/7wnQIVVCMTR8/isfvfRyPfrwJxUKr0C718TPP4brzzscFF16ICy+cjwvn3oc3lyQhpab9gAVTiO1OYxta9y7Cv1+5D3OV/Q6kuU/9F19sLUKyOMcnnv4Z+4UoPbAatcDKNTjQvmTRvstx672v44OfU1FpZljtsy0KHajY+D1+K3WF7rRH8OPd4+DvroWp3QB9azZSdq3F+6It2V1t6WzPR9bmhXjl/AtxqSj3gjlP4OX/bEYqTWYmAzoM27D4uQdx31yRN/dGXHn1h/i5tAHVnSbcfK4f7jrNhM8/WCLOTbTdBiPwQCMFm0QikUgGBA6DFtfUILGoCIFxcXDw9AR9zlvs7NDq7AyXiROxWa/HlpISVNfXK45NtgyPenu74K23L8ZZY8Lg2bXteGaMaOe7or0jRLuPijuWsy+cQsdglv12VFVVo5CKqK0W+rJkJHRMQaB/ACLVC9NhAMp2IbE1Dk7iX1xrInaVCSFNxRZ9Ca5+7r9YxZVzdqzD7hWXwXPNemz4bhO4Hk9Haz3Klj6Me55PRlHEnfjSbJWdL2f5IB75yn42obRvr2jfWRiCCrg15CK9uiuP9NEW0WKRdmHdkjq4tUTgkjOHK1tJdcJ7ePOBu3HNw5/iF/G3GgSraNNKZKRnIODj3Vi1VaS3h8CrIxmffp8BQ1MDdr33LGrPvBV3LtmNzctfxjvXZeGdf29HWlYtEDEGg4ZH4UbDJ1i5qwlFYtOxRgo2iUQikQwIxVVVyK6uhkt4OEzu7mh1cFAsYg1MQrS1ubig2c8PWW1t2FtYqAzpdgu2pmxkrluIZ6+/HjeJdP19b+OzNXtRKrJaWoz43/8SkVFUp7yc9ZWZyFzyLP7vjpuU8EjXX/8AnnzlW2yo0ENfsQHfvvIkHlC2i3TTHbj+2SVYl1mJnzdm4/3XF2LJR9fjjlsP5D/74WKszVNacID6Pdj4xet4XDn+VpE+wuLEQnABvsPqfeB1PPTqcnz7ny+Rlvol3l/wEP76+hd4fVkevhPtLRXtPhC1sxyFiYvxkTjmVqXcrnr3VaIxcwne/r87cJey/Vn87a21SBdHHBLt094VTm4RmDqhTVzjauSVNAmV0gRTVTGaxkyEv78vfLvGGjsNelQlbkJ9UDzCRvgjTJOOTYlV0Bs6Aa0XvIMiMUiI6bjhIk0egkCDEfb1TYqFyqDvQOL6EgRMm4kzLjwHZ3C/rnTGJXMwZfxIhB6opk/09dWoTNsDXfwFGDlElN6Uhb2ZB2KkKvTRFhj1QPp2bO3whz48BuMiDkpf96Fn47x5l+DG80bBX/ytDrMWpPqhaF8cxp8Xh2Ej4jBh1mjEuGiB7DIUt2qwdWksfEPiMGpaHOLHDseE6cPgub8EuvoWNGkDEBAci+mj3ZBbWgNdy1Gxjf4h7DnG2ldSTdXW8npKHJdlspbHZOsvKYlEcijsj9b6lGXqqw9apiPt5/TGtpZnLQ3Es8Qynep1HIv7wb+toemal9YohBjXg6ZY4yu6Xjz7+XeL2N7ZJISGSIaWg+sqktwdu7Fx6Tqk6YPg7ReEIH9veLpqwZlzen07NgqxVVjVrNhd7BwcoXXzRUCg2C9IJG0j6ktThMDbh1Uf/gfb99WjUSu2+zrDE8XYnpAphE4z0pN247eV67CnIQherANl2J+ShJ+3HXRsSFqxCps370ORyA3w9YBz5Qas3J6CXbn1KCtowE9fp6HO1Rseol5tYy0aC7JQ5+EBB60HvHz84eftgVZdK9aL9taKdvOKl6Xuwu/rf0WyODelXnGsr5cbmosLsO6zr7G72hV2HiKvsxQl+zfhv5uK0HzI5HoNNBpPDB3hh5K6BhRX6NDSUCv23QPPIdHw8vLAgcUfhUA01CFjaxE8QqIwbvpwhHprsHtrBqqFGDpEBPIe1lWjyl0Lg7sr3MQmg8EeW/f4InxcvGIl9D2wp4Lv0KEIDRPb2qrRkrMW3330AT54+21lXeq3P1iIj77bihwhcg4Mk7ZBJ4R71u5KREwYh8lTYmGvb0FKSp51BxIrbelsN0K3Pw1N4ZHwHhyNSLPIVS7h4zBxxkycO2Ww0kbVEtVQ64vmuhCEBDEMl9gvMgahds7wK6pAUbsDivJj4ObkBk8PcUU9hGCMjcPQvHK0NbWIdmnh4RWA2LgY5JVXoqml9+D1vcF+Zt5fzFN/+qA9d+4r8QHATsRPa/nWEvdnJ7aWpyaJRNJ/bO2HtvRB8zRQ/dw8yTpOzjq4zRpcqSZKpObSUlTV1AjBokeD2Fcn6mumQCsuhmtBAcKEUAt1dVXKVUnaVYnf97vhtL++hZfeeAtvPX8rrpw5DNZcyLTeIQibeimuuHA+Lps3D/POjkOUdwN+XJaITz9OgXbClbhlgSjj709jwf1zMNLdGa48sLUS9lo3+J33Fv72ssh/4hqMD3BATlIaOALG1vz2cz6qtGNx8XNv4c3X/oaX7nJDVXIadu8oRFa5SQgxV4w4/Qbc9dcFeOqOebjjvFhMu/xixA69GDfd/zQeufMSXDTy0IHbjB15SNzXjmHi3Bbw3N56Cw9ddx6i2huxZFEZht4sjnvlLfz9yXNw5uAqLF24E2XNhkMElr1GA9/BcbCrbEBjeRlK6huQsbcEgyK94OHWtVZ3hxC0jXnYluqF8AB/TJ46FqEhsWjZtg05OgOam8pRmpmIbRs3YuOGzdi4JgvVg0LhMTwEdDMzmjRIq4+Ck4srvJQLZgVjIwzlSdi06mf8vHw5ljP9/CtWbdqHcoMQKtynvQY11VXYkxmAScP9MXb6TPgIQVS/Nw05QtG18+vT0ntb+N2oramEd1ggQoMCjmwo3NML7gYT3Crru+9vN1ot7L18EFhSA70QmlzcUivO2yc4HLriCkWwHalq6a1/9acP2jMMRl+JHkf8lcSgq9byrSV6/NCLyFoeE8vqyyNCIpEcDvujtT5lmfrqg5bpSPs5PYOt5VlLA/EssUyneh3H4n5wmzW0oi2h3t4YHxyMitRUVFRXQ2c0KpY1fUWFUGVJGCpeVIPEPlwqj+1ge0hdwGQ4jLkQF48DOIrVGx3NJajc/R88e/XluGLuBbjgjgVYsHAr2ssasGPwTRg5MQbx4V07myPqCDWvwz8QAR7eiDyQq1AReSHCxk3GaUMBB0cnBE+YjqFZlTBkFqBUU4Og1jX44MZ/YllCOvRjxmH0+ReCkSh7a3IeJqPG+/Bza/GIQdWoW3DhZDeE+gh9ER6NaO8wxK7diZQ2PQ6GYBdonYBx0zA1txzumXuxp8kBlZXnY/JoZ/iJYxVaa9BanITNxjFwF/fJN1IIHV9vzEjfjOT8VtRmrsLy9x7BDXPnYu6l1+Osj5wx7YKzcNPcEVB8GukZOSQEvm7OcO9pQEy02XvGY/jnslVY1bWk4oZV32LZP2/FDG83RViZ6gtRVVmO7ZiIwZ7tcBocgyjoEb0vCTtLTAfm0xX10ZajQdcPC5P4jllVH/wxYm8P8SU8kO/sAo1/CIaUVcLY0nbEDi7sZ+b9xTz1pw/KOWwSiUQiGRAYYNfF2Rnh/v44NyYGjsXFQiRkoo0eo8nJmOjmhhiRp64PzZeSKtj6Q/Luajz1WAZGv7EMX23ejd3r/oOFT1+MYSKPlhLrqz3/cYbMmoUFu9dh8+558FnyMv468Qbc/ND32C3yFMvSgEKlNwmjpunh456E9MIKbI+ahlEabffQZWttNQq3/oKUpPfw5O3zMXviJbjmobew1JCCNTuFiPKcg6ue/Q9WbV6GXz+5HaeX10Kva1HmGBKNUY+o9ATk53Y5NhwhusIc5G7/EVs2vogbz56FmeI6PfTpf7GiNgMJO0uhp2KLuaTXthwVqqtQ62KP+phgMDLrIT8zWlvQUVWO/LgwuHm6QllPSGwzVhQjPSIYWjeXY+7gIgWbRCKRSAYMByHa3IQQiw4MxHRfX8Q1NyO4vBzjuC0gACFCrDFGFSO903KnCjav2hJo8zKRWiUEVydQn5uJwvJixenAklY7d1Q5j8CkicMwetQwhHto4NBSgap2A6Jz96CyuA7lTV079xP/0vWoSN+LXXlAp9GAqtQ9yIvyg2N0KFxbHLGxPADhMVMw57ZrcO6sYIS2ZiOvrAPt2eWoa2qFtWrDsRc+uvX4NR3Qm6lJ56Zi+Gb+iPV7W1AhBFJTeQmKdRUomjEacU5aC8HA6+SKEWN8UV2QgQ0rd8Bz0mS4a7VdQqQJ9dX5SNtTgFHXPo37nngBf3tmAV7861/w/K2jUJCYhgKdCdrgKAweNRXjT78cz92lQcri1fhhcSLod+HsYsLcC5qQtHwlfv7lwDaVvLVrkZx46Dbr1KEkLwtVDU4444E38denn8Nzz7yEV5+6GVefFoSkTYko1Rug13rBp5e2ONg7wD8wBDUFpSgsKVfmQvZFaHQ+AqL3Yq+4zgZxnesz05Db1oDK0EBEORkwfsZmVDVWo6ycThG1KE3ZjfTwADgJcUbBpm9tRq0QbEFhQfBwdTlU4B0DTrrAuRLJyUp/+0xffdCSI+nnMnDu8VXH8Rg4l/vS0uYo9vcU9biJOn1MJkT7+MBPCDhfkSjWLNtgKk5GTd4O/LI/F4VJ25GRlYbEQkfYecRg5oxYbFieinHiMybSB+3VBSjeuxxl9cVI/30XUtOSkVLYgsIaf1wxmEFeq5CWmoyM3VuxbVcyNhcGYersEWiqbkZ9TTNmnBOniCH7pv1I3FuPshaf7m12RQkoKszFnr1ZyErdiY1rstE84QzMmDUGgdWlWPLBQmQVZCOnshTVnS7wjByK0SMHwbh9OfJbylAoRF1huQaFGSU4c/4oBLhq4dqYgsbSJPy6qQiF+7Zj187tyGuwQ6e9HYIbErA1vQb5Gbvx++Zk7Kt1ReClF+HyOH94OB5uY3FxqkDy5kLk5bhi1t1XYLy/PbTcra1IlJGCXza0YurdT+Kyc6Zg1sTRGD08BNG+Ovz6VSZKqx0wYmIMpk2JhbeLD6LDO5GbuAcZmfko0WvgFxGJQWFGVGbuQ07BPuzNSkf69u3YLtKve8rQ4RsMJxcP7N2S131uygivsR4t1fuxfAMwZrwJ1UXlKKgNw+x7HsKVp43GhLGiHUOEQG+qxdZl+Rh6/jSk7ChAQKAbRk+03hbf8DAEuZZj8/J8dDr5IHLcEAR3DSc3527C1vWrsGjVTiSmF6JVnHuLNhRePg3QdmRjx885yBbXefOvaSh1i0HcGVNxdpQz3DwSkZFYg/SdyUjcvQc7dtbA8ewLMGdMBCI9OlFXuBdJa5ahOOZ6nD48EGGe/ZNstjyz+9MHpYVNIpFIJAMOhaSXuzuGh4djwuDBynKBXEGFQs/ay2rkjChMPtMPZQlL8cvypdjZ4Ae/yHhMj/WDuxAu8SOD4e/prHiNhvoaxUu2DCnrfsEvS5diU24LjMETccmUKFz/l+nw1mcicc1SLF26Ej+tTUSmnT3aHewREeyJwaI8yluldq0fgiPCDtk28/oLMHm0B1p3L8XyX9YhoWwMzpw8BjNG+sPNWIuQsgT8+styUfY67OsQbTzjapwxaiouv8YVncU78PvWvShqsVPay3bzlR81bjLGT5sA99SlWPMT27UU63dnoC0oBvMfvhqRlZuQ+KvIS2yB3mMK7r1oCNxdehD6ESMxZsI8XD51NqYOEaeg7mbQiz8C4TTmZsweIUSfe9d2d1+4xE3FFZFanB7riwhfzwMiS+MCDLkI1181AqM9apC5OQ2F7W7wnHwbbr1xvNhWhN2inWwr0257IUD8ojBS3APzc1NwcIajexhGxofBX9sJje9oBI6+ALNF+5zU9vlHIXzISFwWKn4EiKZGRPop96OntuTrtWgfNBUzPXVwrMjDztyDtsu2sjTsTdqH5Lxa+PuW4fe1v2B3Rjnao2Zg2NgZCBHX+Vdxnddl+SEyZgIumxkhqnAXVdyLoZ1VqNwsvmMJmUhvm4k7LhiJwaHiYrWWo6IkDxv2aTBMtM1LdeQ4htiZenLvMYPq72gvdNyfhawVDwqRWLO9qN/WNkgkJxNy8feBO4+TpY7jffH3Px2+O4ytMLSb0Mk3XVUaynd8jbN3nYV/3jwNc+N7XnJPcnxS/svTeH1bJ3IC5uHbuyfDxZGhY7oyjyLGfSuEQN+Iv2wbhR8+vhyj/dwOeBb3g1Nu8fdO0eHqW1qwKiUF27KzoRP/5wlKJBKJRNIbhqYq7P5gLm6ZNwmTJol07sO4+nUt7r9pIkYOUV0pJScS/qddizlhrfDb9BrmfrAbVU0D497x6cpa/HOjPf7vkfkY4nGUVqj4gxzXgs3Y0YHqpibsLCxUXL6bOjuxo6BAWcKEY8M2GAd7hYEXP/9uD6rE/w+Jx9ITxhYg/Tu8/fxfcMMNNygBAo8JuiLUbfkI9999m9KOxYsXd2VIJBLJnwcDoCcnJ6NePJOPRxycPBA1+wHcfO9f8de/ivTcI3j86WtxyWB/BHWPzUlOJDTusRh/zvW465678cDsKHg4DYwrwKyzZuLh+6/GFfHe8HI8Cgv2HwWO2yFRQ5dYy6mqQqeoc3BQEOpFmbkVFbAXwm1MaCj8PTzgZDn3oTkXafsaUNHihYmzYsFh+54u9MKF27FnfyUee30eGKKn9+7bAn19Nna+8i6+rHFCo5MLzho/ArfffntX/p9FPar3bsXmf3yOhe3BCHRzwIjo0Rg3+bQ+z7c/lObmYsOyZeBSbx2IxvBpYxAUCGSuWgtMuAizhgUg1MtRPLEb0Fqbi7XbAK0+FXWN1Si3EqzG2T8SYePOwTlx7nCxMnFW0jdySPTEHq48Xu8Hv1c5OTnK/8PDw5XUGzwPCrSSkhLs27cPWVlZyvYzzzzz+BsSlUiOIafEkGh7l1grFA8fncGAsZGRCHF3x1B/fwwVQq1YPDDSKytRqdNBb2lp06Vi+7oE/Lgi9fBIxn+Ejga01Cbj+69qETvrJjz66tvHQKwJ2stQlLUPK5bb47z7nsNzb7yNYcMmIzmtTIk39MdsjgepKcnH2i//iVde+if+9fk6bMsoR2JmDj546V189t16JBbUopEj04ZaNBclYOG/ErB6xU/4dfVSLP3xO/wgjn1ZOVb8f+lS/PzbZmzPb1bmkkiOPpWiPxQUFCifKlXix05hYeEh2yQSS/iy2LhxI1avXo3s7OyurYdDbzYKwszMTGzZsgU//fSTkirEj2ha2iQSycBiT7HTV1KxltdTUrGWx9QbdUKQZZSXo0Z8njViBDzFL0YqS0ehPmN9fHD+qFHYIl5GqeJBUSsULBWqSoexHR3tXJ9Lr/wS1Bu57l0H2g16tLW0oEVJbUI4iO1dx3Rj6mE/0dxO8XdrfjHy2oOgcbeHVtOqlH9wXz0Mxg6lTJ4e17ozGtqgb+vKF/t2T3w1iTJFG83r0RtEu3u/LAodtXVoKGtAoX0IvL04dm/A7LOG4t7bpiJIVNzBcxZltR+oSFRlhL5VD6NyHpb1HmyzJaPGx+CNT+/HlKn3Y8E/H8aDt0xHnIc495gZiN3zGX7fl4mU+kMbPOOeV/HGDxuxcfV3WC6OnaEc+x1+Ei+Dn/77Dl65MAReLsc6ks2Jj7X+9Ouvv+I///mP8qluY8TxL7744pBtvSUVa3k9JRVredaSirW8npKKtTxrScVaXk9JxVqetaRiLa+npGItz1pSsZbXU1KxlmctqVj+3zxRqFGQ6cQP5E2bNuGNN97A+++/j6KiItxyyy145513MEo8kyUSiXUs+5R5UrGWZ5nsD7y4e0/8BcadKVCs5VtLXBeLndxanppYpjV25uaCK1VMiIk56G7dhUaINn+tFqcNGoSChgakl5Up7VNJ+GYpfvvfW/jhi4dx2enn4uZ/JSMpeTWWvXk/Lp84ERMnThPpRry0OAmpliGUqxOs7peiA7J25eDt297Fzrof8ObDV+OSWWfizDPOxY1i32nK/vfjmU83IUMUU1/fiocfXor3/3ol7r+BeRMxa/b5eHZlFbK4toguBUmLXzI79nLc/+YyJHD8sQ82fbcVn73yEbZVfYEnzz8D51z+Ei647Vu89l4CMoWIfef883H/S4uxjI1uLUF98n/x8Ln34H2eR5FlvQfbbBtucHGLxeXXDsKu7EJsTS7s2i75M9Hr9Yf1Jc7pZH/jp7qNfZDJfFtvaaD6uXmSdRx/dRAew+8J/7bcJz09HQsXLsSdd96JTz/9FDHiufz444/jySefxNixY5U6mSQSiXWsPbPV1J9+rgTOZXyc3hLnXfBXFmPlMFiitX0sExvA4zifwlo+O3hiYiLi4uIOCyjHvAZxEo3iJIM9PeEgRJoq2vTt7ShpbMRuIepcxAkEOzvDx91dWdKEOBryUFjjig7vybjunssxe8JolHy3G1VGd8Reej7OnTEZs0Z0IC/PHkkpddB6OeGsrgCJv727EfnNroftZ6cR22I08NJUIqlmKM676mJEmVqgL6qD98UP48p5szDOswBFBiNy2oMxRZzOVy8/h5aYqRg2cx7OHx+NeI8qLEr3wbC4AFRvy0HShnIEXncRzp41C6eNcoGhqROlFRoMHxcCF9GWnkayHTsr0NZpRJ4hHjfcdzXOP3Mm7BpN0DW2YdrZMQg1ZWDP5mZ0uGrg5FmL9K9XoWrcRZg8PR4tW3/Fll92on7q7Ye1+axBFh5T5oEPZ8UpwSmrixqweVsJzr/1XDjnr4ShVbwY3KMQ0n7ofi5WjuU5Sf4YfKEyCCP7DONXmfenjIwM1NXVKdvHjBmjbGMwU24LDAzs3tZbOpJ+zgcR93UW/dBavmUaiGeJZTqV6ziS+8EXRUpKijJSERsbqyTWy+/UihUrsHbtWpSXl2P48OGYM2cOpkyZgmHDhilhPLj+Ievjvpw3Zy1wrkRyqtLbM9u8D9rczxcsWNCnYCPszLY+BJi4PxvCRvSU31MEYDfxQGsTJ1qu06FOfPoIMeYojmkTxxTW1+P3/Hw0VlQgQjwsQry9lQcFHxzE07kKuaWuMLiNxa1/uQTjg9yw8v3vkFRSjPZQd2iaG9FStw+bNjQivbgDfoMDMLdLsP345jdW93MMDMG404IR692Idb+HYt4t8+Fp0kDf5oEzH3sIV5w+GqN8c5GeUoWMXGeMnh6B375djaEXXoc5FzFqcgAinSvw1Sojxk+NRemuJCSs3Az9MH84CtHZVp+DvXuqUFrrhnHzRsFftKWngUNPtwboO01Iyo/FHU9dgzPHxaAqvxZlNc047fwRiBvkj9b0ZOQUJGJnURXKGiNw1i2XY2KMD9I3pCApz2S1zVPPGXqow4JVwVaPTdsKcOZ152JYx04UFxmRVe2KuOBKrBT7jZWCbUBROz8npjY0NKCsrKw7/f777yguLlZEAfsCt+3atUuZGO4t+si0adMO6X8c3uJL2rwM7sthLs59M99umfiLkCKQ5fD/fMjw07I8a8laHeblWWsf5+Hxk3Ol1GN6S83Nzco5mz+vrJ2veeqtDmvt46R7/uDs61qZJ7UO3sfezldNf9b9yMvLU86F4p7fLZ4bI9nv3LlTEWq8llFRUfDx8VEcElg257KZXyuWwReSFGwSyUHUZzZ/4Fj2eTURW/XVceklSrXZ0NSEzMpK7BFpvPjFF+npiQYhblLEAyxbCLYxoi0h4gHBi8AHiWphQ9lyLPwqD3uqYrq9P/961Z1ISNwFBHsciKKsMBnlnaGImz4YH/Sx3zm3XIorrwyBX8Zy3PY34Ia/zkPevgrkm3uYst6/78Sm/BDM/ffN+Pdt3+L2x8/C7Bkx8G3OQ7X5sQkrsPjDT9ARYxZhG3EYPn0u7nr1EsSLv3qMqVy7HVvW7cArX7rhhYXXYLi/G76z8HZtWP0cXvnn1/hPbjRm/WUhFl4TDn83zeFesWZtvnH5vZghtnXfLYs28zwytuThldd/O1CvXRJ+/TERv2fWYdIcT3z4NnDb0wf2szxfZVtXsZIjR+0z/LSEL+eamhrlx486nygpKUl5sc6YMQOvvPKKsk2FE8cZ7NQc9jv2dVqAeuvn7K/XXHON8n/VK5EvbcvyrGGtDvPyVMzbx+E67kshYgu0EF1yySWHPK+sna85vdVhrX30jvzyyy/7vFbmqHWMGDGi1/NV+bPuBwUuvz98uXABdtZF6yxDKV122WXKM5ovi77ux+mnny69RCUSM04JL1EKPU/R+LigIEwJDsZP6elIEEJtU24ucgsKMF6IM4q1IJFPsUZlegjUoCKpk+ntIufg0sf+iUUbEpCQoKY38cQt0xHZtQ/pab9nOeG+ax8VO5MovbMd7V1TN0ziwWfitRZt72tavV3ARIy/6kV8sz4B67vr+Rc+EWJtvMj/YwtgdMDLKxCeXgHQaoUiNxrQLppKVf5H2nwYfjNw2jh3zIxMxZJtRjTpTUfNQ1XSO3x58qVsnriN/cY8jy9UbmOyhA8G8+PNj7G23TxZEzU9lWctWdbxR8uzTH9WeZbnYWvqT/tsqeNonK/6/eH/+SObz1T+n4KOQo4iTc23llifRCIZWI7rpalYb6MoJ6uyEsnl5fSQQIRWi0AvL8Wy5iU+VTNiN7Qavfk7thSE4dZFd2KS2PTR5Tcix280Jj3wKG4ceWA3Ymlx+kcP+ylYWI10G37Ezt/2IvrvX+D/xgH6jc/jjfV6ZHldgHdvG4f7b/sWN/ZgYbM81rM/Cq1XC9sccR6J+OG2NSgN7oAx1hF57xZi0n9fxZwRPtj99ptY1UObv3piprLsRvfd7cvCJup1bk1G8srv8O4Di/BL+M147a1rcYm0sA0Yap+ZNWvWYUNPDJ7MWFqDBg3CpZdeqmz7/vvvkSt+5MTHxyvefObwJcxhVXM4d5T9nNbq3vo5pzmw7xHVosN+blmeNazVYV6einn7uD+fJdzPFvg84L7mzytr52tOb3VYax8nADNcSl/Xyhy1Dnd3917PV+XPuh+0zC5atEixtHHonCsCcIh29+7dyo9JDpFGREQo37vJkyd3z8Uzv1a//PKLMmwqLWwSyUGOtoVNcTro+n+PqKZ5dlBbH07cn/ta+/VH+IDqaQ6bCo93FMe7iweQm/gMdHFBkHgw0aqmzlHhg+OQNmnc0FqyB4UpP2BxQjKyOoZgVHAVDOWpWPvjUvyyegmWLBFpex02p+ng6H7Q6cDPMQ9lOUmH7dek9URUqB06zeZljYrRQ6vLwKpvl+K3tUuw7JdKdMZOwjlXzES8qwbLl6dizIxYq3O6LI9dukzUszEb++tdERffu9MBWotRlFeCTXu1OHP+KAS4apGaWKzMYRs3KQi/Pv409monYvC55+HckR4Iqv8dn/7cAK+hwRgc2QqXHto82V+8FLqqIJnJqfjn829gXfJe7N/XDKObN/RuzkgVok2t18lRiDZTJzxbcrGsNhZnzh6JEXIO24Ch9pnRo0cjMjJS6eBq4pAaX7KhoaGYOnWqso3DdnxgBAcHHxZ2gaLG/Hgm9if2cfYtyzzzZG7R5g8zlkVRYW1fy2StDvPyVMzbx/35ySE6dVtviYLF8nll7XzNU291WGsfy7XlWpkntQ4mS47l/aAA279/v3I859rw++Xr66v8KKZHKP/P7xGHTfk9o8jjd4rfNbUc6XQgkRyOLTqnP/rquBdsyi85UYaPEGv0BuWvU/VBc5hYI46ecHHWw9nVgEa9FwKHTMDpk8MQ4KaBobkFJvEg48PM1S9WvPTCMGlsKMbEBSqCIiDMQwkbYrnf4CGRGCTytHCAwSEEo8ZGYMhgf/j5uKKtqhYmN1d4BE/E9DOmY/bUKHiaeH4dGDUmFEFiH0d0wtTLsc6sxycMoVHRGC3awsdvj1fZ1IEO0VpH9xCMHRcOT60DOo0d8PV3w+BoH1QnZSNw9rkYNX4E4vxdxDk5o6RKCMHx0Rg+PAjBPbT50N/7gK6+CUUF1YgYGYnggBgMGhaDyBg/+Dtquut1gBNcXNwRFOWPdu8hmDEuEuFWzvfANZD8UXrrM9bmsHHJIFpcOBncljhZR9LPVYHQkyXdkoF4llhyKtdxJPeD1kJ1DhsFFxOfrRSv/GFAYUYxxmFRWhXpCFFaWqr8QOC58JnM0B9SsEkkh2KLzulPPz+uh0RPPYxoN9ShKDEX1QYjDkaXU3GFT2g4QiOC4PvHJrpJTkB66zMMjksvRL5gzz77bGUbh6noBUgribqtN46kn6tDcHxZ28JAPEssOZXrOJL7QS/Ub775Bk1NTb06Dqgvn1WrVinD72zXuHHjlKSGaOprSLRdvJwaxTlxnWj+CKe4tLfx3CSSE42jPSR6XDodnLrUo7lmHT679nLccN55OO+wdDue/mgVtnHNLYnEDAqyW2+99RBhxrUdb7zxRpvEmuTUhS8JWsqYKKB6ghYADrc/8cQTeOyxxxSB9t133+HRRx9VvEr7gpYBnRCtDIz+a3o6qsXLjCKQFob+QjODgavDdEpnJ4mK+C7QqU7fhjZDh/LdGAg6OjqFwKIz35//3ZOC7bjCB+4B5+OBlb9hxe7dyqTfQ9MifPDofJzGQG0SiURyFODUj+uuu05ZyWDChAldW3uHVlv+GPj444+VNZX7WjC+Uyis2uZm7CoogFbUFx0aip8zMpBXUYGmlgMrNPSHA6vJLMOvSSXQdW2TnOroUJK0BP+6czZOX7ASm7K5rNDRZ9OmJJx+zsP4V3I9Slq7Nv5JHNdz2E49GILBGe5+/vALCFDmHh2afOHl7gwnKbNPSfrbZ/rqg5b8WXOmjvazxJJTuY4juR8US/Qy5ZAMh1P7gm3iOXDYlQ5gdE5g3Df+39ocNg5/UqwlFhXBRxwT6++PAHd3pZ0p5eXKGtEMlk4HMw4Z20JzswFffrkLw6ZEIVo6NR2kUw9Ub8Z3i/ajsMEOAdG+cFYCXFUj8btF2FvYgMaAaIR0+6nUI2fjD1j65XdYuEeDIfEhcHfSYMuSJfjo73/Hl3S8U9J2ZDdp4RplfqygIhGJa7/CE3//pGs/kRIrkNfhh/gAV3z44WY4+LnBWyRlFk+v7fsAXy3Zhk1lhzrfbbSxLc05m7BtWwL+VTocN8w7A1MH+8PThX1Nh5bGdPz4YRpMfh7i/cq2iG31v+PHx1/Bwm+/xzdLEpGc14HAabHwFkc4IA+JS/6Hr/7+Pj5Z8rOosxSIDoJviBe8W0rhVr0F/0txQky0P8IDus7NCkd7DpvDY4899jwnk9qSWLC17dYSG8oHAZO1fLqQ79271+rSVBKJ5HDUzs95apzoba1fmae++mBPqT/9nEshcRosk7X8ntLRfJb0lE7FOv7s+8EXDR3AsrKyFCcFS8FmEPtUNzUhq6oK9kKgDRY/PAPFd9dViDMvV1dUifZWiHcBy/IQok0rki3itKXFeKgnftf2Ux5Tu7joOfj1f9tR1ekEnxFDEKwxAI1JWPb1LpSZfBE6bhjCVT3fvA/b164VgmQnMsuNiD1tCoLdnbFt1Q78uj4R3nGhQvS4wLVTh4bKdjQ0uyFidBDo59yauxnbVm/AL1vyUSLuqb/Yz00kfVMnNPaOCBkWiYXvJyBmXLh4ZnXdow4h2GoS8MUPZWh28sGI8eHw6FTbtwJrN2ah1s4NMdMmIkT8dtCIr8Jvv/TdFntUImvtr9iytQJ1p9+JJ86NRbCnFm3ladi34yd8tWw1Fq3SI2byIKUtpur9yN2yED/v0sIovocOLVWo1dUh23cIpga5QZf+HbZvS0NKmRtcvR3Qnp+GXK8QePgFYGKoA6L9GvDbj2ugjRqBwJBQBJqLWDPYV2x9ZtvSBx0eeuih59np+krsUCzQWl5Pqbf9+UswLS1NCjaJxEbUzs/hJ3Z+a/3KMvW3z/a3n3N/igP15W1LOtrPEmvpVK2D+x+L+8GwIAw/YinYqhobkVNdjdq2NkyLjYWPEHecJUdR5iQEXJiPD9Jqa5X9+M7zFvm03imirb0RusoiZCSlI7ewEAWFjWiDBk5eLmhvMQjBtgthoUKg6qtQlFeK0rJGmDy94aQRNTRXoLIoE0npOYozTmG1Ae1CRLi5mNDZVIbMpAzk5Ocjv7AC1Toj7MVxLuKwwoJaVJflorayAFn5RjgFuKN0fwUaW43QiHq1ijVIh7L0SrFPqTi2COlqHYXVaGy3h8bNXZSl7rcfOfuzkS3yS8rK0eoUIM6zAXXFuchMy0ROYYk4rhUQIknrooVjRxuMvbSvvS4fBblZSMvMQ2FxKQprTNC6OsHZSXNgfhOvm4s7WnevERLGCU2hozHayyhObBW+3+sHz0HxOHNCsBJzkxgKfsXGtCaklbtgklMSKofMxRB/dxTmGWDwjMNf33oQV8yZg7kznFC9NRuJm6oRfM1kJW5p8c//wP9WFyPTZw6efuch3CD2u0Ckid4ahNg1oDZqMLYKUT3eXFR3irboUrF2qxFuIeEYLQSbe3sr9JlLsSjFG4ZGHWK9dKiOOQvj/R3Ed8QOiRltfbZF07QL65alICnbF/MfuAQjvezhKC5IS+EuJK5bjH/9uAdpncNx+rmjMEy0RZeWjM2f/QfNt3yK2268HJeObhV178fHmz1xxcwo7PvqI+Q5xWHoXQvw2BVTMdVrPf6X5AR7bSCmjQkX99gVTlvexT7XaXALHIzhAdYtw7Y+s23tg+zcfSKUnamxsdEkCuza0jctLS2mtra2rr8OR6fTmd566y2T6OhdWyQSSW/0t8/01QctOZJ+XlNTo7TLVgbiWWLJqVzHsbof33zzjWn9+vVdfx1kc1aW6eudO02VBoOp3UodrHevaPO/d+82/TshwVRdXW0SLy8lr71ii2nDh7ebJju5mDxdXEzO2vNN1/9tqWmbscNUVVVnmnfho6ZrZw02TR3sYnJxDjYFhM4zPbehzJSl6zRVbllo+uj2eJOTOM5FJKf4O01/WbjNVKTLMZWtf8F0SWSQKYR5zoNM48593PRxptGkM5pMjz262HT7xXNNd14YZwqL/avp29J6023z3zc99fwy006lWa0mU8da0/vz/mZ65sIrTPf+31ilfCU5xZvmPviZaXGR2LGz1WTUrzJ9MH+GaYrzgXy/sFjTLd+WmhJ3LTb96/65pnhxXi4uviZnx+tMzy5NNGW0d5o6+mhfweLHTQ/MjT1wXp5BJqfJL5g+3Zxjqlau2EHKlj9uev3dN0yPLi0RTa4TTX7Y9Phnq0wLt9d27UE6TcVLHjO9Ifa79ZV/mX64L8R0zmubTAk5jabPPttm+r/HlpnyxF6iWnHOO03L/vaW6Zl5/zTxLvPuL3n0cdM7ry80LS/jDodTVdUo7tFHpq9/SzeViO8MvzctjVWmlowPTQ/d/bbpNVFHqdjP2Fhpyv5knum+934wPf3cX0zvP3q26cJPsk2VjUrNNrWlc9cHpuefesZ09hMrTPnqfipNuaaqXe+a5s191/TD5lxTjdiUvDzZ9EDo46bFJXWmCu5Tu920+Yd3TRde+KlpZ1WT6bWL/mF6+/nlpt3MMzaZTPmfmR6/5x3TG//aZhJXVGyqEpvmm+5553vTv7ZZXv2D2PLM7k8ftC4LJRKJRCL5g3B5wSgfH6xMTkadXg8hZbpyoIT4KGhsxI7MTBirqzHI0bF7SJds+t82/LKsBpM+2oU1W3Zh5dtD4NmxF//6YR8nxgEZBQi68CU88c0uJCx9G+9d24rvP1mGnZklWLbNF3trrsRHu3Zhi0hfXjkU033rsG1XCz57shUXfbUCi8T2Xb+9iqcuC8CGN5chv7EVrflLUe8Sj6H/txy/rnwA5we446pp2+DjnoEUUS0MBmDXNmwbFgqHKx7AX5/+AbtYDtOXVyI+tAlL1+9Da30Dlj3yLEom34Y7Fx/I3/TrSrx4fgASP16K1IZ4XPnlLmxPWIFlzzQj8ffdWLWpCNl9tO/fS0PgHP8EvhR5W9aswEeTWhHk1gJLxwv/gBC0dtojv6JKNLlNNHklnOyN8PViiHhCJ49SpCe1QmP0xOxZozB2wlnI3rEXuVW1h5WHfSnIMDQgKToIoeJPWkmT8kNQ0+qLgJ6c4IzN4h59gldun4+zJk1SVtCYNOU0TJr3Er7cnYsKZadWGPSl2JXQgciAAJw+awrCgociNWEXCvQGkWsFK22priqDi587ho8d0b2tX3h6wU3rjvCMQlQY2w+t10GUFhqOkAod7CvqUKVs0ohN0ajQtaCi7s9ze5GCTSKRSCQDgpeLiyLYgp2c8JsQZvk6HQxCkLW1t6OgoQHr0tNhqqtDiBBrvu7uh0y8LkUMGoNm4KLzR2LM6JGYcvooxLS0oWVjKtIdHGEMHoGhI+MxVuSNnTgaU6bHw3dPDupqGqFrKkLZru1Y8WkqmsJiMPHKCzF94ii4N1dha8oKfPO+EHivv47X3/83/v3Nb0jcloF8vRGtvqMRM3IKZk4eimFDg+ClccD4MTEw2tthZ2o+jPp2pG/PwtBRERg90g1NmQn4QZTzFsv6/Ces/m0vyvNKUdyhxa+FUxAZPxYzZo7EyJEjMXzYUIR5aVDkMBqeQ6fg3NkjMWp0PKafMwaBGUWoTslHYh/ta6vbh/TVO7B5TRkcx43B2bdegQlRYbDUTJohwxDVaofgPXuR0l6PrKzhiAj2Q0RYl5Th0GR1EpLrAtHpFoUxI4PhM3YyJuzbhaqCapQUCVH0y7t45KabcItIN727H9WBo3DjjZO7BVGLbzCcxb0N6MmHxkELBM/EedfdhQcefxyPMz32EB6/ew4mR/orqwtBXw99VTo2NYxEkFB+Q8YOQYgQRyOTNiG9TI96vdintu+2tBuNsNPYw9nVRQnSfuAb1A+EKLO3s4e21QCj+H4eEmiG30c6xYgfCXYcmuQmsb9jaCT8G5phX1eP+gN7DjhSsEkkEolkQNCIF5ufEGJxgYGAeKmmlpcjtboa2UKk7crNRWNVFYLEyzBcvPjpZcoQI6pga3UNhV3QEMQFsxzAxS8QPkY7OJVWodzeAZ1+4fD3doWnk8h3Fp9BQrjUNaNDCJvYKUNw3mXxiNEUYM+//4UVqzKQWiIEj7MTmoODEeTrC3/WGTwUcWOn4tKLRyPExRFaryEICA5FpNm0ar+RsxCq9YBz7i7ktpdga6oXhoeGAGVlWPNTIgodfODuJcoKCUKA1hEeTS1ogBaFGIMAP28EWMQwbhJ1eHTVYSfOwz0kHH61ot21Dajoo32nXzQBp58RCveqJGz46DMs2VSF4voOxV52CH4jMdhHiyHGJKQW5WKPaSbC/AIQ2dWWTqMeuvStSC3IwMZNq7Hki6/w2Yo9qCvZjuT9xcir6hDXlGveusPHoQRpic3otPPDuAkRcBfH8w55dgqZ0tKMxmalyMOxF4LNbwymzbkUV914oxIG5sbrr8WNl07DyGBvZR6dUVeN6tQE7C7OxYafvse3Xy/F0vW70VS+G1vSRJ5OCEt7xz7b8odpa4Ohw4CGQG+4O9gfujJPp5Bv4odGo4czOt1dFScHBbG9k99VIfT+LCElBZtEIpFIBgSKL2etFsHe3pgWHo6GpiYkFhcjWaRCkYY4OyPCz08JDUKnBXqcqoJNa6iHSVeBsoYD70xDkw7NGhPavT2U0AvmL+oOowGtuno0+nvB2UmL2BlnY/5zD+OFp8ZAu2k5lr7xOZasSUQ+POEXOR1XP/oKFrzxLt59l+lveGXBPEz0clEEwGFETMI4P1dM0G3D5rxkbG+bDD8PfxSm6LA1KwhzX34Xr73zLl5//EpcNDlKsRzZox2+QrLpmpqhsxjXc2qtQFtDPWqaOIe8E231tWhyc4K9myu8tL23b+xlN+HWF2/DrRd4o/rbL/CvBf/F2r1FKKPZ5xAiEDXUE2Hhedi5OgH7osbC19MPAUqeEHgGHXK3b0NtUy6yM3dhzaJV+GnVPugjmpBWUISchkBEz74dz73zJt5++S+4bbS4rmVF2JNeJsSouB8iDUYumnLSsXXPwW2ktbYWdULMmm+zTjuaa8uRs2MrmhxKkbR9HX5ZtAFb9+bBGN2E7btzUC6EbLv3MAzpoy1aJyd0GjrQpGtSVgjqK6Ct1kkPL/9KNDR2wiA0YXtNFep0NciPi0CQRoNA7zrAQYhR3qOOdrTlZqLQ1xXtQtDxGirbSgpQ7yXkm4/XAWvhn4AUbBKJRCIZMCjAONQZ4uuLM4Ro82pvR21FBaYIgRYmhFpQUJBiXXNxcTkkDptfzS4gZQV+3NaGusY2lO5NRrYr0DJ9FMaLV7K2sx1Ggx76tjY0lJchJ+V3ZJ09AWEhfihIqcOi9a3QuM/ALd9+iPuuDcdwVx30hQUI2fdfLN9Si7zyNmVJoDa9KEO87HsOjO+HyNhOBLrtw5Z/JSJvwmi4MiZmUCR8hw7HKJ82IRjbUJaajKzCfCHThChDC053/Bzp6VlIzD1Yj7HDhNCSX1CauA3rUtrQrNOhYNsWZA0LgfOIaIxv6r19izeWIyHRCWETLsX9P76N+05rEdezFY2NB1pqTni0L5wc9Pjy9W8QMDIObn4+XTmt4poVYOeW/Yib/yxe/98mbNok0rpV2PTB9Yhsr0VObiGqeT0cXICQC3HPfRFwKduG9578Ads5t0w05vT5jtCLbV+/8QO2iXZyyTG2NzdhE7YsXopEcbjQQr3QgNqqPKSk1OOsJxfh8xVd7VjxOX54cjbqklOQW1mriDKFXtriGxAKfW0TMpPTUSrarVocTZ1CnLYboNczbAZD0uiFQGuHV3AlJpy9DonJOpSL61yVk43sgmzkDwpHgMYBk6bvgZ1bhmib2T1ycYDBz1t8G0T54jtcWpyPIE9XBAnB9mchBZtEIpFIBhSKNobrCBAibXpMDM4bNgwREREIDg5WLGsM9GsZNHfW1dNwwXx/7L5nIs6ZPhFzHs5Cg2YM7rxyWPeE9pdvm4fZEydi5g2v4LE9Z+ONu2Zg0hAhTLZ9h4SH52DixCkiXYQPdEPgOu4M3HZ+LO595zLUvHMF7jpnosgT6cyrcM4jS7G3vtX6JHeBZ2QsXH3GonK9A644LxSRoc4Y77sNPlkP4yJRxhSR7v4hCxn1PogR+7t4uuHiR+6G/cZ/4NVLDtQzc/YcPLuyCuPuuRgjPVPw/fXiuFkX4qKX3DBuwgScPysCQyb10b6lL+OTW2aL7TMx++K/4Mfht2L48DiMsmbiiYhGyPBzcLH2fHGNXHBQr9VCX5qOhI5bMWp4LMZEdG0XohqTpmFaQxGiM3PQWN21nQy7EldfNRLz/Vfh0XMewed766Gf/ADuuvM0se173CPaOZ1tFemST9bgB4zCJHFYTwFlFXSFqKrWY5f2blw0yQ3havt8/OAyVlyP7O2oy61CoeWcfittKYkeheHaTsRlJGJnKSD0rYIudRkWv/UgzrrxLWzc/BaeFN+Xe5/9FL+2x2PiTQ9A+/pVeFhc59m3LMKy1BF48YFJ8HTXiiruRERTERKs3KMDjhJC8CakQmunNXPkGHjk4u8SyQlCf/vM8brY+NF+llhyKtdxrO7Ht99+i5CQkD4Xf+/sPLCyAuvlq4erHVDIsbzD6tdXo7IwC7u2ZSmTujsQhtgxcRg+JhzuLS3Y+ssvqBSfnJcOJ2+4BA7HGdNj4OOkQXlyMvaLVMI8gdeQaRg5JBKDvY3Q1+Vi64Z0VLYaDjs2N7UM7l4uiB3sf2gwXqUtZdibbMSQufEIctXCWJyM3P3JSO6qxCssDE4OfvDx8MPI8SFwa87DHjoLlNWD07w0Tq6InDQXI31qUJOdibSMEjSAM/YjMWb2SMQKxeLR3tRr+yq3bkJ+URFqxGYHrQu8R5yBSbE+CHS3NvO/EXXFFcjerkOQaHOgaLMS35V1CFG2NRmIjReiOdAdB+4kVU4V9q/PQXaZPbSR4Zg2M0KZs8U7o6/ORmFWNn4vdsKIM6Yj1scJjvXcloZtWd12MMAvFhGDh2N6tBe2bs1D7MiQg3UwsK+4Lr+ntcPZHXAXKSdXgzHi3LzEfTtwFm0wtFQg9ZcsOI4ZjSaDPezbWjFyQm9taULJ8i+xYt0+rBv3AD6/eggC3By79ju0fX6xYzBYiNwYl1JRxy7kt+jRBD/4RwzG+DPjlCFPB3GFi5MzxHcoV3yHLO6RLg9VST/iplfTMfvu+3HRmeMQ10N3s+WZ3Z8+eNwLNjbPIOovr6lRomD7igdRf5YwkUhOFqRgG7jzOFnqON4Fm0QyULTkb0DChtV4Z307zrr8JlwxbRBi/A+R3UeFvJTd+OHjD/Cb31V46PopOG2oX3cgYkuOtmA7rlWPItaMRpSJh1BGRQX2lZWhVPy/VZwcf6n9USoqGpGbX6v8iulTtZJO8eugIR8Ze3djy5YtyMjI6Mo49cgX161EXD9D198SiUQikRwrXKPHY/T4abjaIw2/pZaitIHuB0efUp0WvxWG4OorZmB0ZM9ibSDol2CzwRh3VKFlraqhAb/n50MTGopKrRZbs7NRVl2tTMS0KtpMneho74CxvbNPEfbTT2l468PNKBP/P8wt+jBEaQYd2rf/E0/ecw1mn3U2nnnmma68Uw8u6vuNuH40zVvC+2IQopq/GtraDMq96FC26cU97TSb3GtSJoUaDOJ+cTKoXj3m0KTXG2DoEPt2HSUZWP6Mfi7rsJ2TpQ6JZGDxROjoebjlH79g9VPnYsYgdVLc0WXGjNFYveJV3DLKC6E9rCF6JNjSB+2ampps6ql8CdMMbitq5T2Z+ES9+Oqrr3DRRRdZNRW2GQworalBenk5vGJiYHJ3h85oRFVFBZqFgDsrOhrh/v5wc3U9tF1VG7D452Jk1Ibj5ofPQLDY1BUq8DAWLtyOPfsr8djr8w6sR3Zgcw/UorFiO/4171PUXHo1Rs6Mx4xwD0RFRXXln1o8/vhyBMQF4vrbpiKka5tK4oYNeO3++5Ep/m/EDFwgBO6oESaseupvwE3v4eEL4zAu3AVoLUZd7gY890/Ao/FH5JdnI6X8QBnmeA6ejPHXL8CCucHw4YJ6pyiqef3ss8/GoEGDurb2TF990Br97ectLS3KPCRbh/nI0X6WWONUreNY3Y8lS5Yo6yXKIVGJ5CC2PrNt7YP2dLfuK6mL8XJuhLV8a4n788FhLU9NPUHrWWFVlbJsiZt4CNh7eMAgyjKIh5AxIAANkZFYI4TcfrFPY3OzMom1m3Yd6qpqUFquU1yKDzxajgL6ZhgrCpFU6AnfmCEYPTH+lBVrfREW4YWLLxsDe4cxOH3+6ThjxiB4dDqhQOeM1t8+x+9Z+cjhLNxOIzpaa1BYUIOASRfg4rsexaMP3IS7xbGOyrE34Z5HH8X9N1+FS0Z7wZWr+UqU/mitP1kmW/qgeRqofm6eZB0nZx39EXwSyakG+5l5fzFP/emDDgsWLHiena+3RDgxjkENreVbSxRR7MRKJVbyWR5Xsad1zc/PLKy0ILesDMVCiBmFUHMJCkKrOBmGmdHxUxzb6uKCktpa2AlBx6m1Xq6uysmSvE2LsfbXbdidVYym1gqUd4bA374MRXs2Y/XyNdiwYzd27MhDs5sf9uc2oLG+GTPOiTsQ7LA5D+nbEg7bz8XTA20FWdj42X+waEeZ2NaIyrJcZO1JRPbWzdi4Ywe27yhHA5zgEe4D+1YjVq/eh6q8tUjcvQFr1u3AnuQ01LkPhZebFq4d5SjbtxO/fLei69gslLdp4CTEqE+vftBAenoetm5IQGHqGqzZuAOlJjfUFWYga+NyrNpuVgcvh1GH1spkrP7fT9iweSu2iPMpqOyEV1yQ4m2zbcVeFNe3wEm02U0ZFC7F3hUZKK03wiHIAfaHHJuO7FLx6z0sEj6i7HW/7oebvxtGjw9X7oE5bk5tCPZtwvrfwzD/1rMwc1IUmkubsHl7Kc6OycNeh2g4ewVipHcbWqr3Y/kGYNZV5+OsOWdg2rAQxIpjNyjHXoKLLjoDk4YNQoyf+GLb226ZOBkxGAxKnxk2bJgSaNRavzJPffVBy0T62885ZM0HDmNoWcu3TEdSx59xHidLHcfqfqSmpiqODtHR0UqZEonEtmc2sbkPPi9QjugFmutYIDsolaAtcH/uy4eHNdQTsSbYMouLFXGmEduNos4m8X865dabTNCJtrSKYzvEg8lUWQmGrAvy8lJOlqT9/AXWbdyK3XklqKyuRGPQdASW/Y6961Zi6eoE7EpNQ9rv+1HjEY2C0nY4moyY1SXYKnf+hrXLVhy2n19wEDTluVj74b+wuUmHhgYhbDZvwbY1G5GTkY+kzDTs2ZyDCq0H3IbHIKTdgL89+hlKi1cjOe13JGzYidQ9W5HifCaGRXnBpTwVu39egq8Xr8HOtDSkJGai1OAOx+AYDAsVD1rRlp6u8vJFG/DVZ1+iomwL1q9ehb1N3ijPTkN+wg/4JeFgHaFeGrRVZGPfys/wwb/WYdvevUjcmYXcSgMwcRSGu2ux+O8Lkd7QAvfx8YjW6IUi3ojP/r4LhUY3+A1yRO3qH/Hl/1Zic2IykpP3Ia+8FW0hIzE8zAWb12fBvQfBBmN9txAbMysOMZE+qC5qwtZtpbjpphBsza6FyeSCoaHusG84dD8XK8cefT+fE5Pe+ow1+uqDlhxJP6fHIB8ktg7BDcSzxJJTuY5jdT+kYJNIDseWZ3Z/+uBxaceOF53eXfyKy8/KQr34bBBCra5LrDWLB1JbRQXskpIQI07SXzw0jMaD8ZRnXnURzrz8QVx67Wv4bs1P+PSWUcj8qh4613l4ct06rFu7DOu+vRCu+9ORtDEV5rEBF71eZnW/xI1p8JoQiwcXPoiJ0x7ESx8vwjPXXYUzo+Mx6R9b8POGLVjxxhB4d6Tg3z9koJNBHff/B9XR9+DyBVuw5acv8L/HTsee1WuRXlSGXxbVYvumGNwh6vmJdS26A7P8GrH9u80oFe3o1QGish6uTkMw4W9r8POb18NxRwKy9EMx68VD62Cswew9efj4yRUIfPAb/PPnLVj52WW4aOQ+vPjBLtQ3GXD2tF3wcduPlAyT+Gbp0blrG3YNC0XL8Chofm/Gv59uxDmffovP2cZlz+EvF/piwzvLkd/Y1mOAyV7RugMT7sXtfpvgVrwGi9I7pCOBRCKRSCQ2cFwKNmfx63BIQACihOLM2r0b1W1taBJiraW5GYaiImiEWBvv6opwLy/lV51qXeuJcmzD158+hBsYiXnKLEy86CV88f1W5FfUo6lrH9LTfpnldajq2kelNng6NBMuwRWTABct4D9iLIY028NrWyp2O7rDMOJuzJ4yCGMixc4urnAMi8II8cuXlrxaZGBtwmsHo0PPeQgvvvcLMvLLlUCPvQq24Fj4DR+LyREO0EZEInrEdEwaEosREYfWQZo9B6Fy7N24eLq7EkXaKzIWsT4RGLxyG5LbDAiKnybO3x3bUjPEL4EO7N5WgNNHR2K6aHSzuBrJVV/gr3POwDls4+ybcfsTXyMlvRD5xvYjE2xdDJt9iRDkHshbk9C3QJVIJBKJRHJ8CjaNEB2+np4Y4u+PkS4uqN+/Hw1lZTAUFMAtPx8jNRpE+fkhODBQWYOuL/O/IWQCxl94Ix549FE8+tjjePSvL+PNt+/CdRfEI7BrH9LTfjddOErxIjWnXeMOuPrA101cRDvRZiHKnDvs4NDUgiY7B5hcAuHp7gxXzkmzd4CdEJ8uEPk81ncIwmZdhXtFPY+wricX4OVX/4LH7jkNg0V+rwMmGic4iLrctXawc9LCydkDbs5OQjQeWgfpdHCG0TUQvu5C3IlCHbROcNZo4VzfhGYhgB1HnC6ur7jORVuR1J6FTVlDEOUThMEBWnS6BUIzah5uuv8veJhtfOI5PPfiX/HG3y/GhJ4WSbYRl8jZmDTUDcNdfsfqNKDtsIWLJRKJRCKRmHNcCjaO4zoJ8RHs7Y2xQUEY0t4OTyHYfCsrMUgIDVrfKNZ8fX2V6MCqw0E3Ta1or2tS5r1xyM2j04iQqHiMP/8m3HSTms7G9DHhyhw4lZ72myX2sxx9dm0qhKk0HSnFgLEDaK4oQ7XWhLbIYEXcqaLJGq6d7QgSwmjoWTfh6uvVei7E3NnDeg1D0l8c22rgXrYDaYV6NLQKYVRfi9rWBtTERSLUUQMXvxEYEeyIEYbd2LwtCXvcJsDb2w+BQv86mjrgr7FH5LTLccGVahsvw9VXTECsusTJkeISgaGjozAsoh3pS3egpNWAgQlxKJFIJBLJycFxKdgIvZBcnJ0RIkTZ7IgIjBFCbZQQZqNCQhAkRFyAEG0cDj1sop7WF16mZtiV/Y7NO3chubgREZpMtObuxOqft2Lr1q6UmIP8yiYl9IfKCLccq/vlVR4e0T/SWQhI3S78vGQrtmzainVrUlDg4ga/M+PBqHK9Wcksj1Xq+T0DaQX9WHXBBnwdGzBa+zs2rtyOjeu2YsNvSUgua4Xb5VMx1EULDwYajHGCn0ct9nyVjY6pw+EV6K1EbrY8VmnjziTs2leBRqFQe1tnorGhBRl781Bfn4f9KbnIK6o7ZOiZuEbHI1ik8KydKDUa0NK1XSKRSCQSyeEct4KNUIhRkAX7+eH0YcMwJS4OYWFhinssxRota4d5VfjNxNipTgi3+yeeuvAyPPhFKobeOAejfDOx/J7ZmD27K938Fj5cvQ8NGoduj8zLnrzY6n4f/JKBWrGXnZ2DqNMB9qLOGVdMw9z5QUh5bDYunTMbVzxXgBansbjtsjixH7r3O0Dvxyr1XPUEHvlkGxg3trc5XQ4O9tCobRZl8v8asU3UcEgdZPCEQbj7jcuh++RmPHzZbFx8/09YnRWP5/9vArzcD8QP8YwYBFf/8WjYrsUV54Yisit0s+WxShvn34rLnvkFqbo2GLvrPZyUxHw8+X8fI/H3j/HiX97FB59vQ7ZoE9vWfUkQjsEjz8C9L1wAX383OPRwrSQSiUQikYi3o0kNW90LdDllfJ+judBxfxayZhPp+moeYZtl99QWQ2Ml6msqUNmigbN/FELdDdDX16OqplGxYCk4+cLewQnublqEBHuCg6p2DLpbWXvYfn4BPgj00gB6HUoqAO9AT7g7tUPfUIfSklplOM8ED3gH+cE/UAjJ9k6UlNTDO8Ad7q5aOHQa0N7rsQJHD7h7+yJMbQu3WaGurgWt+nb4B7nD0ViPiupOZf6ct2X71Hrb6lFSUI3m9g4hBF3g6umDoCg/JQ6bUkdHC1oamlBZ2QmfQQFwE0JJsQ4edqzAwRkaNz9EhXmjvroJWicNvH1cD7Mmtoh7W5qff8h1cXV3QmNVE4LEsU4a+wO/FNqF8GuuRU6dVohwT3hZu1bcxn0lcvH3ATyPk6UOufi7RHL8cLQXfz8hBNupgw4t9Wn46YWvsbO+2co6nSEYdfYcnHnBaRjn3bVJcsogBduJLaZO5vthq2DTi7qqiovQ1tKM0NjB0HYFC7W1bonkROJoCzZ7BnbrK7FAwnhn1vKtJVrEmKzlMbEsG7TiKQaHAzVwcnOHm3jg8qF7aHKDi5MjNMf1QLZkoGF/tNanLFNffdAyHWk/Z+R7a3nW0kA8SyzTqV7HsbgffT3LmW/Q64VYK0RDUQGaxWdB6l401NTYdLxEciLDfmbeX8xTf/qgXXNzc589hZ2JHZS/hGyF+xP+ErMGF3//8ssve1z8XSKRHIr6a+2cc86xafH3vvqgJUfSz8XzQ9m/r1iIKgPxLLHkVK7jWN2PxYsX97j4O+swipdNTVkZqnP2w6PDCMeOdmQXlcBn2AiEDB4KTz//fq22cLThyzAlJUX5JAwXFRsbq2zj/zlv2t3dXTkX7lNaWqpca75saXG0hNczNDRUcY6z1aIqOfmw5Zndnz4oh0QlkhMEOSQ6cOdxstRxPA6JGvV61FVVIXPnNgzy84G3VoPOpkY019VgV0YmwmacjvD4MfDy81PafiwoE2Jy2rRpKCoqUs6NhoR//OMfmDx5Ms4//3zceuutmDp1qmK9LC4uxhtvvIG9e/dCp9Nh3759yktXXWOVydPTE3/5y19w7bXXIiYmpqsWyanGUR8S7fqUSCQSieSoosxZKylCQdJuDA30h4ejA0xC8JlamqFtbcFoNy10Wzcgf1sC6qurlZeXDTaEow6taAsXLsSVV16JZ599Fu+8844iHkeMGIHc3FwkJiaiWrTPnPnz5+OHH37Ajh07sGLFiu5jd+/ejY0bN+KOO+5QohpIJEcLKdgkEolEMiBUlxSjMicLwU6OcEMn7IVY62xqQKeuHmiog7O+FZ5N9WjM3If81L1oaWk5RLAlJSXhlltu6U6ffPIJ1q5di1dffRX//ve/8eijj2Lp0qXIysrCyy+/rKT77ruve78XXngBt99+u7JPRUVFV6mHw4XsOWTFYOwUWVFRUYq1w8XFBaNHj1YsIBRm5lDk0WoSHx+PuLi47mNHjRqlCD0Oo3KYVyI5WkjBJpFIJJIBwc5evGKE/tILIdbR1IjOxnp01teho74WxsYGtIrtLZ0mtHR0olmIIgojVbClp6djw4YNqK+vV+bkcQ4ZP0tKSvD1118jPz9fEVUURYWFhcqwbENDg5I2bdqEn3/+GXoOx9bVKX9z6PJI4LCot7e3cjzr5tCnRHIskIJNIpFIJAOCX0go/KKiUdqgQ3V1FdrqatHRUId2XYNiTStvM6DUyR3toZHwCA3vdmgg27ZtQ1paGp555hm89957+OCDD5Ql8rjSDZ3WKKT++te/Yu7cuYojAMXe1Vdfjfvvv1+ZD8ShzDvvvFOZS0bRl52d3VVy/4iMjFSsbxRqHOpkPRLJsUAKNolEIpEMCI5aLXyEEAsdPxnpJeWoqaiAUYi1NiHWqoVYS+t0gN3QkfCjp6inpzIEaT7xmsOOEyZMOGRokftxmJJOAMxXt40cOVIRVxERERg8eDCGDRumeK7yb1u9ZnuCw5wsk3PW6B0qkRwLpGCTSCQSyYBAj0lnIcICwyMw9JzzUaZxQk5tPUqEWNtv7wLv8VMQFB2rzPfy8/ODq6urzd6qfyZeXl6KAJwyZYriHUpvXInkz0YKNolEIpEMGIwv5erujuCYQQicPAPGwSNQGxAGjzETECjEWlBoqCLWOEeNk//NBRvDImRkZChBRY8lPAda77im8qJFi1BQUNCVI5H8eUjBJpFIJJIBgwKMQszN0xOhI0cjYOI0+IybhPCRoxBsJtYYRsNcrDFwLSf7f/zxx/jnP/+pxEWj52dlZWXXHkcPxpb78ccfkZqainXr1ikOC5Ywth2tbMHBwTbH0pNIjiZSsEkkEolkwKGVykMIsMgRIxE3aYoSAoMrAVCsWVvlgHPXOAS5c+dO/O9//1M8Q7ds2aJY2xhGgyJQhWJK3Ubhx1UGaBFjmRRXDF7LYdeeoDcpPVLpvEBnBf6fZbFM8yDEbCudGmhpU8uztQ6J5I/Sr5UOOL+AcxJsoa+o3v2N2q4207JTSySnCn/WSgf96edHGln/aD5LLDmV6zhW98PWxd8lklOJ/qx0YEsftGtqaupTsBG6W9vaoUlfAoueNrasJdopymkWD4jknBy4OztjkPjl5CIeFOa/riSSUwG185999tk2rSV6JD9y+tvPGZqBlhNbRQg52s8Sa5yqdRyr+7FkyZIe1xKVSE5VbH1m29oH7QwGw4He1wssjGbo/izOS9MyG9CTsGIcHUaq7k2wtXd0oFE8gDJKStAk6jbo9fAQbRkeHAxv8QvScs7Dicr333+v/DqdNWtW1xbrMJbQ9u3blfXruAxKf/gjx56qMHo657VwmIOL9zI8wNGGkdz/85//KMMsLL+3F63a+efMmYMhQ4Z0be2ZvvqgJUfSzxmklP2Qvw5tYSCeJZacynUcq/vBcBcchpSCTSI5iC3P7P70QYcFCxY8z19kvSVCsx1j2VjLt5bUhXDZCGv5LG/Pnj2KWOOkU0so1uqFqMuvrkadOAmteGk2i+OqxDZeBE9RrqN4YLAsWx80fzZbt25VhCnnafTG559/rpwDRRsjcvPFbe2hzojdv/76qxIAkgKiPxzJsfwi8VpzSRb+cjc/D54b19Zj/CPeYxV6dPEc8vLyus9j165dytIw/FQT54z4+/sfcixfNikpKYfsS28stoNu9WvWrFHmkKjDPX21j8fzvM2FFrfZ0hYuY0OB+9tvvynxl9jZeK6E5mvLttBi/M033yhzbFhmVVXVIT9ELOulCOSEakZoX716tdIGWii4rSf4omSf4cRnHm/ZpyxTX33QMpH+9nNeC95jxs+ylm+ZjqSOP+M8TpY6jtX94GR99oXo6GilTIlEYtszm9jaB223g/+JdIgXcYN4ARaJl21xayu8OHmUXkTihI1C1OwWL+kU8UKt1umUC6Ka6I83eKP6E12bL3lOduVD93iA15VChG7sFGHqtaa4WLx4sdJWzmdRYT73e+uttxTPrpqaGkVUUSi+8sor+Oqrr5REyyp/kdO6pEJhxcnFtDaq+zFxonFCQoIifLk+ICcEq7BsztnhhGQKNGLePraDn/xb/Y7Y0hbCv7mIM4NzXnHFFcoEabaB9bM9jLqutoVikUKVv6RoLeO5s90UY3y5UfxRlLH9FOdvv/22Iux4zhSCXOtw1apV2L9//3Fz7yUSiURyfHFcCjbOWcsuL0eheBGGjhiBdkdHUBa02NnB6OcHuzFjsFzk7xWpTog3vhTN4d80MaqJL3bClzb/r26nqlWP5Sf/ZrI8jpgfx2RLnffccw8uuOCCw+plYj2qiFBhNO2///3vh1hZLI+zbJN5e5nMy+ztWO7X27GEip5WP/5a51AqLWo8z9LSUkVY0OpFy5QK87kfrYWsi+vuUdDxl8V1112nLDXD9NNPPyn7vPbaa11HQhFB77zzjiJw1f2Y7rjjDuXXvK2wfayX7WMd/DRf/8+WtvA6MI+C+9JLL1XOn3Btw9dffx2XXHKJIkZVOHRKIfbYY4/hl19+wWeffaZEXWcYAloAKQi5VM5///tfrF+/Hk8//bRS9ubNm7sjufPXFdcqLCoq6ipVIpFIJJKDHJeCbW9uLqrFS9MrOhpcBKRRpAaR6vgptrdqNNCIvGTx0tzXJQpUaKV68803MWnSpO7ECbEcbqPQoBXkzDPPVLZTTNFSwvldjzzyCG677TZlG/M4SXDlypWKBYfHsgzzMlkH61J56KGHuvPUY1944QUsX778sHqZ/u///g9lZWWHCL/k5GSlHWwPsaz3/PPPV6xJhOe8bNkyXHXVVd355513nlIG83o7lnWybrbB2rGWjB07VhlmoWBRBRvd3S0nUTKf+82YMUMRehQl1iKCU+Spw4sqtGixHVwb0BzO66OFy1Zo5eOQI136J06cqAzb8G9ut4a1ttBaxv2HDx+uzMuhcCXx8fHK/Vm4cGH3kjikXPxw4NAp8319fZW6o6KilMWpeb0o/midY3lsD8+T5dPCRjhvjedJocj7JpFIJBKJJcelYAsRLz2NeNFxKKmxsxM6sY0SpkH8v0m86Fr5oisogJcQF1qxn/nLmC9TvvQeeOAB3Hfffbj22msVMcCXNudVcciNCwQzn5YNDpfRCkPLBxcVpgC65ZZblLXqPvzwQ2RmZirDWQymyGOYuAAxhQ2tKXwRU/Rxkq9aLhcc5pg1hRctMRQEjCd09913K/ncj5Yelms+BMbhR7aRli/CfM57OvfccxVxxaEziifCicW04lx//fVKmWwzz4fDlBQQvR1LK9jzzz+vBKbksWwX57Xx2lBkWMK5VaS4uFixxP3++++Kxchy7iEFHy1rFB+0FnKIk1Y3S2jxojihqFOhZY1ihudkDq8dRRWvCdtGCySFNROtb48//rhimVLh/aTlivdy5syZyrH8m9utYa0tFLOsl98BtokWOMJ7TAHHOW0Upir8/vE7x3xup2jj/DYOcfJ60crG60JLHfMZr4nXRQ0Aym0Uv7z/qliXSCQSicSc41KwhQohEEIvJ/ESLBEioVa89LrFGudF5eQgpLYWUeJl6iNeguZDZpzLpFqKmPii5nBbWlqaYtGg2KBgYeDDa665BtOmTVNeyCxj8uTJipi69dZbcdlllylzmDjpPTExUZmbpZZJkcX15CgE+H/OixozZowiIngsh9z4AuYwF+Eno2Pz5a0eT1FFy0tPlh/C4TG+xCm2WC7bRisNYXtZJj/VMikeWSZFYm/Hcn9G8ua5qedEoaBaAy2htYjXUV0ihhOMaWGiKCIUI7ymFD8UkuPGjVMSHQgo8tgeXkNGK2eipY+ChlY/FZ4Hr1NP3m3qPaI1isJHTTyG2wnbxntMYUcHBFrYKLAo1tkG5vMa9dUWXjeWrZ5ff2EbaZWjKDMfhiY8D9bHOpgI9+UcOYo+axZJiUQikUiOS8HmJIRYpK8vYtzc0FpYiFrxsmV4j1a+zMTfPiLFe3ggVOxDS4h5KAR1LhBjvHHiN4UJxQYtQhQZtHxRmHAIi5PFKXr4wuQwFq0sFAz0dqKHHy0ffInSusOXL8tk4lAkhQ3ncKnw+J68QXksJ5VzgjvnMXHeFEUDLYjmQ6KWcC4brTlqW8yh0KOI5DlyojsdA+jVSKHG8+3tWIoGXg8KWZ4PRcvGjRsVIWEtrATPjaKIAo/CjonXSj1fngMtgzxPnhNFGgUchRMtZ2wTBfMXX3yhzO+iNyWv3cUXX6wcT/g3rVkUVdZQ79HDDz+szA1jev/997FgwYJub0wKIDoCqOKRbaFQ4zbOM2M+73lfbfmj8PtCqx2vsWqdU+F23h+eKxPhteV3jtvNLa4SiUQikagcl4JNeYGJl11cUBDOEMJAl5ICnRAL7eLl7yM+JwmhFhoYqFhAKMJUSxahW/lTTz2lWJooYNRESxPnVtECx79XrFiB6dOn49FHH1VeopZwG1+2TOYT1c3L5Dw2Fe5vrRxCq96TTz6pTGznkCWHK/m3LZiXa14+LTF33XWXMpTJEBMs99NPPz1kblVPx9IKRuFKr0XLc+IwojVoneO8NZ4LrVbmljCKRw5/cuj51VdfVcqgAKK1i1Y5ihAO3dIzkvPqeD0txSrFIEUVt5vDdltaqXqC14R10LLHYWC2g9eZAortYz7r7qstqsgyv2a9oX5P1P0p8im+RowYoVxr8/JYD8U+fyioFjxuo8CkcORwqkQikUgklhyXgo1QtLkJURAtXqiXxcQgrqYGw1pbMUG86NSXHV9wtAipQ2KElh4OZVIoWMIXJa1jHAKkR+Jzzz2nlGU5+Z8vdooPDmtynhcFByfQ9zZ5nfX15OFHKyDndHFokUNtDPfACfp9QSHBctX28RgeSygEKKLYPl4HtpmiRG1fb8fSisW/Gb+spzZbQiFM4fHSSy8p88zMvUMpTmito/ckRRCvP4Uxw1uwLjX8Ba1kFHsPPvigUi8dNVR4LNvHkBvm0IpIL0tboBMIh8OfeeYZRcSyHfzk39xu7iTSW1toOaS1kN8BW+B3iI4mHCrmfeB5UIDyftO6yWF3Wtt4P1RxS+uaKq4pKFXBZi64JRKJRCJRcXies8/7gBYOvlTMJ2D3BffnvpbDcSp8cVEEcTjLWuBcHsvE4Lgeol5P8YINFgIuyNtbsULw5abOXzJvE//OyclRhj05t4yf6guSQ3kUHLSuMFGIce4ZrU20TvGFS+cC9RhO5Oe8NgouWk0oHOicwCFNCgkOvdGKwrJp4eJ2CgQOt/LFyzIoCjiUp4Zx4D7qi51DdPPnz1faQgHExP9zGy1YzKfgovMAh1QpBDhRned++umnK9YulkvnB1rK2B6KUs7P4zXt6Vg6IvDaUYDSm5Vt5tAxRQ3ba83Kw/3V8miVVMUIxRrFBi2W9LBlpHPmUcRwXhYFMi1njDdGT1QKJZbPa0/RyOvIoVsGt+W94xAqz4f3gIlzBXn96YHJv2kl5fUk6tw5ikPuwzZShNLpg/eVzhIcuuVQL4c/Oa+O153H8Br01BbeB15bDq3Ts5fl8jtG4cn7R49fXiu2lfeI9dCRgHXwWtKCyqFXzh3kedGKpw7D8jvJfAo8OmfwfrAMxoRjvRTh3N8affUZS/rqg5YcST/njx9eR2tD6dYYiGeJJadyHcfqfsjAuRLJ4djyzO5PH3R4+umnn+cBvSVaaPjJwizzekpsgIq1fD5YOI+Lw2w9nQjr40tc6+gIbyFgvMWLly9fda6VpVgjFAkceuKLmQ8UJr4UaS3jS53WFF4YbqeliC9NvrQ5F4wvTM794guaL+Gbb75ZaRsTt3NuFi1bPJZtYF0UEhQ5FEN88TOPx3M7rWk8P5bFtlIwsr38my9mvuTHjx+v3FQ+6ChyuB+3sY1sNy0z6mR+3nSeBwUmE6EwoBWLbaQVjwKB3qIsu6djuR+FCed3qW3mPjxHXhNrgo3Xmy8C7jdv3jzl/AnvJcvgNecQs+ptyfPgA5z3gdeHwpfillCMsi5eH7aBzgEUYbSachtFJ9vExOvC82E+vzMUYubtY/38flIk8nieM8WsOmTLMvh/Wsx4XSmkKYhUBwxrbeF9oMDl/eY9YN08b94/OotQvPO+Mo/Xm9eM15MCj/eX2ykOKbx5zWixo0ik1ZP3le3kkDHvCc+JQpBLYNESR89UnoM11M5PqyrbbN6frKW++qBlOpJ+znvP/Xme1vIt00A8SyzTqVzHsbof/EEiBZtEcii2PLP70wftxK/7Pifq8GXMnfkQsBXuT/jitga99Tjhva/F3/8M+DKnhydDRNCCI5Go1laG5uBcQQoyVQQeTVSxRrHHMDQUej3B8CC07nHeIsV3X/TVBy05kn5O6yD3548UWxiIZ4klp3Idx+p+cEUR/hDtay3RTvFyamttQUd7B1zFjz57US9fVBLJyYgtz+z+9EE7sXOfgo2/qPjLjb/8be1ctBywQ/dkmldP5MILLzwuBBuH0TjURyuRREI41Mr5b+xojFdHy+TRhkOsFIT08u3Nukb622f66oOWHEk/pwWV1kdaV2xhIJ4llpzKdRyr+/Htt98q1vW+BFtzow65KXvRWF+P4ZOmwNXTU2kvyzua8LWmvggJX4a2np9EcrSw5Zndnz54dHvJCQpNlVx3ksNtEokKvw+c2/jss88qFraB4LTTTlPmtFGscVhWIjkZMQnh1KTTIT8lGY6N9QgwtSN57UqUFxagpaW5W1gdLTj1hX1XXcmF81MlkhMdaWGTSE4QpIXtxLZ+ncz3ozcLW4eoo1l8d4v2pcO5rRleoho7fRsqKspRY7JH2LiJCIiKUYZI+zM02xt04qFDFX90cd4qHZ5UZyXORX3xxReVuagqPH8GUud8VF47OhVxBRsVzttlopMVncnWrl2rzLUl/KFFJybOQaVVns5RKvfff7/iMU6PdQ6LcS4vrxuHruk1znIIHbo4H9kSzoXmNVVXqZGcWEgLm0QikUhOCCjWGuvrUJGbDXtdPbwdNXBzsINzhxFB/CwtQNWenajI2o+W5qajYmlTg2Orc5OZVLFGKLroyU9xS/FE8UnxRm96OhURtoPb6NXN/Sgk6ThERzl61NNBiceqopUijtv48qWzEstnGSybXvKc+sDyGVqI+7ANDCzO8jnpnOXQdmJ+LLdRfB8tESs58ZGCTSKRSCQDQpOuAVWF+WgsykO4pztc0YlODoEKcaZpaUKMxg7GtCSUCdFWVVSkeNWZD/rQGkYxpCaGbKK3NcPwMNEDj9v5fwoqCh1ax+jMQ0sgP2nJoqVDhQKIXuWPPPIIuDwdp8NwDjMDblN0EVpDnnjiCcXixv0YsojDrN99951iDWMgdnV5O65vTM9vlktrGPM4xeH1119X5r1yyg2tfPTYpzMT26lCb3uu5fzGG28oyfxYln3vvfcOyNxZyYmJFGwSiUQiGRDKC/JRlZ2FuIAAaAxtMDU1olOIuM76WnTU1wjh1ogAu07oC3KRvWe3MlSoCjZ+MiA3hxrpDMb0wgsvKEvp3XHHHYqzDoc6uZ1WNAo3Cj6utkInHsa9ZIgfxkNkPEdzWDYtW0yMWEARxhA9vXmCMyg7BRvrNR/eouiih3dv81xp4WMoHw7TUvhJJEeCFGwSiUQiGRBComPgJ1LSvv1oqatFe0MdOutqhFirg6GpGfUtrcgyAo2BYXCPijnEwsag2wytwxVTODeM88A494zxLyl6uEoJg2xzdRWKNq5cQ+vV008/reTdeOONSkDxL7/88pA5YIxbSasbrVmMu8j5Z7SS8ZOirSc4t43WLlrn+usgRAsb62IcRobwYZxHiaS/SMEmkUgkkgHB1d0DvuGRcI2MQnZJGRoqK9Gua4C+uQn1bW2KWGsLj4FbzCB4+Pgqc7bUidccnuQQJ4cjGTybootiieKHoo0xC5loRePkfFrAOAeNgbHpAMFPOh3QGsYJ3SocumTepZdeqgw53nPPPcrSeFxlhsOtPaEG4VbnvdGCRw9yDmlyBR2ufNITPJaB2bkKDcUih0Ylkv4iBZtEIpFIBgQHIVQoxILjRqAzIASVLW2orq9HXWsbCjvsoAuOgPvgOAREHBBiFETmnnIMAMyVUswn3lMwUXBxRREKIa5gQzFEccfhTU7q7w2KLe7PoO20sjFRsNEBQPX8tAYdBSjoOK+OdbAcwr+5JF1vYo/QukYvUVrnuDIOk0TSH6Rgk0gkEsmAQPHlJESXb1AQYqbNRGtgCMqgQbm9Iyp9g+AbPxZBkVHK8m0UbBRo5oKNwkh1JugJhkSgmOJcMh6vCilbYX0UfrTosZyeYBvoyEBHh7q6OmUY9sknn1QCrtsSRoXt4hKCPI5wiFci6Q9SsEkkEolkwKAg0mqd4BccjEFnz4Vm4nQ0RA5B+PTTERQWpnhYcn1gWp7MxRaPozCiMwFFmbrmIue4mTsNMM4ZPTDpXcnJ/bbMLzM/nuE/GK5jyJAhirXOPN/8kyueXHfddUpcLc5DU49nUkUm91PbqB5nCdevpiXQPF6bRGILduKL02fgXMIvYX9+uahfVPNfS+bQG4iTQY+HtUQlkhMBNQjj2WefbdNaon31QWv0t58z5hWHq9R4VLZwtJ8l1jhV6zhW94MT//taS5TH6YXw0tXVHgizoXFU5pbROkXLmPmwJ+GctKVLl+LDDz9U9mMbzz//fEXc0fmA4oyWMVrFOL9N3cZYZwycy0+Gx7CEHqFcYYTtp1WOVjzW//777ytOBaxrw4YNytw07ktBydAet9xyizJk+sMPPyjOEBwC5bVjG9gn6Y3KQLgME8LYbWzLP/7xDyUOG9ckNm8LRSivGcORLFy4UBmi5TEsl+9FdZvkxMbWZ7atfdDOYDAc6H29wMLoWcMxeFsfNvT2YQP4ZbYGf2H8+9//loJNIrERtfPPmTNHsQb0RV990JIj6ecMLsryzSd198ZAPEssOZXrOFb3gyKGc836WkuU9dHyRJHE/7MMJpZnWT+FGEUbJ/erMHQG537Rq/Omm25SBBehOKKXJ6FopQMArXKcM2YJ8+mBSqOBCq/X/Pnzu8N60IuT89JUxo8fryS2m7Hg6DRA6x/htaPQY9sozjhkqsI2sR2c52beFg7z0tOVApAWNwpGni//ZtvVbZITG1ue2f3pg8f90lRsnlE8IGoryuEoTsjTxxcOA7BYsERyvGNrn1E5mZdC6o1TuY5jdT9sXfz9aEBvTlqrpBVKcrxjyzO7P33wuFY9qlirqyhDSXoqSjLSUVNWJk6uVVGlA4livhe/eDg/gnMcTnSo4OnyLoM2SiSSExla1WitsNVSKZGcLBzXgq1diIwGIZYyd+1AsMYedlXlyNiSgGohPCimBlK00WzP+Qv8JUfz+YlCTwZTik7OjTBf0NgSXk81qeWY/98cbjPf31rqqS0SiURypDC22ptvvqks+SSRnEoct4LN0NaGquJi5CftwdCgAHg5OSLMzRnB7a3Yv/onVBTkoaW5WREGkgNwnsTDDz+MpKSkri22wwm6nNDLaNxMDz30UPc2BoXkOnuEQpbzLF577TVlOZgrrrii+xjzxKERmoLpvSWRSCQSieSPcVwKNnoSVRYVoL4oD8GuTnB3sIe90QCtSD7tegTWV6Pwt9WoyNqP5sZGRURIDgSZpMDiXJL+Qld4RhRnMEq6x8+dO1exkHEMfseOHcqCypzQzG2cdMyhVQavvPrqq5W19a688sruYxk5nGKOwk11k5dIJBKJRHLkHJdOB0XZWWgsLoCLvg3Bnu4wcc5aow6dDXXoqK9FqxAOmdW10IydjNBJ0xA6aHC3Rw09gBhTR7UIES5dEhsb2x3ThyKClh+2gS7b9N4JDg5WhlnVY2m54/4Mbsg20iOJw4qrV69Wzo1weRRakjingqKGgobXihN/uewJr1VPbeF1oZfS4sWLu72V2JZJkyYp5W3atKnbOsXrzvL42Ru8R3RHp4s7g1Dm5uZi48aNSh7bRhdy1mHN1Z3tLi4uxhtvvKF4Q1Fw8Xz5SSHGYQguwsxrZbmftWMlRx/pdHBiOwSczPeDa3qyXlu+lxLJqQL7Fr2czzrrLERHR3dtPZT+9MHjUrDt3boFdrVVCHF2hCs6YRKCpkNXj04h1oy6BrQKUVbepkeFXyiCJs/A0ImTuuczcLFfupjzIqnWoFtuuUUJH0JR8dhjjymRpjMzM5W/GTvohhtuUFy6aUVi/B6KHrp381gKwTvvvFOxPtHN+7///W/38idxcXGKNWnKlClKuRRYFEocMvz8888V9+ye2kLhxPoYJZvXlg+7kSNHKmKHEbf/85//KIKL15vxiXithg8f3u12bg1VYD3++ONKrCLG+fniiy8UAUgrJCfpnnnmmf0WbGwvnRYoaClcKWQZa0gKtj8XKdhObDF1Mt+PXbt2KVMouF0ikRyA732+e2mI4TvfGv3pg8elYGtu1CFn9040Ze3DSD8v2DU3KWKtvbFBsaBVC7G2t0MDv8kzETFipGLp4tImZN68eYpoeO6555R2U0io4oJDeBRM7733Hs455xwlFg5/Gf7222+KizgDH9Ka9Je//EWxKJmLEB7LQIq0pDHeEB+MDHL49ddfH3YsFyruqy3Dhg1TAj1S3NDqxvIJxR5vLkUio2pTrNEKR/HGoUcOOfaEuWDjungrV65U4hVRoLK9vQWTVNtnTbCxPIo0PpRnzJihxDyi84K6n7VjJUcfKdhObDF1Mt8PPhv4PLVllQGJ5FSBI3XsF9QER0OwHZc/h5ycXRA0JA4uUTFIzMpBS0012psahVhrRZneiH32rvAaPwU+4RHKg8nyAfjpp58qomfq1KmKaKKVi1GpORSqDu3RAsW/VaFHaLLkvCtasqxBscO5XSybJk6uI8dhRlqfejq2p7YQBsrjMWyLCh+2I0aMUIYeIyIilDyKNIpKeq3aCr8cFE8sn/X8UXjdGBiS8ZYomiUSiUQikfx5HJeCzUGjgaevHwIHx8EtbiRy6hpQ0aBDsRBrpS5ecBo+Cv5CzAUGBytDoeYRoTkXjdGlaQ3jcOWDDz6Il19+WYk0zCFBDg9SqKkRtimQVFgO860NO1L9UkjRQsey77vvPjz11FN44YUXFMuatWN7awuhmqbgNI8nxG0sg22kEGUe66aFi0OqtsLzYntYvq2/nHuDFkAOAVPgcjiZ1h6JRCKRSCR/Dva0DvWVaLIj1vJ6SmosLmt5auppNJYCw0kIIN+QUISNnQBTbByq3b1R5x0Iu5ihCBo6DEEhIfDz81NEibnoIlyz6+KLL8Ydd9zRnWht6guGxeD8MVqQOO7MYT6a/1UooOhkcP3113eXe+211/Y6r6y3trAOznszr4PXjJY81k1HAebRIkdHBVuHOQgdGVgOhRWvM//P8o4UnjvbwDX46Hghw3UcO9gfrfUny2RLHzRPR9rP+T22lmctDdSzxDyd6nUci/vBvyUSiXXYz8z7i3nqTx+0SbDxAcCXvrW8nhL37+3BoTayJzhHwtnFBX5CtA2afR4c4sfDJX4swkaNUaw9XJKEAsZy/S0KC671RlFBD08mrvvG+Vh9wTq5skFCQoJyHOdlUMQRziVjPSyXTgTMZ7wzOhb0dC69tYUij9YqzjVTy8vIyFAEFo9j3Zwjt3XrVsWRgk4PnKtnK2wr57OsX79e8YxleZwf1xM8h3379inCjteA52UJrzmHarleHsflJccGW1/IffVBy3Sk/bw/ImQgniWW6VSv41jcD26TSCTW6a3f96cPnhBribJ+WoxUSxQnttKypoooczjP69VXXz0koj8n+NMbk0N6nBj/2WefKeJDdRzgZHxuo1B59913FUcCCqpLLrlEEVcMDnvVVVcpXp0Mr8HFhwk9QrlIL49luSyfzgcqvbXFWnn0Nl2wYIEyd41DrmwboZMDRRc/e4Ntvf322xWPVc5h43lwyJacd955ynXjki4MemsJxRzFmCrqeF+4OL9aHp0NCD1FKSLpfcpz5/ny/tAiyOjjtB6aXwPJ0UM6HQzceZwsdUinA4nk+IE/no6m08FxL9gIm8gTV83uLJfJWluoQjmEqIogwvllvFhsC/OioqKUuWE8L4bo4DAot3GOGI/jQ4/lc34c96EwY+I50VuTdRB1fhmPZbmsh8O0Kr21xVp5LItBb2k1ZGBaXiPCBzCFnuXQryVsK0Uny+e+PA/VUYFz4tT7Yc1SxzbQwqa2hfPyeF5qeRTIhPeC14xlcxvPl9vUc6XQNb8GkqOHFGwntpg6me/HnynYNM6e8AiMQaiXaEtVHqrrdNDpuzIlkj8ArV2c7sP3Gd//dPqztV9Y45QUbJKDrFixAj/99FPXX4fChzSdGxhbztaXguTEQQq2gTuPk6WO41GwOWhd4eodAj838X/Vza3TgPbWBpRUNaG9o3/z3xzdfOAdOhwx4ndhU0kGyqrqUNfWlSmR/AEo1DgdiIYOGmQ4/YpCiwYMfuf7y9EWbDLK4QkGb2hvSd1HIpFIjhv4TNK6w9vXH0G+XvB24WiBnPcmOf6gyKKDHke5GBGBiSNN6kpGxxIp2E4waF35+OOPrSbOo6NX6tGIuyaRSCRHgw5DCxqr8pFfXo8WvXjh6RvRUluJgvImtEMDZxdXuLu6wk0kF3d3ZaqFu6sTnBwdoPz0FGLPQesGF9cDeW4uLnAWeu+Qn6V29rDTOCtWCuV4JjdRptjRgcc7Oot6xLGuPJY/bsUhGi2cnEXd3E8ISDuN04G2qMe7i7JctHB0EGUrVWigcRZluKn5h5YnObmgOGM4LQo2zjfn9CXOE2cUCXV61p+NFGwSiUQi+fOxdwDcQxAzZDhGDx+OkXFxGDJ6NEaJNDouHKG+rqAdzt7BEe6hwzFkuNgu8kYMjUaEt9nwKsWSxgWOPhEYPjJe2UdJI4diRLQvXDX2cPMTxwwZjZFDYxHtq4XG3g6OnqEIjRV1i/2GxwTA0TvsQFvU40eJsoYEwtdNC9FSUYUnfCJEGaO68kVSyvM5UJ7k5ES1uHFNcK50RAHHaQE2zCY76kjBJpFIJJJjTBtadWUoTE1HXpURLfa+cHP3gJenMxw8QxDp4wBXfQUq8vchPTMfhXVA99Q3B1e4efohKswDhqo8ZO9Lwd59+civNsLBPRhhfs5AY6HiFFVtdIF7cDj8nL0Q4O8GN+c2NNXXIr/CHuGhPnBorURxdhr2pmcivUgHozYQAT7u8PUPgKdfCCI822GozD5Qx969SMvMRX6tAe0dcnj3ZIcCjfOIOceNwo0hv+ik8GdyzJwOaFbkBHqGquCEPolE0juqJy+DFzP0S1+czJPce+NUruO49RK11wAeYRge5Q8f6FBXWYaMyraD2+ybUF9VhqwK0Zaw0Yj01wK6ItTW6dDoNghDg51grMpBaWUN6kyehzgdVDbbwySEWawQbGiuR2NbO4zQwsnFFV7OdmgXx2WViXI6XeHhG4CgYB84trRCI3bX6+rRUN2KRk0ABkWL7cYmcX5CPHY4wF7rBj8PJ3TWFaJc1KF38kdsoBPau+pobaxHk64ONc1/7ktbMnDwGavOW+P32RI1CgId+/gMZh9gX+iJk8ZLlOUxYCwVam8nLJFIDsCuygcK14ftqfObczILhN44les4YQVb17b91QaxaTSiugRbfYMQUF6HeoQ2ORzqJVrV5gh7z7BDxJRRtXh1CjHVXIOy+ha0GBzg4uWPoMHRCBLFO9jVo6qoDBVVHTD5R2NYmLgGhka0ULAZzV6LLXVo0NvB4OiJIH8fRcTZ2wsh2NKAproqVNXWo6bJiM5jMEQmObpYE2zsF/yuM8wH47fy2UvvUfazvvrMSSfYeNJMEomkd2zp/OaczAKhN07lOk42wVZHweYZh1g/ezSX7ReCrRaN9t6HCrZW8eL0DMWgAEe0VeUgv0yHhtZ2WE4Lt3fwgLtfAMIG+cG5tQMOTno0VlahRtSp94xQBFunqLO0vBoV9frDjofGGY4egRgS6gVN13vLsbMV7dUF2FvSCEP7sZmILjl6mAs2Dn/yHvM7zXhs0dHRilBjLFVbOdqCTZq2JBKJRHJc0tnRAX1bC0zin9ZRA40Dp/8fSnsHl+0xwE7kuQT7wd3ZCdb85LWe3vDy94GHsRrF6QWo1DnAydcPQcHugOFAIDcnXy+4e7jC6urQ7W0w1hUiPS0Fe9PzUFStg4zXe/LCaAsUWRRbXOknMjKyX2JtILBrbm7u08JGIxyVIn9V2forjPsTHmMNLnHE9TN5UaSFTSLpG/XXWnx8vGKa74u++qAlR9LPuWQcl4iz9UE2EM8SS07lOo7V/eAEfNZtzcLWvTKBr1aIKQ0c0IGOtkY06mqQ1eCGwWG+PVrYqsrLUd3uheDYWPg5dcDB1I52UYLG0RlaDdBQlIGyGh10nW5w9/RHBOehtXfC1N6hWMhMnR1oqypBk7M/XIVgc0crmiuzhdgSZflFIjTAG37OBjTr6lBUp0FgqNhHK0ShoV208gD62mLUtolWO/si3LfLqmivgaMoS99Yi+KiauiMoj45InrCQ2sXw3dwNR/Ored63+xL1Ci29g9z2Ff6emb3pw/aGQyGPr9mnGfGE7FcaL03uMwTG8BowdagYOOi5lKwSSS2oXb+MWPGKKb5vuirD1pyJP2c7u7qEm22MBDPEktO5TqO1f3Ys2eP8pKzJtjsNU5wcvOGh9A63VUI4dVpbEVNqwaejLlmZ4C+tQUNrR1wdKeVTLy8DM1obRGpQwNnIbZctaJOiyYamuvR0qqHvtNB1OMMT283aO3tDsZoEy/D9mYd9I6uyntG06FHW1M9moyiLVoPuLk6w9Wx80BbmgA3dxc4CyVoLqk7WnVobbdHp8YFni5mFr5OAwxtLdA16rvFneTEhs9YDoXyk0KNydZ+YQ1bntn96YNyDptEcoKgdn45h613TuU6jts5bBLJKYgtz+z+9EHbbPMnAfYOWmiVKNWucBI/02ScQ8lAw99C7Ih8wXEyq0QikUgkR8opI9i0nkEIih2NUSNHINLHES62jUpIJEcMTd2FhYXKnAhaPmwwZkskEolEYpXjVrA5UWDFHFwCREnDYxAd4tm1h0RyfEOBRnM3RRsdbJgYbZ1CTiKRSCSS/nDcCrZ2fTOaG+tR0wI4u7rB3d4IY0sz6pukI7XkxEEdFuUiwhRuqampSqqsrFQmb0skEolEYgvHrWDr0DehqaEGVQ2t6KS/tEH8rdOhvrkD9lwHLiAQQX5+itutX1AQgoLE375ucHF0UE6KnknOXkEICGReEPx93OFuGZzHwQlO7j5KfncK8IGPhxM0dvbQegTA11+U4eMBDydRqtjm4OINHz9Rl9jP28vtYFvU4wNFm7xd4NjlqeTgJOr1MStfpO7yJKcMtKrRi66kpARZWVlKYMb8/HzU1NQoVjiJRCKRSHrj+PYSdXSD1jsUo2P8oG0qQVFZFYqaHA5uM7agpaMTegctXDWO4u8qFBaUoVpngJ2bH/zDBiHMzQCjeFl22mmgcdRCYzKgJm8vShs6oHfyg5+/P6J9tdC3m2BSY+voqlFYXA+T32CE+HvAtb0WuuoyFNW1Qxs0CDH+QgyamlDX2IpKgxuGBDgpMXg64QAHuw5oDDXIza2Arl2cv0+oIugCnPUH6hCnZRDl19dUoEwnX9QnM72tS8d+5O7urqylywjaXJ+OYRJ661/SS/TE9uA8me8HvUS5GLat5yaRnApQXvGHem/LCfanD57ggq0KZaWVqGz6//bO9amN84ziR1rdBUhcBEJAfE/tdHypaycdx+MvzR/d9kunidNp8iWdsT3NtDE2YDAgIQGSVtJe+z6LsAEDuyIBJO35zezYSLv77O7Ru3v2vT1xZEq3P+aba6htR2ZxZ24Eyp3h57VttJJFTBUXMDfSNWx6FtnpImZyUZjvf8HrijJ26SIWSgXMZmzsrqnPtgwkp2+jVMggY+9gc3kHqdvXMG5tobqpK0OWQenqBLD6M5Yq6u9IDhNTRfyulEVTfbZqFzCWH0ch2cbufoz9HHdk6DnNsO0jk5zKw/XJkycYHx8/dY4uGrbzO49hiXGZhk36ZxJCPuXx48c0bInmGt6tl7HeTiF3ILdc1cxAy81jIaeM1/IrLFfbsLLzKMx+NGyb7gzyU1Mo5hNwTan9cuBG40jI8VhNdCpLeLnagBXNIq+M3VRhHGMRE5FUW22/hlorhfjEDK4Vs+rJ3PbyyNkyA3csjpTmwtlaxGIrj+xYDsVcDHY3RnvrHcrVHVR1djwfdoLUsM3Ozno1bDILNmvYjmdYzNQw6/GvH37EW3WfbSdycCLs7kGIMlfQXBMjrXU8efwIxeKvN2yDXbLUBXGdvWbGg8jNJNrNOSfNocd50oim1lE3lohleE2U5c1NbL5fxbvlt3izsoaVmjJ5at+OacFW20cSMSTSScQjFsyOWmz1WVRD1HVgNaqoVdT262tYe7eExbdv8bbcRH27jMpWBRs7HcSSGSXICHKFEkozBWXigt20yXAhBVIK5vXr1710JZ9//rnXD1MeskEfmIT0G5a6z9rqhcKOxGBGU1y4hH6xogk4iKgXdwuO8gm/BYFyifaSOmEfvzQsgXKJ+tWwdT9bN9LIH6phS3dr2BzsLL/CyjE1bBvuDManCpgdsaBXV/B6eQcty/Hyzx0knpnBVGkCEznJbWciPhmFvraOmh5HdLSA6zMpGNtLWFqpodY0Pk1Ros4hOzqG4ngW0FIYHcsgadSwu/ke/1mXtlsyrBysYZM8i5LmJJ/PewZNatbk//L7D8p+DVvQXKIXkQqp19yV53EvOUqYY1yWHs+//yfW6wbcsSLasWC1e4QMMzHHQEo9683KMp7+6SuUSrPdbw7TSxmMbG5u+ho2qaGSRQppUOThIsFPOgAp9K9evfKq1Y8zbJKZIJYeQyZfwK25HOJ6GRvlClbrLhxlok4zbGU9CndkFlemM7C33mKt1oKVmlYGbQaFdLcPmzGGkfwUSlMpaNEm1v+3gbqpLpwElzdFy4StjmFs+jqmci40fQurywZG71xDQWugudtBw0xiejKLZKqF8tsytndb2Jt0RGrmOjDdmFfTF9fUNZBmgngepblxZJ26MmwbWKzo3tpkOBHDJiNCl5aWvPIgRu3KlSue2ZKHaq/sG7Zbt255Zs8PvzJ4lLOUc7nZyP6DbnMe95KjhDnGZenx00//Rq3Rgp2dQiM5pe6Awc6RkOHERdJuYaS1AaO+hQf373v3/+PopQz21Ictk8kELth+/TVkf6f1YUuNL3g1YgsHn0udGqo7dSzupE81bOuVOvT4JApXb6CUgTJk3e0VjtU1bNsGmu4oxiancfXGDNRqH9qHLb2OZvk9tvPKnGXjcLZXUF5bwXorjsTUTdycHUVOq6Na28brcgw3b5cwGtew/77pKLOnr30cdDA7fuAaKAFloMTqRh2chWu4kXLz5s0bz7jJKFApsL08GI8iD8qL6MPWSzk/a5+p3/JecpQwx7gsPWSE6C+vF7G4XkU9XYQdTdC0kdASdS2kjF1MODXcv3tX3funTiz3vZTBvh10EI0lvGk4EgcrIlzb6yvRsaLIJGOIOAYM04LpRKElUlAfwTHaMK3uNB4qdlyd/6EjVqdrdXQYtrs3DUcspo4xfqgzn+uo7b0atiRiknTUNmAaanHVW6XM76bMmRZxvOvSsSJIpuLqb/Vdd3uJ4chABDfm7d+rYdvHMb02bcO0P+l7R4YLKVrS9C//SvPRcb/zXrgowzYIndxPI8wxLksPqdl78fIlfv7vL4hmJ7CbmlamTX7vwfZJyLAQcR2kzR0kWxXElUf55ps/ewPMTipfvZTBYK9Ul4DUhBmthjeHyYel2VInZsC12mg21d8ttY6M7nQsWO0GmmqdlqH+L4MFbBOGvvfZ4X000bbU9+KWlAGU0Zv6kXWaesvbj9FqQldxdBXTlM5t6sHrKiPW0pt7x9Ix1S4MtNU+D8VRf+uGMpcyMlTt4+C+G7r6jGYtFEjhk75E6XT6V5s1QvoZaeJfmJ/H9aufwdytINuueE1CMiiLkLCgKS+SMbehNcvIxiO4f/+ed/8P+jLkR98aNkIIIYODNPvfvHED86UZJDrbSLarSFm7SCjjprkWIt6QLr6qkuEhon7PUddGzOmo33oDaWXWYsqs5VMarl294s0GEHSQURD6ex42QsgH2CQ62M2VYdFD9vf8+ffeNB8dG2jaUVjxEVhaAm5Ek6pntVawWIT0J3u2SZo/o7YJTb2UJCwdOWXUOqp83Lp1E3fu3PHW8aOXMkjDRsiAQMM22GYqTHrIY2VnZwcvXrzA68VFpNJZJBMJxLSoitNdiZABx3ZcGKoMdVQZEvP27Nkzr+xJM+h5lHMaNkIGBBq28zuPYYnRT3rIQARd173FVHEyaRkFFyyGDNaRGEGfDRJLpoqSPqNBz+MiYkh5lSYxGQEYhH49D+pxcgxH+rbvdYr3yp2UKenTeR7lnIaNkAGBhu38zmNYYlAP6uEH9RhcPS7dsAlnmUSUkLAhRVXK1aNHj2jYTiHMMagH9fCDetCwfYLfQcv+vvvuOzQNBy6TBRPii4xI0hwDXz5+TMN2CmGOQT2ohx/Ug4btE/wOWvb39398i3J0Ap3YKByaNkJORKZEiNkGcs0VfP3lH1Es0rCdRJhjUA/q4Qf1GGDDFiT5u3g66T8jBxH0oGV9QbY5DjnAb59/j934JIxkvjsrNiHkOGSun4TVQHL3Hb56+AAzM9Pdb07Grwwe5SzlvNdk4+dxLzlKmGNQD+rhB/UYXD0ihmH4GjYZKSEuMEg2+X1kZIUcwEmTxokL/ctf/wZTmTUzW0BHCzZqg5AwIhMzZjpVmNV3ePb1E8zNzXW/ORm/MniUs5RzmbpB9i9vh0E4j3vJUcIcg3pQDz+ox+DqcWlNojKE94cffkSt2UZdG4Mez7MvGyHHIPP7JGwduU4Z2UQEf3jwwEsk7webGMIXg3pQDz+ox+DqcWkOSS7avXt3kcsmoZlNxJ22+tTXOxISMmSggYm4KiMx18S9u3eRz+e73xFCCAkLl2bYxIHKg8e1bUT1GrJGzeunQwj5iNSupaw64noZzUYdY2Nj3ssOIYSQcHHpbZAyCehn83MwdsrItdaRcFrdJMGEhBkXMcfAaKeCSH0DmVQCT58+DVzNTgghZLi4dMMmNQaSKPXmtc9g7ZaRaZWR7VS9zPcx1/BqGNhUSoYf13tR0VzT668mNc7ZdgVRvYpSYRy//+ILr0ZaaqYJIYSEj0sbdHCUSqWCly9fIpFIYqO2A92KwE1k4GoJdZTykAoWl5DBRBVDeTmxLUSsFuJ2Wxm1CS9Z9sL8PIrFIjvxnuN5DEsM6kE9/KAeg6tH3xg2iSFJgmWI64sXL7C7W0cimVIXNwbthITB+4ce9JiE/flOgiLHI/vvZZteY1zEeQxLjGHWQ5IIm9ZesmGpWX748CEmJye9G0y/3Tj24QOJevhBPahHEKiHf4y+MmwSQ7LoU+DTCXOMMOlxcF/UY/B/u9SDevhBPajHaQSvErgg5IC5cOES7OZACCEkHPSdYSOEEEIIIYcJlJpK+ueYpnmu6Rn6NYakspAqVGmqDUKYrxX1oB5+UA/qEQTqQT38CKMekUaj4WvYBNmpHERQLqvjth+9xpCBEJIsNmh7tBDWa0U9qEcQqAf18IN6UI8ghE2PngYdiCsNeuBn7XjXbzHO2kkxjNeKelAPP6gH9QgC9aAefoRRj2BH0KUXx3hWGCM4jBEcxggOYwSHMYLDGMFhjOCEKUZPho0QQgghhFw8NGyEEEIIIX0ODRshhBBCSJ9Dw0YIIYQQ0ufQsBFCCCGE9Dk0bIQQQgghfQ4NGyGEEEJIn0PDRgghhBDS59CwEUIIIYT0OZFms+mbmkqyV0muK8nBFRRZXwiazqFfY6jr462fSqW6n5xOmK/VRcSgHtTDD+pBPYJwETGoB/Xwo5cYEcMwfA2bbdtevqvzzFjfrzEku7/sP5vNdj85nTBfK+pBPfygHtQjCNSDevgRRj16Sv4uJxn0oM+aALXfYpw1WWwYrxX1oB5+UA/qEQTqQT38CJ8ewP8BcVuhGbmpU88AAAAASUVORK5CYII=;" vertex="1" parent="1">
                    <mxGeometry x="104" y="1340" width="620" height="641" as="geometry"/>
                </mxCell>
                <mxCell id="202" value="numero" style="ellipse;whiteSpace=wrap;html=1;align=center;" vertex="1" parent="1">
                    <mxGeometry x="210" y="650" width="100" height="40" as="geometry"/>
                </mxCell>
                <mxCell id="203" value="" style="endArrow=none;html=1;rounded=0;" edge="1" parent="1">
                    <mxGeometry width="50" height="50" relative="1" as="geometry">
                        <mxPoint x="190" y="669.8599999999999" as="sourcePoint"/>
                        <mxPoint x="210" y="669.8599999999999" as="targetPoint"/>
                    </mxGeometry>
                </mxCell>
            </root>
        </mxGraphModel>
    </diagram>
</mxfile>